<svg width="449" height="388" viewBox="0 0 449 388" fill="none" xmlns="http://www.w3.org/2000/svg">
<g clip-path="url(#clip0_987_17887)">
<path d="M430.622 238.172C409.499 184.986 354.903 145.952 342.202 87.4393C334.02 26.2545 243.04 1.22979 193.602 33.5594C115.267 84.7864 181.836 118.488 28.2461 239.688C-9.67912 269.614 20.0536 324.663 39.3871 341.752C53.623 354.335 91.4026 372.283 124.83 364.317C189.273 348.961 225.234 335.551 254.114 332.864C326.912 326.093 439.634 329.871 430.622 238.172Z" fill="#E5E5E5"/>
<path d="M430.378 60.2755C430.371 70.0129 428.011 79.6039 423.499 88.2287C418.987 96.8534 412.458 104.256 404.47 109.803C396.481 115.35 387.271 118.877 377.626 120.082C367.981 121.288 358.189 120.136 349.085 116.725C344.815 115.124 340.744 113.037 336.951 110.503C329.701 105.677 323.577 99.339 318.999 91.9227V91.916C314.116 83.9836 311.135 75.0249 310.291 65.7437C309.447 56.4626 310.763 47.1117 314.135 38.4259C317.507 29.7402 322.843 21.956 329.725 15.6851C336.607 9.41412 344.846 4.82723 353.796 2.28476C362.745 -0.257702 372.162 -0.686484 381.305 1.03211C390.448 2.7507 399.068 6.56984 406.489 12.1895C413.911 17.8091 419.93 25.0762 424.075 33.4197C428.219 41.7632 430.376 50.9559 430.376 60.2755H430.378Z" fill="white"/>
<path opacity="0.2" d="M430.378 60.2755C430.371 70.0129 428.011 79.6039 423.499 88.2287C418.987 96.8534 412.458 104.256 404.47 109.803C396.481 115.35 387.271 118.877 377.626 120.082C367.981 121.288 358.189 120.136 349.085 116.725C344.815 115.124 340.744 113.037 336.951 110.503C329.701 105.677 323.577 99.339 318.999 91.9227V91.916C314.116 83.9836 311.135 75.0249 310.291 65.7437C309.447 56.4626 310.763 47.1117 314.135 38.4259C317.507 29.7402 322.843 21.956 329.725 15.6851C336.607 9.41412 344.846 4.82723 353.796 2.28476C362.745 -0.257702 372.162 -0.686484 381.305 1.03211C390.448 2.7507 399.068 6.56984 406.489 12.1895C413.911 17.8091 419.93 25.0762 424.075 33.4197C428.219 41.7632 430.376 50.9559 430.376 60.2755H430.378Z" fill="#FADB26"/>
<path d="M360.175 23.9615C360.175 23.9615 355.76 20.7634 354.527 13.2176C353.572 7.37453 359.045 11.0598 359.045 11.0598C359.045 11.0598 358.4 6.84463 361.48 7.20191C364.56 7.5592 366.372 11.961 366.372 11.961" fill="#0C0C0C"/>
<path d="M377.372 7.36917C377.372 7.36917 392.651 8.6926 387.565 29.5035L386.218 29.6219L383.48 29.8621" fill="#0C0C0C"/>
<path d="M362.904 51.3132C362.971 51.3045 363.716 63.6723 378.056 62.5938C387.985 61.8484 391.525 51.2958 391.753 51.2958C390.618 51.1068 389.499 50.8349 388.404 50.4822C386.841 49.6405 384.907 48.7647 384.402 45.7238C384.112 43.9701 384.603 35.0018 384.453 33.2281L369.213 36.6364C369.426 40.3832 370.916 49.0665 365.693 50.6033C364.824 50.8576 363.887 51.0911 362.904 51.3132Z" fill="#E5BB98"/>
<path opacity="0.52" d="M369 47.0547C369.238 46.2838 369.392 45.4891 369.458 44.6848C369.625 42.8494 369.592 41.0011 369.358 39.173C372.456 38.7546 375.374 37.4738 377.781 35.4763C378.064 36.5234 379.62 41.0966 379.19 42.0935C378.375 43.9742 374.547 47.0547 369 47.0547Z" fill="#0C0C0C"/>
<path d="M372.399 44.7316C378.399 44.0679 385.515 40.115 385.451 31.9382L385.393 24.5603C385.326 16.3836 380.99 9.78853 373.305 9.84942C365.62 9.90963 359.928 16.583 359.992 24.7597L360.018 28.0261C360.046 29.1471 360.151 30.2648 360.331 31.3715C360.786 34.3007 361.488 38.7547 363.54 41.7348C365.479 44.5496 368.565 45.1558 372.399 44.7316Z" fill="#E5BB98"/>
<path d="M362.61 29.545C363.133 29.545 363.557 29.1205 363.557 28.5969C363.557 28.0733 363.133 27.6488 362.61 27.6488C362.088 27.6488 361.664 28.0733 361.664 28.5969C361.664 29.1205 362.088 29.545 362.61 29.545Z" fill="#0C0C0C"/>
<path d="M371.273 28.8438C371.796 28.8438 372.219 28.4193 372.219 27.8957C372.219 27.3721 371.796 26.9476 371.273 26.9476C370.75 26.9476 370.327 27.3721 370.327 27.8957C370.327 28.4193 370.75 28.8438 371.273 28.8438Z" fill="#0C0C0C"/>
<path d="M384.993 34.4325C387.331 34.4144 389.201 31.8967 389.184 29.557C389.167 27.2172 387.262 25.944 384.926 25.96L383.735 27.5377L382.985 34.4486L384.993 34.4325Z" fill="#E5BB98"/>
<path d="M382.593 30.7218C382.593 30.7218 381.567 19.1716 378.051 18.5293C375.71 18.1018 370.123 21.5314 364.865 20.6389C362.565 20.2481 360.402 20.861 360.203 21.9503C360.124 22.3812 358.57 16.2411 362.062 11.4846C364.842 7.69766 374.169 6.45251 378.448 7.58726C390.294 10.7319 385.418 26.4598 385.418 26.4598L384.975 30.4582L382.593 30.7218Z" fill="#0C0C0C"/>
<g opacity="0.52">
<path opacity="0.52" d="M367.851 34.8253H367.837C367.084 34.8334 365.821 34.7624 365.814 34.1984C365.81 33.7301 367.034 28.6732 367.174 28.0985C367.186 28.049 367.217 28.0062 367.26 27.9797C367.303 27.9532 367.356 27.945 367.405 27.957C367.454 27.9689 367.497 28.0001 367.524 28.0436C367.55 28.087 367.558 28.1393 367.546 28.1888C367.002 30.4288 366.194 33.8759 366.198 34.1944C366.714 34.4084 367.275 34.4931 367.832 34.4413C367.882 34.4403 367.93 34.4587 367.967 34.4928C368.003 34.5268 368.025 34.5737 368.027 34.6236C368.03 34.6734 368.013 34.7223 367.98 34.7598C367.947 34.7974 367.901 34.8206 367.851 34.8247V34.8253Z" fill="#0C0C0C"/>
</g>
<path d="M365.173 23.4517C364.388 23.2511 363.563 23.2661 362.786 23.4952C362.403 23.6052 362.039 23.7723 361.706 23.991C361.376 24.2055 361.074 24.4608 360.808 24.7511C360.762 24.7961 360.735 24.8577 360.734 24.9223C360.733 24.9869 360.758 25.0493 360.803 25.0957C360.848 25.1421 360.909 25.1687 360.974 25.1697C361.038 25.1707 361.101 25.146 361.147 25.101L361.161 25.0883C361.41 24.845 361.689 24.6342 361.99 24.4607C362.287 24.2885 362.608 24.1624 362.943 24.0867C363.604 23.9297 364.296 23.9512 364.946 24.1489L364.971 24.157C365.017 24.1718 365.065 24.1774 365.113 24.1735C365.161 24.1697 365.207 24.1564 365.25 24.1345C365.293 24.1125 365.331 24.0824 365.362 24.0457C365.393 24.009 365.417 23.9666 365.432 23.9208C365.447 23.8749 365.452 23.8267 365.448 23.7787C365.444 23.7307 365.431 23.6839 365.409 23.641C365.387 23.5982 365.357 23.56 365.321 23.5288C365.284 23.4976 365.242 23.4739 365.196 23.4591L365.173 23.4517Z" fill="#0C0C0C"/>
<path d="M370.774 23.714C371.38 23.4068 372.055 23.2655 372.733 23.3045C373.075 23.3203 373.413 23.388 373.735 23.5052C374.062 23.6233 374.373 23.7825 374.66 23.9789L374.676 23.989C374.729 24.0177 374.791 24.0257 374.849 24.0114C374.908 23.9971 374.959 23.9616 374.993 23.9117C375.027 23.8617 375.041 23.801 375.033 23.7411C375.025 23.6812 374.995 23.6265 374.949 23.5875C374.636 23.3483 374.295 23.1493 373.933 22.9954C373.567 22.8384 373.179 22.7374 372.783 22.6956C371.978 22.6056 371.163 22.7345 370.424 23.069C370.381 23.0891 370.341 23.1177 370.309 23.153C370.276 23.1884 370.251 23.2298 370.234 23.2749C370.218 23.3201 370.21 23.3681 370.212 23.4161C370.214 23.4642 370.225 23.5114 370.246 23.5551C370.266 23.5987 370.294 23.638 370.329 23.6706C370.365 23.7033 370.406 23.7286 370.451 23.7452C370.496 23.7618 370.544 23.7694 370.592 23.7675C370.64 23.7656 370.687 23.7542 370.731 23.734L370.748 23.726L370.774 23.714Z" fill="#0C0C0C"/>
<path d="M370.164 11.3719C370.643 8.81249 369.624 6.47337 367.889 6.14728C366.154 5.82119 364.358 7.63163 363.879 10.191C363.4 12.7504 364.419 15.0895 366.154 15.4156C367.889 15.7417 369.685 13.9312 370.164 11.3719Z" fill="#0C0C0C"/>
<path d="M411.284 80.3878C410.689 86.744 410.275 96.7935 410.009 105.478C401.822 112.703 391.83 117.565 381.101 119.546C370.371 121.527 359.306 120.552 349.087 116.725C348.76 111.299 348.245 102.882 347.765 95.268C347.284 87.6674 346.837 80.8629 346.65 78.6282C345.895 69.7563 343.311 63.9219 344.9 59.0042C345.376 57.5492 346.18 56.2236 347.25 55.1303C351.238 50.9085 361.522 50.6007 365.656 50.6007C365.73 50.6007 364.821 60.1885 378.393 59.5462C388.363 59.0778 388.784 50.6007 388.784 50.6007C388.784 50.6007 393.72 50.9218 397.005 51.3634C402.381 52.0927 405.927 53.9193 408.746 56.7428C411.371 59.3789 412.974 62.2238 411.284 80.3878Z" fill="#F9E165"/>
<path d="M365.911 69.2947L347.765 95.2614V95.2681L338.055 109.158C337.72 109.632 337.352 110.082 336.953 110.503C329.703 105.677 323.579 99.3391 319.001 91.9228V91.9161L326.347 56.7362L343.912 60.4161L344.901 59.0043V58.9976L346.985 56.0203L365.911 69.2947Z" fill="#F9E165"/>
<path d="M339.623 79.5091L336.312 100.209L336.637 100.261L339.948 79.5614L339.623 79.5091Z" fill="#0C0C0C" fill-opacity="0.2"/>
<path d="M347.256 54.2706C347.384 54.1146 347.479 53.9342 347.535 53.7402C347.591 53.5463 347.607 53.3429 347.582 53.1425C347.557 52.9422 347.492 52.749 347.39 52.5749C347.288 52.4007 347.151 52.2492 346.989 52.1296C346.667 51.9077 346.273 51.8169 345.887 51.8758C345.5 51.9347 345.151 52.1389 344.91 52.4467L344.179 53.4122L346.316 44.751C346.373 44.5682 346.392 44.3757 346.372 44.1853C346.351 43.9949 346.293 43.8106 346.199 43.6438C346.105 43.477 345.978 43.3312 345.826 43.2153C345.674 43.0995 345.499 43.016 345.314 42.97C345.128 42.924 344.935 42.9165 344.747 42.9479C344.558 42.9793 344.378 43.049 344.217 43.1527C344.057 43.2564 343.919 43.3919 343.812 43.5509C343.706 43.7099 343.633 43.889 343.598 44.0773L342.708 47.6843C342.699 47.6787 342.689 47.6742 342.679 47.6709C342.694 47.2866 342.56 46.9113 342.305 46.6238C342.05 46.3362 341.694 46.1588 341.311 46.1287C340.961 46.1087 340.615 46.2105 340.332 46.4168C340.048 46.6231 339.844 46.9212 339.755 47.2607L339.617 47.7471C339.6 47.7498 339.584 47.7557 339.569 47.7645C339.586 47.4159 339.479 47.0725 339.268 46.7946C339.057 46.5168 338.755 46.3222 338.416 46.2451C338.032 46.1724 337.635 46.2482 337.305 46.4574C336.975 46.6665 336.737 46.9933 336.638 47.3718L336.299 48.5708C336.293 48.5541 336.284 48.5389 336.272 48.5259C336.26 48.5129 336.245 48.5024 336.229 48.4951C336.213 48.4877 336.196 48.4837 336.178 48.4831C336.16 48.4826 336.143 48.4855 336.126 48.4918C336.057 48.1829 335.89 47.9044 335.652 47.697C335.413 47.4896 335.114 47.3641 334.799 47.339C334.449 47.3189 334.103 47.4205 333.819 47.6267C333.536 47.8329 333.332 48.1309 333.242 48.4704L331.394 54.9685C330.989 56.4037 331.02 57.9276 331.485 59.3447C331.95 60.7619 332.826 62.0077 334.002 62.9224L337.788 65.8663L347.256 54.2706Z" fill="#E5BB98"/>
<g opacity="0.2">
<path opacity="0.2" d="M341.672 51.3307C341.669 51.3145 341.669 51.298 341.672 51.2818L342.496 47.7685C342.5 47.7507 342.508 47.7338 342.519 47.719C342.529 47.7041 342.543 47.6915 342.558 47.6818C342.574 47.6721 342.591 47.6656 342.609 47.6627C342.627 47.6597 342.646 47.6603 342.663 47.6645C342.681 47.6687 342.698 47.6763 342.713 47.687C342.728 47.6977 342.74 47.7112 342.75 47.7267C342.76 47.7423 342.766 47.7596 342.769 47.7777C342.772 47.7958 342.772 47.8142 342.767 47.8321L341.943 51.3461C341.935 51.3776 341.917 51.4055 341.891 51.4248C341.864 51.4441 341.832 51.4537 341.8 51.4519C341.768 51.4501 341.737 51.437 341.713 51.4148C341.689 51.3927 341.674 51.3629 341.669 51.3307H341.672Z" fill="#0C0C0C"/>
<path opacity="0.2" d="M338.833 50.6582C338.83 50.6416 338.83 50.6246 338.833 50.6081L339.501 47.8515C339.505 47.8336 339.513 47.8168 339.524 47.802C339.535 47.7872 339.548 47.7747 339.564 47.7652C339.58 47.7557 339.597 47.7494 339.615 47.7466C339.633 47.7439 339.652 47.7447 339.67 47.7491C339.687 47.7535 339.704 47.7614 339.719 47.7722C339.734 47.7831 339.746 47.7968 339.756 47.8125C339.765 47.8283 339.771 47.8457 339.774 47.8639C339.777 47.882 339.776 47.9005 339.772 47.9184L339.104 50.675C339.096 50.7066 339.077 50.7344 339.051 50.7537C339.025 50.773 338.993 50.7825 338.96 50.7806C338.928 50.7787 338.897 50.7655 338.873 50.7433C338.85 50.721 338.834 50.6912 338.83 50.6589L338.833 50.6582Z" fill="#0C0C0C"/>
<path opacity="0.2" d="M335.75 49.9463C335.747 49.931 335.747 49.9155 335.75 49.9002L336.035 48.5908C336.044 48.5559 336.066 48.526 336.097 48.5072C336.128 48.4885 336.164 48.4823 336.2 48.4899C336.235 48.4976 336.266 48.5186 336.286 48.5485C336.306 48.5783 336.313 48.6148 336.307 48.6503L336.022 49.9597C336.015 49.9921 335.997 50.021 335.971 50.0412C335.945 50.0615 335.912 50.0717 335.879 50.0701C335.846 50.0685 335.814 50.0551 335.79 50.0325C335.766 50.0098 335.751 49.9793 335.747 49.9463H335.75Z" fill="#0C0C0C"/>
</g>
<path d="M334.143 79.0049H345.845C346.147 79.0049 346.445 78.9377 346.718 78.8083C346.991 78.6789 347.232 78.4904 347.424 78.2565C347.615 78.0225 347.753 77.7489 347.826 77.4553C347.9 77.1618 347.907 76.8556 347.848 76.5587L343.219 53.2495C343.126 52.7822 342.873 52.362 342.504 52.0613C342.135 51.7606 341.673 51.5983 341.198 51.6023L329.794 51.6986C329.496 51.7012 329.201 51.7693 328.932 51.8981C328.662 52.027 328.424 52.2134 328.234 52.4444C328.044 52.6754 327.908 52.9453 327.833 53.235C327.759 53.5247 327.748 53.8273 327.803 54.1214L332.135 77.3342C332.222 77.8037 332.471 78.2278 332.838 78.5329C333.205 78.8381 333.666 79.005 334.143 79.0049Z" fill="#262626"/>
<path d="M332.5 66.0234C332.679 65.7542 332.94 65.5496 333.244 65.4399C333.548 65.3302 333.879 65.3211 334.189 65.4139C334.189 65.3951 334.194 65.3766 334.203 65.36C334.212 65.3435 334.225 65.3295 334.241 65.3191C334.257 65.3088 334.275 65.3024 334.293 65.3006C334.312 65.2988 334.331 65.3017 334.348 65.3089L333.44 64.4009C333.153 64.1255 332.981 63.7514 332.959 63.354C332.937 62.9566 333.066 62.5656 333.321 62.2599C333.558 61.9949 333.88 61.8221 334.232 61.772C334.584 61.7218 334.942 61.7974 335.243 61.9856C335.243 61.9709 335.255 61.9581 335.26 61.9441L334.886 61.5701C334.629 61.3221 334.465 60.9927 334.422 60.6377C334.38 60.2826 334.461 59.9237 334.652 59.6217C334.776 59.4349 334.94 59.2779 335.132 59.162C335.323 59.0462 335.538 58.9744 335.761 58.9519C335.984 58.9294 336.209 58.9566 336.42 59.0318C336.631 59.1069 336.822 59.2279 336.981 59.3862L337.844 60.2487C337.848 60.2433 337.844 60.236 337.851 60.2313C337.857 60.2266 337.867 60.2266 337.873 60.2212C337.691 59.9318 337.612 59.5889 337.649 59.2487C337.686 58.9084 337.838 58.5909 338.078 58.3478C338.661 57.6788 339.703 58.0059 340.26 58.5639L345.526 63.7305L345.365 63.4897L344.619 61.5861C344.467 61.2183 344.459 60.8061 344.598 60.4329C344.737 60.0597 345.013 59.7533 345.369 59.5756C345.555 59.4903 345.758 59.4441 345.963 59.4397C346.168 59.4353 346.372 59.4728 346.562 59.55C346.753 59.6272 346.925 59.7424 347.07 59.8887C347.214 60.0349 347.327 60.2091 347.402 60.4005L351.761 71.1994C351.761 71.1994 342.604 77.8386 340.408 75.644L332.734 67.9765C332.476 67.7283 332.311 67.398 332.268 67.0419C332.226 66.6859 332.307 66.3259 332.5 66.0234Z" fill="#E5BB98"/>
<g opacity="0.2">
<path opacity="0.2" d="M342.898 65.1169C342.872 65.1424 342.837 65.1567 342.8 65.1567C342.764 65.1567 342.729 65.1424 342.703 65.1169L337.854 60.426C337.841 60.4133 337.83 60.3981 337.822 60.3811C337.815 60.3642 337.811 60.3459 337.81 60.3274C337.81 60.3088 337.813 60.2904 337.82 60.2731C337.826 60.2558 337.837 60.2401 337.849 60.2268C337.862 60.2135 337.878 60.2028 337.895 60.1956C337.912 60.1883 337.93 60.1844 337.949 60.1843C337.967 60.1842 337.985 60.1877 338.003 60.1948C338.02 60.2018 338.035 60.2122 338.048 60.2253L342.896 64.9155C342.91 64.9283 342.921 64.9437 342.928 64.9608C342.936 64.9779 342.94 64.9963 342.94 65.015C342.941 65.0337 342.937 65.0523 342.931 65.0697C342.924 65.0871 342.913 65.1029 342.9 65.1162L342.898 65.1169Z" fill="#0C0C0C"/>
<path opacity="0.2" d="M340.892 67.3162C340.866 67.3417 340.831 67.356 340.795 67.356C340.758 67.356 340.723 67.3417 340.697 67.3162L335.288 62.0813C335.274 62.0683 335.263 62.0527 335.256 62.0355C335.249 62.0182 335.245 61.9997 335.245 61.981C335.245 61.9623 335.249 61.9437 335.256 61.9265C335.263 61.9093 335.274 61.8937 335.288 61.8806C335.314 61.8554 335.349 61.8414 335.386 61.8414C335.423 61.8414 335.458 61.8554 335.485 61.8806L340.894 67.1148C340.907 67.1279 340.918 67.1435 340.925 67.1607C340.933 67.178 340.936 67.1965 340.936 67.2152C340.936 67.2338 340.933 67.2524 340.925 67.2696C340.918 67.2868 340.907 67.3024 340.894 67.3155L340.892 67.3162Z" fill="#0C0C0C"/>
<path opacity="0.2" d="M338.734 69.7108C338.708 69.7363 338.672 69.7505 338.636 69.7505C338.6 69.7505 338.565 69.7363 338.539 69.7108L334.222 65.5351C334.196 65.5089 334.182 65.4734 334.182 65.4364C334.182 65.3994 334.196 65.3639 334.222 65.3377C334.235 65.3242 334.251 65.3134 334.268 65.3059C334.285 65.2984 334.303 65.2944 334.322 65.2941C334.34 65.2938 334.359 65.2972 334.376 65.3041C334.394 65.311 334.409 65.3213 334.423 65.3343L338.738 69.5094C338.752 69.5222 338.763 69.5376 338.77 69.5547C338.778 69.5718 338.782 69.5902 338.782 69.6089C338.783 69.6276 338.779 69.6462 338.772 69.6635C338.766 69.6809 338.755 69.6967 338.742 69.7101L338.734 69.7108Z" fill="#0C0C0C"/>
</g>
<path d="M392.703 65.0915L374.143 90.5491L351.93 65.6455L336.847 78.1886L366.166 114.332C366.818 115.173 367.582 115.92 368.436 116.552C373.445 120.219 381.466 118.791 385.125 113.771L385.37 113.437L411.36 78.7446L392.703 65.0915Z" fill="#F9E165"/>
<path d="M375.081 118.772C372.67 118.807 370.311 118.076 368.34 116.685C367.471 116.044 366.695 115.287 366.033 114.434L336.616 78.1698L351.951 65.4173L352.056 65.5424L374.129 91.6002L389.739 68.8771L390.011 69.0644L374.157 92.1434L351.91 65.8769L337.078 78.2147L366.291 114.231C367.549 115.876 369.249 117.129 371.191 117.842C373.133 118.555 375.238 118.7 377.26 118.259C380.33 117.786 383.099 116.145 384.992 113.677L385.236 113.342L405.546 86.4456L405.809 86.6463L385.501 113.543L385.258 113.878C383.315 116.415 380.47 118.103 377.315 118.591C376.577 118.714 375.829 118.774 375.081 118.772Z" fill="#0C0C0C" fill-opacity="0.2"/>
<path d="M374.272 91.769L374.014 91.975L377.063 95.8096L377.321 95.6036L374.272 91.769Z" fill="#0C0C0C" fill-opacity="0.2"/>
<path d="M366.288 36.504C368.767 36.5721 371.199 35.8107 373.198 34.3402C373.268 34.2895 373.35 34.2597 373.436 34.2542C373.521 34.2488 373.607 34.2678 373.682 34.3093C373.757 34.3507 373.819 34.4128 373.86 34.4882C373.901 34.5636 373.92 34.6492 373.915 34.735C373.807 36.2069 373.189 38.9241 370.138 39.3857C368.167 39.6841 366.675 38.2175 365.913 37.2333C365.86 37.1652 365.828 37.0834 365.82 36.9975C365.812 36.9116 365.829 36.8253 365.868 36.7486C365.907 36.672 365.968 36.6082 366.042 36.5649C366.117 36.5216 366.202 36.5004 366.288 36.504Z" fill="white"/>
<path d="M61.336 312.01C95.2109 312.01 122.672 284.499 122.672 250.562C122.672 216.625 95.2109 189.114 61.336 189.114C27.4611 189.114 0 216.625 0 250.562C0 284.499 27.4611 312.01 61.336 312.01Z" fill="white"/>
<path opacity="0.3" d="M122.673 250.56C122.674 262.714 119.076 274.594 112.337 284.699C105.597 294.805 96.0178 302.681 84.8101 307.332C73.6023 311.983 61.2697 313.199 49.3716 310.828C37.4735 308.458 26.5444 302.605 17.9664 294.011C9.38835 285.418 3.54665 274.468 1.18001 262.549C-1.18663 250.629 0.0280858 238.273 4.67054 227.045C9.313 215.817 17.1747 206.22 27.2614 199.468C37.3482 192.716 49.207 189.112 61.3381 189.112C69.4012 189.082 77.3905 190.651 84.8456 193.729C92.3007 196.806 99.0742 201.331 104.776 207.043C110.477 212.755 114.994 219.541 118.066 227.01C121.137 234.478 122.703 242.482 122.673 250.56Z" fill="#FADB26"/>
<path d="M115.226 279.94C111.012 287.669 105.196 294.406 98.1695 299.698L82.7155 282.449L65.9658 263.749L80.1576 250.501L85.7402 256.295L94.2887 265.154L107.157 259.942L115.226 279.94Z" fill="#FADB26"/>
<path d="M97.1411 289.307C97.157 289.307 97.1728 289.305 97.1879 289.299C97.2236 289.287 97.253 289.261 97.2697 289.227C97.2863 289.193 97.2888 289.153 97.2767 289.117L87.5434 260.965C87.5307 260.93 87.5045 260.9 87.4704 260.884C87.4362 260.867 87.397 260.865 87.3611 260.877C87.3254 260.89 87.296 260.916 87.2795 260.95C87.263 260.984 87.2606 261.023 87.273 261.059L97.0062 289.213C97.0163 289.241 97.0347 289.265 97.0588 289.282C97.083 289.298 97.1117 289.307 97.1411 289.307Z" fill="#0C0C0C" fill-opacity="0.2"/>
<path d="M34.002 215.709C34.002 215.709 34.6698 234.217 46.997 235.066L49.0827 210.662L34.002 215.709Z" fill="#0A0A0A"/>
<path d="M36.377 238.846C40.4111 238.846 43.6813 235.57 43.6813 231.528C43.6813 227.487 40.4111 224.211 36.377 224.211C32.343 224.211 29.0728 227.487 29.0728 231.528C29.0728 235.57 32.343 238.846 36.377 238.846Z" fill="#0A0A0A"/>
<path d="M64.9571 243.657C64.8903 243.648 64.1704 255.649 50.2551 254.603C40.6213 253.879 37.1866 243.64 36.9648 243.64C38.0656 243.457 39.1516 243.193 40.2139 242.851C41.7306 242.034 43.6073 241.184 44.0968 238.234C44.378 236.534 43.9005 227.832 44.0474 226.111L58.8376 229.416C58.6306 233.05 57.1847 241.477 62.253 242.968C63.0951 243.215 64.0034 243.442 64.9571 243.657Z" fill="#E5BB98"/>
<path opacity="0.5" d="M59.0432 239.524C58.8115 238.777 58.6624 238.006 58.5984 237.225C58.4359 235.445 58.4683 233.651 58.6953 231.877C55.6894 231.47 52.8578 230.227 50.5221 228.288C50.2476 229.304 48.7376 233.743 49.1557 234.711C49.9464 236.536 53.6597 239.524 59.0432 239.524Z" fill="#0C0C0C"/>
<path d="M56.7272 236.29C50.8702 236.365 43.5485 233.404 42.6409 225.523L41.8221 218.411C40.9145 210.529 44.3105 203.662 51.7183 202.806C59.1261 201.95 65.3986 207.699 66.3062 215.581L66.6688 218.73C67.0168 221.754 67.1764 236.158 56.7272 236.29Z" fill="#E5BB98"/>
<path d="M64.5457 218.516C65.0529 218.516 65.464 218.104 65.464 217.596C65.464 217.088 65.0529 216.676 64.5457 216.676C64.0386 216.676 63.6274 217.088 63.6274 217.596C63.6274 218.104 64.0386 218.516 64.5457 218.516Z" fill="#0C0C0C"/>
<path d="M55.1576 219.592C55.6647 219.592 56.0758 219.18 56.0758 218.672C56.0758 218.164 55.6647 217.752 55.1576 217.752C54.6504 217.752 54.2393 218.164 54.2393 218.672C54.2393 219.18 54.6504 219.592 55.1576 219.592Z" fill="#0C0C0C"/>
<path opacity="0.5" d="M59.8164 225.679H59.8311C60.1312 225.642 60.4291 225.588 60.7234 225.519C61.1628 225.411 61.7425 225.223 61.6971 224.829C61.6457 224.379 59.8598 219.677 59.6561 219.142C59.648 219.118 59.6351 219.096 59.6182 219.077C59.6014 219.058 59.5809 219.043 59.558 219.032C59.5352 219.021 59.5104 219.015 59.4851 219.014C59.4599 219.013 59.4347 219.017 59.4111 219.026C59.3874 219.035 59.3659 219.049 59.3476 219.066C59.3294 219.084 59.3148 219.105 59.3048 219.128C59.2949 219.151 59.2897 219.176 59.2896 219.202C59.2894 219.227 59.2944 219.252 59.3042 219.275C60.0662 221.279 61.2884 224.569 61.3231 224.872C60.8532 225.137 60.3263 225.285 59.787 225.304C59.7385 225.309 59.6941 225.333 59.663 225.371C59.6319 225.409 59.6166 225.457 59.6203 225.506C59.624 225.555 59.6465 225.6 59.6829 225.632C59.7194 225.665 59.767 225.682 59.8157 225.68L59.8164 225.679Z" fill="#0C0C0C"/>
<path opacity="0.5" d="M58.4923 228.957C59.6954 228.888 60.8655 228.537 61.9084 227.932C61.9315 227.921 61.9521 227.905 61.969 227.886C61.9859 227.866 61.9986 227.844 62.0064 227.819C62.0142 227.795 62.017 227.769 62.0145 227.743C62.012 227.718 62.0044 227.693 61.992 227.671C61.9796 227.648 61.9627 227.628 61.9425 227.613C61.9222 227.597 61.8989 227.585 61.8741 227.579C61.8493 227.573 61.8234 227.571 61.798 227.575C61.7727 227.579 61.7484 227.588 61.7267 227.602C59.4741 228.851 57.3189 228.923 55.4977 227.811C55.4609 227.787 55.4228 227.765 55.3835 227.745C55.3382 227.726 55.2877 227.726 55.2425 227.745C55.1974 227.763 55.1611 227.798 55.1412 227.843C55.1214 227.888 55.1197 227.938 55.1363 227.984C55.153 228.03 55.1867 228.068 55.2305 228.089C55.2452 228.097 55.2686 228.111 55.302 228.131C56.2597 228.718 57.3706 229.006 58.4923 228.957Z" fill="#0C0C0C"/>
<path d="M35.7969 220.432L42.4347 219.704C47.5437 218.051 49.6648 209.554 49.6648 209.554C49.6648 209.554 54.2396 214.767 67.7982 212.387C67.7982 212.387 67.2733 194.875 46.6535 197.34C39.4701 198.202 34.0605 205.413 34.003 214.845C33.9643 221.454 35.7969 220.432 35.7969 220.432Z" fill="#0A0A0A"/>
<path d="M43.3773 227.87C41.126 228.131 39.0236 225.93 38.7638 223.674C38.504 221.418 40.1857 219.964 42.437 219.704L43.7727 221.081L45.3147 227.647L43.3773 227.87Z" fill="#E5BB98"/>
<path d="M61.295 215.3C61.959 214.932 62.7096 214.75 63.4681 214.773C63.8428 214.781 64.214 214.846 64.5694 214.965C64.9221 215.081 65.2586 215.242 65.5712 215.442C65.6042 215.461 65.6283 215.493 65.6382 215.53C65.6481 215.567 65.643 215.606 65.624 215.639C65.6049 215.672 65.5735 215.696 65.5367 215.706C65.4999 215.716 65.4606 215.711 65.4276 215.692L65.4176 215.687C65.1212 215.51 64.804 215.372 64.4733 215.275C64.1453 215.177 63.8044 215.129 63.4621 215.133C62.7807 215.137 62.1125 215.322 61.5254 215.668L61.5113 215.677C61.4625 215.705 61.4048 215.712 61.3506 215.698C61.2964 215.684 61.2497 215.649 61.2206 215.601C61.1914 215.553 61.1819 215.496 61.1942 215.441C61.2065 215.386 61.2395 215.338 61.2863 215.307L61.295 215.3Z" fill="#0C0C0C"/>
<path d="M55.3478 216.397C54.6993 216.192 54.0081 216.162 53.3443 216.31C53.0098 216.383 52.6883 216.506 52.3906 216.675C52.0897 216.843 51.8112 217.049 51.5618 217.287L51.5538 217.294C51.5258 217.32 51.4886 217.334 51.4505 217.333C51.4123 217.331 51.3763 217.315 51.3504 217.287C51.3244 217.259 51.3107 217.221 51.3121 217.183C51.3136 217.145 51.3301 217.109 51.3581 217.083C51.6173 216.817 51.909 216.585 52.2263 216.393C52.5462 216.198 52.8936 216.052 53.2568 215.96C53.9914 215.769 54.7634 215.78 55.4927 215.989C55.5461 216.007 55.5905 216.044 55.6166 216.094C55.6426 216.144 55.6483 216.202 55.6323 216.256C55.6163 216.31 55.58 216.356 55.531 216.384C55.482 216.411 55.4242 216.419 55.3698 216.404H55.3638L55.3478 216.397Z" fill="#0C0C0C"/>
<path opacity="0.52" d="M58.6176 230.739C58.8355 230.73 59.0521 230.703 59.2654 230.657C59.3143 230.647 59.3571 230.618 59.3844 230.576C59.4117 230.534 59.4213 230.483 59.411 230.434C59.4007 230.385 59.3715 230.342 59.3296 230.314C59.2878 230.287 59.2368 230.278 59.188 230.288C58.8552 230.385 58.5056 230.411 58.1623 230.362C57.8191 230.313 57.4903 230.191 57.1978 230.005C57.1591 229.973 57.1094 229.958 57.0597 229.963C57.01 229.968 56.9643 229.993 56.9326 230.032C56.901 230.07 56.8861 230.12 56.8911 230.17C56.8961 230.22 56.9207 230.266 56.9594 230.297C57.4447 230.632 58.0305 230.788 58.6176 230.739Z" fill="#0C0C0C"/>
<path opacity="0.1" d="M53.8854 225.823C54.8512 225.789 55.614 225.186 55.5892 224.476C55.5644 223.767 54.7613 223.219 53.7956 223.253C52.8298 223.286 52.067 223.889 52.0918 224.599C52.1166 225.309 52.9196 225.857 53.8854 225.823Z" fill="#0C0C0C"/>
<path opacity="0.1" d="M64.2232 223.864C64.2499 224.573 65.0527 225.12 66.0184 225.087C66.1852 225.082 66.3511 225.06 66.5133 225.02C66.6275 224.188 66.6976 223.383 66.7356 222.636C66.4758 222.548 66.2018 222.508 65.9276 222.52C64.9618 222.55 64.1992 223.153 64.2232 223.864Z" fill="#0C0C0C"/>
<path d="M85.7403 256.294C85.7002 260.482 84.265 265.48 83.7508 271.515C83.6172 273.128 83.2165 277.263 82.7156 282.448C81.9342 290.631 80.879 301.443 80.1838 309.044C69.4486 312.51 57.9678 312.945 47.0017 310.302C36.0357 307.66 26.0085 302.041 18.021 294.063C17.7205 286.302 17.3258 278.414 16.7521 273.288C15.5166 262.115 15.8505 255.05 17.6337 251.744C20.5522 246.345 25.7481 244.699 31.1837 243.956C34.5036 243.508 39.4917 243.187 39.4917 243.187C39.4917 243.187 39.9125 251.751 49.991 252.226C63.7086 252.875 62.7937 243.187 62.8598 243.187C67.8353 243.187 77.2653 244.378 80.879 246.847C84.7125 249.456 85.7871 252.554 85.7403 256.294Z" fill="#FADB26"/>
<path d="M46.7831 305.454C48.6771 305.454 50.5372 304.952 52.1743 303.997C53.8114 303.043 55.1669 301.671 56.1029 300.022L75.5427 263.729L59.3527 253.362L46.9808 274.35L33.6077 251.2L16.2437 263.964L37.3704 299.853C38.2845 301.533 39.6303 302.939 41.2685 303.923C42.9067 304.908 44.7779 305.436 46.6882 305.453L46.7831 305.454Z" fill="#FADB26"/>
<path d="M83.0474 283.003C83.0837 283.003 83.1186 282.99 83.1451 282.965C83.1715 282.94 83.1875 282.906 83.1897 282.87L83.7547 275.148C83.7572 275.11 83.7446 275.073 83.7196 275.044C83.6945 275.015 83.6591 274.998 83.6211 274.995C83.5832 274.993 83.5459 275.006 83.5172 275.031C83.4886 275.056 83.4707 275.091 83.4675 275.129L82.9032 282.851C82.9006 282.889 82.9132 282.926 82.9383 282.955C82.9633 282.984 82.9987 283.001 83.0367 283.004L83.0474 283.003Z" fill="#0C0C0C" fill-opacity="0.2"/>
<path d="M92.8696 265.132H80.8763C80.5666 265.132 80.2607 265.063 79.9808 264.93C79.7008 264.798 79.4536 264.605 79.2572 264.365C79.0607 264.125 78.9197 263.844 78.8445 263.543C78.7692 263.242 78.7616 262.928 78.822 262.624L83.5684 238.729C83.6635 238.251 83.9223 237.82 84.3002 237.512C84.6781 237.203 85.1514 237.037 85.6388 237.041L97.3261 237.139C97.6322 237.142 97.9341 237.211 98.2104 237.344C98.4867 237.476 98.7307 237.667 98.9253 237.904C99.1198 238.14 99.2602 238.417 99.3366 238.714C99.4129 239.011 99.4233 239.321 99.3671 239.623L94.9265 263.419C94.8368 263.9 94.5821 264.334 94.2065 264.647C93.8309 264.96 93.358 265.131 92.8696 265.132Z" fill="#262626"/>
<path d="M83.6292 251.825C83.813 251.548 84.0804 251.338 84.3922 251.226C84.704 251.113 85.0436 251.104 85.3609 251.2C85.3629 251.171 85.3733 251.144 85.391 251.122C85.4085 251.105 85.4301 251.094 85.4536 251.088C85.4772 251.083 85.5017 251.084 85.5246 251.092L84.5936 250.161C84.299 249.879 84.1224 249.495 84.0997 249.087C84.0771 248.679 84.2099 248.278 84.4714 247.965C84.7144 247.693 85.0452 247.516 85.4057 247.464C85.7662 247.413 86.1332 247.491 86.4422 247.684C86.4422 247.668 86.4542 247.656 86.4589 247.641L86.0755 247.257C85.812 247.003 85.6442 246.665 85.6006 246.302C85.557 245.938 85.6404 245.57 85.8364 245.26C85.9633 245.069 86.1311 244.908 86.3276 244.789C86.5241 244.67 86.7445 244.596 86.9728 244.573C87.2012 244.55 87.4318 244.578 87.648 244.655C87.8643 244.732 88.0608 244.856 88.2233 245.019L89.1076 245.903C89.1116 245.897 89.1076 245.89 89.1149 245.885C89.1223 245.88 89.131 245.88 89.1376 245.874C88.9498 245.577 88.8684 245.225 88.9068 244.876C88.9451 244.526 89.1009 244.2 89.3487 243.951C89.9497 243.266 91.013 243.601 91.5853 244.172L96.9822 249.469L96.8179 249.222L96.0539 247.27C95.8972 246.893 95.8893 246.471 96.0317 246.088C96.1742 245.705 96.4564 245.391 96.8213 245.209C97.0128 245.122 97.2201 245.074 97.4306 245.07C97.641 245.065 97.8502 245.104 98.0453 245.183C98.2404 245.262 98.4174 245.38 98.5654 245.53C98.7134 245.68 98.8294 245.859 98.9063 246.055L103.375 257.126C103.375 257.126 93.9869 263.931 91.7356 261.682L83.869 253.822C83.6053 253.568 83.4374 253.23 83.3937 252.866C83.35 252.502 83.4332 252.134 83.6292 251.825Z" fill="#E5BB98"/>
<g opacity="0.2">
<path opacity="0.2" d="M94.2886 250.895C94.2618 250.921 94.2259 250.935 94.1884 250.935C94.151 250.935 94.1151 250.921 94.0882 250.895L89.1181 246.086C89.0908 246.059 89.0752 246.023 89.0747 245.985C89.0742 245.947 89.0889 245.91 89.1154 245.883C89.142 245.855 89.1783 245.84 89.2164 245.839C89.2545 245.839 89.2912 245.853 89.3185 245.88L94.2886 250.688C94.3147 250.715 94.3293 250.751 94.3293 250.789C94.3293 250.826 94.3147 250.862 94.2886 250.889V250.895Z" fill="#0C0C0C"/>
<path opacity="0.2" d="M92.2295 253.149C92.2027 253.175 92.1667 253.19 92.1293 253.19C92.0919 253.19 92.056 253.175 92.0291 253.149L86.4827 247.783C86.4562 247.756 86.4414 247.72 86.4414 247.682C86.4414 247.645 86.4562 247.609 86.4827 247.582C86.5094 247.556 86.5449 247.541 86.5821 247.541C86.6192 247.54 86.6552 247.553 86.683 247.578L92.2302 252.945C92.2563 252.971 92.2709 253.007 92.2709 253.045C92.2709 253.082 92.2563 253.118 92.2302 253.145L92.2295 253.149Z" fill="#0C0C0C"/>
<path opacity="0.2" d="M90.019 255.604C89.9923 255.63 89.9563 255.645 89.9188 255.645C89.8813 255.645 89.8454 255.63 89.8187 255.604L85.3935 251.322C85.3662 251.295 85.3506 251.259 85.3501 251.221C85.3496 251.183 85.3643 251.146 85.3908 251.119C85.4174 251.091 85.4537 251.076 85.4918 251.075C85.5299 251.075 85.5666 251.089 85.5938 251.116L90.0183 255.398C90.0448 255.425 90.0596 255.461 90.0596 255.498C90.0596 255.536 90.0448 255.572 90.0183 255.599L90.019 255.604Z" fill="#0C0C0C"/>
</g>
<path d="M115.333 279.745C115.292 279.812 115.26 279.872 115.226 279.939C111.488 286.796 106.484 292.878 100.48 297.864L87.7036 260.904L104.908 254.18L115.333 279.745Z" fill="#FADB26"/>
<path d="M62.0005 255.056L72.282 261.639L77.8612 257.839C78.1629 257.642 78.3875 257.347 78.497 257.004C78.6065 256.66 78.5943 256.289 78.4623 255.954C78.3363 255.655 78.1184 255.405 77.8402 255.239C77.5621 255.073 77.2384 255.001 76.9162 255.032C76.918 255.006 76.9107 254.979 76.8955 254.958C76.8889 254.948 76.8855 254.937 76.8755 254.93C76.8708 254.925 76.8651 254.92 76.8588 254.917C76.8526 254.912 76.8456 254.907 76.8381 254.904C76.82 254.896 76.8005 254.891 76.7807 254.89L77.8365 254.175C78.172 253.957 78.4123 253.619 78.509 253.23C78.6057 252.842 78.5515 252.431 78.3575 252.08C78.1731 251.774 77.8869 251.542 77.5491 251.426C77.2112 251.31 76.8434 251.317 76.5102 251.446C76.5135 251.428 76.5135 251.41 76.5102 251.392L76.9396 251.101C77.2404 250.904 77.4641 250.609 77.5727 250.266C77.6813 249.923 77.6681 249.553 77.5353 249.219C77.3839 248.855 77.0972 248.565 76.7359 248.408C76.3745 248.252 75.9667 248.243 75.5986 248.382C75.5919 248.375 75.5852 248.365 75.5785 248.358L78.7956 246.328C79.1178 246.125 79.3462 245.802 79.4307 245.43C79.5152 245.058 79.4488 244.668 79.246 244.345C79.0433 244.023 78.7209 243.794 78.3497 243.709C77.9786 243.624 77.589 243.691 77.2669 243.894L69.5392 248.768L70.2424 247.748C70.463 247.413 70.5483 247.006 70.4811 246.611C70.4139 246.215 70.1992 245.859 69.8804 245.616C69.7119 245.497 69.5208 245.413 69.3188 245.37C69.1168 245.327 68.9082 245.325 68.7056 245.365C68.503 245.406 68.3108 245.487 68.1405 245.604C67.9702 245.721 67.8256 245.872 67.7153 246.046L62.0005 255.056Z" fill="#E5BB98"/>
<g opacity="0.2">
<path opacity="0.2" d="M72.3684 250.54C72.385 250.537 72.4009 250.531 72.4152 250.522L75.5627 248.586C75.5929 248.565 75.6138 248.534 75.6214 248.498C75.6289 248.462 75.6224 248.425 75.6032 248.393C75.5841 248.362 75.5536 248.34 75.5183 248.33C75.4829 248.321 75.4453 248.325 75.4132 248.343L72.2656 250.278C72.2371 250.295 72.2157 250.322 72.2051 250.354C72.1945 250.386 72.1954 250.421 72.2076 250.452C72.2199 250.483 72.2427 250.509 72.2721 250.525C72.3015 250.541 72.3356 250.546 72.3684 250.54Z" fill="#0C0C0C"/>
<path opacity="0.2" d="M73.9373 253.095C73.9544 253.091 73.9706 253.084 73.9854 253.075L76.4471 251.536C76.463 251.526 76.4768 251.513 76.4877 251.498C76.4986 251.483 76.5064 251.465 76.5106 251.447C76.5148 251.429 76.5154 251.41 76.5123 251.391C76.5092 251.373 76.5025 251.355 76.4925 251.339C76.4825 251.323 76.4696 251.309 76.4543 251.298C76.439 251.287 76.4217 251.279 76.4034 251.275C76.3851 251.271 76.3662 251.27 76.3476 251.274C76.3291 251.277 76.3114 251.283 76.2955 251.293L73.8331 252.832C73.8043 252.85 73.7827 252.877 73.772 252.909C73.7613 252.941 73.7623 252.976 73.7748 253.007C73.7873 253.039 73.8104 253.065 73.8402 253.081C73.8699 253.097 73.9043 253.102 73.9373 253.095Z" fill="#0C0C0C"/>
<path opacity="0.2" d="M75.621 255.87C75.6368 255.867 75.652 255.861 75.6658 255.853L76.8459 255.153C76.8786 255.134 76.9022 255.102 76.9117 255.065C76.9211 255.029 76.9156 254.99 76.8963 254.957C76.877 254.924 76.8455 254.9 76.8087 254.891C76.772 254.881 76.733 254.887 76.7003 254.906L75.5202 255.607C75.4876 255.626 75.4641 255.658 75.4547 255.695C75.4453 255.731 75.4508 255.77 75.4701 255.803C75.4853 255.828 75.508 255.848 75.535 255.861C75.5619 255.873 75.592 255.876 75.621 255.87Z" fill="#0C0C0C"/>
</g>
<path d="M46.7835 305.597C48.7023 305.595 50.5863 305.085 52.2448 304.118C53.9033 303.151 55.2773 301.763 56.2276 300.093L75.6674 263.796C75.6844 263.764 75.6888 263.727 75.6797 263.692C75.6707 263.658 75.6489 263.627 75.6186 263.608L59.4306 253.244C59.4145 253.234 59.3964 253.227 59.3775 253.223C59.3585 253.22 59.3391 253.221 59.3204 253.226C59.3016 253.23 59.284 253.238 59.2685 253.25C59.253 253.261 59.24 253.276 59.2303 253.293L46.9819 274.071L37.8076 258.352C37.7884 258.319 37.757 258.296 37.7203 258.286C37.6836 258.277 37.6446 258.282 37.612 258.301C37.5793 258.32 37.5556 258.352 37.5461 258.389C37.5365 258.425 37.542 258.465 37.5612 258.497L46.8577 274.421C46.8701 274.443 46.888 274.461 46.9096 274.473C46.9312 274.486 46.9557 274.492 46.9806 274.492C47.005 274.492 47.0292 274.486 47.0507 274.475C47.0722 274.463 47.0904 274.446 47.1034 274.425L59.4006 253.566L75.3541 263.78L55.9772 299.957C55.0518 301.583 53.714 302.934 52.0994 303.875C50.4848 304.815 48.6507 305.312 46.7829 305.314H46.6874C44.8026 305.296 42.9568 304.774 41.3405 303.803C39.7243 302.831 38.3963 301.445 37.4937 299.787L18.5736 267.471C18.5646 267.454 18.5522 267.439 18.5372 267.426C18.5222 267.414 18.5049 267.405 18.4864 267.4C18.4678 267.395 18.4484 267.393 18.4292 267.396C18.41 267.398 18.3916 267.404 18.3749 267.414C18.3583 267.424 18.3437 267.437 18.3323 267.452C18.3208 267.468 18.3125 267.486 18.3081 267.504C18.3036 267.523 18.303 267.543 18.3063 267.562C18.3095 267.581 18.3166 267.599 18.3271 267.615L37.2453 299.926C38.1722 301.627 39.5355 303.05 41.1945 304.047C42.8536 305.044 44.7481 305.579 46.6827 305.597H46.7835Z" fill="#0C0C0C" fill-opacity="0.2"/>
<path d="M42.3921 282.627C42.4174 282.627 42.4424 282.621 42.4643 282.608C42.4863 282.595 42.5044 282.577 42.517 282.555L47.1051 274.42C47.1238 274.387 47.1286 274.348 47.1185 274.312C47.1083 274.275 47.0841 274.244 47.051 274.225C47.018 274.206 46.9789 274.202 46.9423 274.212C46.9057 274.222 46.8747 274.246 46.856 274.279L42.2679 282.416C42.2493 282.449 42.2446 282.488 42.2547 282.525C42.2649 282.561 42.289 282.592 42.322 282.611C42.3437 282.622 42.3678 282.628 42.3921 282.627Z" fill="#0C0C0C" fill-opacity="0.2"/>
<path d="M122.582 155.321C129.851 155.321 135.744 149.418 135.744 142.135C135.744 134.853 129.851 128.949 122.582 128.949C115.313 128.949 109.42 134.853 109.42 142.135C109.42 149.418 115.313 155.321 122.582 155.321Z" fill="#FADB26"/>
<path d="M129.315 142.112C129.298 143.89 128.58 145.589 127.32 146.839C126.059 148.09 124.356 148.791 122.582 148.791C120.807 148.791 119.105 148.09 117.844 146.839C116.583 145.589 115.866 143.89 115.848 142.112H129.315Z" fill="white"/>
<path d="M117.829 137.991C118.462 137.991 118.975 137.477 118.975 136.843C118.975 136.208 118.462 135.694 117.829 135.694C117.196 135.694 116.682 136.208 116.682 136.843C116.682 137.477 117.196 137.991 117.829 137.991Z" fill="#0C0C0C"/>
<path d="M127.334 137.991C127.968 137.991 128.481 137.477 128.481 136.843C128.481 136.208 127.968 135.694 127.334 135.694C126.701 135.694 126.188 136.208 126.188 136.843C126.188 137.477 126.701 137.991 127.334 137.991Z" fill="#0C0C0C"/>
<path d="M268.197 44.6581H170.314C162.217 44.6581 155.653 51.2342 155.653 59.3462V289.867C155.653 297.979 162.217 304.555 170.314 304.555H268.197C276.294 304.555 282.858 297.979 282.858 289.867V59.3462C282.858 51.2342 276.294 44.6581 268.197 44.6581Z" fill="#262626"/>
<path d="M268.151 49.2446H170.361C164.8 49.2446 160.293 53.7604 160.293 59.3309V289.539C160.293 295.11 164.8 299.625 170.361 299.625H268.151C273.711 299.625 278.219 295.11 278.219 289.539V59.3309C278.219 53.7604 273.711 49.2446 268.151 49.2446Z" fill="white"/>
<g clip-path="url(#clip1_987_17887)">
<rect width="63.1996" height="63.2506" transform="translate(187.712 140.662)" fill="white"/>
<path d="M187.712 142.638C187.712 142.114 187.92 141.611 188.29 141.241C188.661 140.87 189.163 140.662 189.687 140.662H201.537C202.061 140.662 202.563 140.87 202.933 141.241C203.304 141.611 203.512 142.114 203.512 142.638C203.512 143.163 203.304 143.665 202.933 144.036C202.563 144.407 202.061 144.615 201.537 144.615H191.662V154.498C191.662 155.022 191.454 155.525 191.083 155.896C190.713 156.266 190.211 156.474 189.687 156.474C189.163 156.474 188.661 156.266 188.29 155.896C187.92 155.525 187.712 155.022 187.712 154.498V142.638ZM235.112 142.638C235.112 142.114 235.32 141.611 235.69 141.241C236.06 140.87 236.563 140.662 237.087 140.662H248.937C249.46 140.662 249.963 140.87 250.333 141.241C250.703 141.611 250.911 142.114 250.911 142.638V154.498C250.911 155.022 250.703 155.525 250.333 155.896C249.963 156.266 249.46 156.474 248.937 156.474C248.413 156.474 247.91 156.266 247.54 155.896C247.17 155.525 246.962 155.022 246.962 154.498V144.615H237.087C236.563 144.615 236.06 144.407 235.69 144.036C235.32 143.665 235.112 143.163 235.112 142.638ZM189.687 188.1C190.211 188.1 190.713 188.308 191.083 188.679C191.454 189.049 191.662 189.552 191.662 190.076V199.959H201.537C202.061 199.959 202.563 200.167 202.933 200.538C203.304 200.909 203.512 201.412 203.512 201.936C203.512 202.46 203.304 202.963 202.933 203.333C202.563 203.704 202.061 203.912 201.537 203.912H189.687C189.163 203.912 188.661 203.704 188.29 203.333C187.92 202.963 187.712 202.46 187.712 201.936V190.076C187.712 189.552 187.92 189.049 188.29 188.679C188.661 188.308 189.163 188.1 189.687 188.1ZM248.937 188.1C249.46 188.1 249.963 188.308 250.333 188.679C250.703 189.049 250.911 189.552 250.911 190.076V201.936C250.911 202.46 250.703 202.963 250.333 203.333C249.963 203.704 249.46 203.912 248.937 203.912H237.087C236.563 203.912 236.06 203.704 235.69 203.333C235.32 202.963 235.112 202.46 235.112 201.936C235.112 201.412 235.32 200.909 235.69 200.538C236.06 200.167 236.563 199.959 237.087 199.959H246.962V190.076C246.962 189.552 247.17 189.049 247.54 188.679C247.91 188.308 248.413 188.1 248.937 188.1ZM203.512 156.474H207.462V160.428H203.512V156.474Z" fill="#262626"/>
<path d="M215.362 148.568H195.612V168.334H215.362V148.568ZM199.562 152.521H211.412V164.381H199.562V152.521ZM207.462 184.147H203.512V188.1H207.462V184.147Z" fill="#262626"/>
<path d="M215.362 176.24H195.612V196.006H215.362V176.24ZM199.562 180.193H211.412V192.053H199.562V180.193ZM231.162 156.474H235.112V160.428H231.162V156.474Z" fill="#262626"/>
<path d="M223.262 148.568H243.012V168.334H223.262V148.568ZM227.212 152.521V164.381H239.062V152.521H227.212ZM219.312 172.287V180.193H223.262V184.147H219.312V188.1H227.212V180.193H231.162V188.1H235.112V184.147H243.012V180.193H231.162V172.287H219.312ZM227.212 180.193H223.262V176.24H227.212V180.193ZM243.012 188.1H239.062V192.053H231.162V196.006H243.012V188.1ZM227.212 196.006V192.053H219.312V196.006H227.212Z" fill="#262626"/>
<path d="M235.112 176.24H243.012V172.287H235.112V176.24Z" fill="#262626"/>
</g>
<path d="M160.356 59.4745C160.356 53.7393 165.002 49.09 170.732 49.09H267.89C273.621 49.09 278.266 53.7393 278.266 59.4745V110.453H160.356V59.4745Z" fill="#FADB26"/>
<path d="M185.552 87.5181C185.552 88.1978 185.377 88.7699 185.026 89.2343C184.675 89.6875 184.2 90.033 183.6 90.2709C183.011 90.5088 182.366 90.6277 181.664 90.6277H175.84V78.5629H182.292C182.858 78.5629 183.345 78.7159 183.753 79.0217C184.171 79.3163 184.488 79.7014 184.703 80.1772C184.93 80.6417 185.043 81.1288 185.043 81.6386C185.043 82.2164 184.896 82.7658 184.601 83.2869C184.307 83.808 183.877 84.1932 183.311 84.4424C184.002 84.6463 184.545 85.0145 184.941 85.5469C185.349 86.0794 185.552 86.7364 185.552 87.5181ZM183.192 87.0763C183.192 86.7704 183.13 86.4985 183.005 86.2606C182.881 86.0114 182.711 85.8188 182.496 85.6829C182.292 85.5356 182.055 85.462 181.783 85.462H178.183V88.6396H181.664C181.947 88.6396 182.202 88.5716 182.428 88.4357C182.666 88.2884 182.853 88.0958 182.988 87.8579C183.124 87.62 183.192 87.3595 183.192 87.0763ZM178.183 80.5681V83.6098H181.308C181.568 83.6098 181.806 83.5475 182.021 83.4228C182.236 83.2982 182.406 83.1226 182.53 82.8961C182.666 82.6695 182.734 82.3976 182.734 82.0804C182.734 81.7745 182.672 81.5083 182.547 81.2818C182.434 81.0552 182.275 80.8796 182.072 80.755C181.879 80.6304 181.658 80.5681 181.409 80.5681H178.183Z" fill="#262626"/>
<path d="M187.381 90.6277V78.5629H192.712C193.267 78.5629 193.776 78.6762 194.24 78.9028C194.716 79.1294 195.123 79.4352 195.463 79.8204C195.814 80.2056 196.08 80.636 196.261 81.1118C196.453 81.5876 196.549 82.0748 196.549 82.5732C196.549 83.083 196.459 83.5758 196.278 84.0516C196.108 84.516 195.859 84.9239 195.531 85.275C195.202 85.6262 194.818 85.8981 194.376 86.0907L197.127 90.6277H194.546L192.067 86.5835H189.724V90.6277H187.381ZM189.724 84.5274H192.661C192.956 84.5274 193.216 84.4424 193.442 84.2725C193.669 84.0912 193.85 83.8533 193.986 83.5588C194.121 83.2642 194.189 82.9357 194.189 82.5732C194.189 82.188 194.11 81.8538 193.952 81.5706C193.793 81.2761 193.589 81.0439 193.34 80.8739C193.103 80.704 192.842 80.619 192.559 80.619H189.724V84.5274Z" fill="#262626"/>
<path d="M201.949 78.5629H204.326L208.758 90.6277H206.347L205.226 87.62H201.016L199.912 90.6277H197.501L201.949 78.5629ZM204.802 85.9717L203.138 80.9929L201.406 85.9717H204.802Z" fill="#262626"/>
<path d="M212.423 82.8791V90.6277H210.08V78.5629H211.948L218.179 86.5155V78.5799H220.522V90.6277H218.57L212.423 82.8791Z" fill="#262626"/>
<path d="M223.03 90.6277V78.5629H227.411C228.724 78.5629 229.822 78.8348 230.704 79.3786C231.587 79.911 232.25 80.636 232.691 81.5536C233.132 82.4599 233.353 83.4682 233.353 84.5783C233.353 85.8018 233.11 86.8667 232.623 87.773C232.136 88.6792 231.446 89.3816 230.552 89.8801C229.669 90.3785 228.622 90.6277 227.411 90.6277H223.03ZM230.993 84.5783C230.993 83.7967 230.852 83.1113 230.569 82.5222C230.286 81.9218 229.878 81.4574 229.346 81.1288C228.814 80.789 228.169 80.619 227.411 80.619H225.373V88.5716H227.411C228.18 88.5716 228.831 88.4017 229.363 88.0618C229.895 87.7107 230.297 87.2349 230.569 86.6345C230.852 86.0227 230.993 85.3373 230.993 84.5783Z" fill="#262626"/>
<path d="M235.184 90.6277V78.5629H237.527V90.6277H235.184Z" fill="#262626"/>
<path d="M242.385 82.8791V90.6277H240.042V78.5629H241.91L248.141 86.5155V78.5799H250.484V90.6277H248.532L242.385 82.8791Z" fill="#262626"/>
<path d="M258.001 90.7127C257.22 90.7127 256.478 90.5541 255.776 90.2369C255.086 89.9197 254.475 89.4836 253.943 88.9285C253.422 88.362 253.015 87.705 252.72 86.9573C252.426 86.2096 252.279 85.3997 252.279 84.5274C252.279 83.7004 252.426 82.9244 252.72 82.1994C253.015 81.463 253.428 80.8173 253.96 80.2622C254.492 79.7071 255.114 79.271 255.827 78.9538C256.541 78.6366 257.316 78.478 258.154 78.478C259.285 78.478 260.253 78.7215 261.057 79.2087C261.872 79.6844 262.483 80.3188 262.891 81.1118L261.142 82.4033C260.836 81.8029 260.406 81.3441 259.851 81.0269C259.308 80.7097 258.714 80.5511 258.069 80.5511C257.559 80.5511 257.095 80.6587 256.676 80.8739C256.258 81.0892 255.895 81.3837 255.59 81.7576C255.284 82.1314 255.046 82.5619 254.877 83.049C254.718 83.5361 254.639 84.0516 254.639 84.5953C254.639 85.1731 254.724 85.7055 254.894 86.1926C255.075 86.6798 255.324 87.1046 255.641 87.4671C255.969 87.8296 256.348 88.1185 256.778 88.3337C257.208 88.5376 257.684 88.6396 258.204 88.6396C258.816 88.6396 259.399 88.481 259.953 88.1638C260.519 87.8466 261.046 87.3821 261.532 86.7704V89.0814C260.525 90.1689 259.348 90.7127 258.001 90.7127ZM261.363 86.1417H258.935V84.4254H263.298V90.6277H261.363V86.1417Z" fill="#262626"/>
<path d="M195.104 47.3484H243.408V52.3558C243.408 53.0669 243.268 53.771 242.996 54.4279C242.725 55.0849 242.326 55.6818 241.824 56.1846C241.323 56.6874 240.727 57.0863 240.071 57.3584C239.415 57.6305 238.712 57.7706 238.003 57.7706H200.509C199.075 57.7706 197.701 57.2001 196.687 56.1846C195.673 55.1692 195.104 53.7919 195.104 52.3558V47.3484Z" fill="#262626"/>
<path opacity="0.8" d="M244.791 241.737H193.215C190.176 241.737 187.712 244.205 187.712 247.25V262.052C187.712 265.097 190.176 267.565 193.215 267.565H244.791C247.83 267.565 250.293 265.097 250.293 262.052V247.25C250.293 244.205 247.83 241.737 244.791 241.737Z" fill="#FADB26"/>
<path d="M250.292 262.053V264.59C250.292 266.052 249.712 267.454 248.68 268.487C247.649 269.521 246.249 270.101 244.79 270.101H193.215C191.756 270.101 190.357 269.521 189.325 268.487C188.293 267.454 187.714 266.052 187.714 264.59V262.053C187.714 262.777 187.856 263.494 188.132 264.162C188.409 264.831 188.814 265.439 189.325 265.95C189.836 266.462 190.442 266.868 191.11 267.145C191.777 267.422 192.492 267.565 193.215 267.565H244.79C246.249 267.565 247.649 266.984 248.681 265.951C249.712 264.917 250.292 263.515 250.292 262.053Z" fill="#FADB26"/>
<path d="M215.564 262.281C215.349 262.281 215.14 262.204 214.977 262.063L209.073 256.995C208.898 256.836 208.791 256.616 208.776 256.38C208.761 256.144 208.838 255.911 208.992 255.732C209.145 255.552 209.363 255.44 209.598 255.419C209.833 255.397 210.067 255.469 210.25 255.618L215.488 260.117L227.677 246.756C227.757 246.668 227.854 246.597 227.961 246.546C228.069 246.496 228.185 246.467 228.304 246.462C228.422 246.456 228.541 246.474 228.653 246.515C228.764 246.555 228.867 246.617 228.955 246.698C229.042 246.778 229.113 246.875 229.164 246.982C229.214 247.09 229.243 247.207 229.248 247.326C229.254 247.444 229.236 247.563 229.195 247.675C229.155 247.787 229.093 247.89 229.013 247.978L216.232 261.986C216.148 262.079 216.044 262.154 215.929 262.204C215.814 262.255 215.69 262.281 215.564 262.281Z" fill="white"/>
<path d="M224.486 326.368C223.76 325.536 223.211 324.565 222.872 323.513C222.533 322.462 222.411 321.352 222.514 320.252C222.617 319.152 222.943 318.084 223.472 317.114C224 316.144 224.721 315.292 225.589 314.611C229.045 311.888 234.117 312.688 237.009 316.004L241.162 321.165L228.125 274.396C227.554 272.437 227.768 270.331 228.723 268.527C229.677 266.723 231.296 265.363 233.236 264.737C234.211 264.444 235.234 264.349 236.246 264.458C237.258 264.566 238.239 264.875 239.13 265.367C240.022 265.859 240.806 266.524 241.438 267.324C242.07 268.123 242.537 269.041 242.811 270.023L248.268 289.599C248.316 289.567 248.368 289.541 248.422 289.522C248.274 287.387 248.971 285.279 250.363 283.655C251.754 282.031 253.728 281.021 255.857 280.844C257.72 280.712 259.572 281.218 261.11 282.281C262.647 283.343 263.777 284.899 264.314 286.691L265.182 289.439C265.276 289.45 265.366 289.479 265.449 289.524C265.301 287.603 265.838 285.691 266.966 284.13C268.094 282.569 269.739 281.461 271.608 281.002C273.654 280.548 275.796 280.886 277.605 281.948C279.413 283.011 280.754 284.718 281.358 286.729L283.459 293.398C283.499 293.28 283.567 293.174 283.658 293.089C283.749 293.004 283.859 292.943 283.979 292.912C284.117 292.881 284.26 292.89 284.392 292.937C284.722 291.237 285.585 289.687 286.857 288.514C288.128 287.34 289.741 286.605 291.459 286.416C295.36 285.959 298.975 288.598 300.157 292.349L311.324 327.579C313.775 335.361 313.851 343.699 311.542 351.524C309.232 359.349 304.643 366.305 298.362 371.501C292.951 375.975 286.01 378.155 279.018 377.575C272.027 376.994 265.538 373.7 260.937 368.394L224.486 326.368Z" fill="#E5BB98"/>
<g opacity="0.2">
<path opacity="0.2" d="M254.53 309.377C254.538 309.287 254.531 309.197 254.507 309.109L249.426 290.032C249.402 289.933 249.358 289.84 249.298 289.758C249.237 289.676 249.161 289.608 249.073 289.556C248.986 289.504 248.889 289.47 248.788 289.456C248.688 289.442 248.585 289.448 248.487 289.475C248.389 289.501 248.297 289.547 248.217 289.609C248.136 289.671 248.069 289.749 248.019 289.838C247.969 289.927 247.938 290.024 247.926 290.125C247.914 290.227 247.923 290.329 247.951 290.427L253.032 309.504C253.078 309.678 253.184 309.829 253.33 309.933C253.477 310.036 253.655 310.084 253.834 310.069C254.012 310.054 254.18 309.976 254.307 309.85C254.434 309.723 254.513 309.556 254.529 309.377H254.53Z" fill="#0C0C0C"/>
<path opacity="0.2" d="M269.961 305.232C269.969 305.14 269.961 305.047 269.936 304.958L265.826 289.996C265.767 289.807 265.637 289.649 265.463 289.555C265.29 289.46 265.086 289.437 264.896 289.49C264.706 289.543 264.543 289.667 264.443 289.837C264.342 290.008 264.311 290.21 264.357 290.403L268.467 305.366C268.515 305.538 268.621 305.688 268.768 305.79C268.915 305.891 269.093 305.938 269.27 305.922C269.448 305.906 269.614 305.829 269.741 305.703C269.867 305.576 269.946 305.41 269.962 305.232H269.961Z" fill="#0C0C0C"/>
<path opacity="0.2" d="M286.699 300.838C286.706 300.752 286.7 300.666 286.679 300.583L284.903 293.471C284.854 293.275 284.73 293.106 284.556 293.001C284.383 292.897 284.175 292.866 283.979 292.915C283.783 292.964 283.614 293.089 283.51 293.263C283.406 293.437 283.375 293.645 283.424 293.841L285.199 300.953C285.243 301.128 285.347 301.282 285.493 301.387C285.639 301.493 285.818 301.543 285.997 301.529C286.177 301.515 286.346 301.438 286.474 301.312C286.603 301.185 286.682 301.017 286.699 300.838Z" fill="#0C0C0C"/>
</g>
<path d="M244.304 359L320.973 334.746C322.67 334.209 324.51 334.367 326.092 335.186C327.673 336.004 328.867 337.416 329.412 339.113L334.902 356.201C335.176 357.055 335.278 357.954 335.201 358.848C335.124 359.741 334.87 360.61 334.455 361.404C334.039 362.198 333.469 362.901 332.779 363.472C332.089 364.042 331.293 364.47 330.436 364.729L254.331 387.736C252.702 388.229 250.947 388.085 249.419 387.334C247.891 386.583 246.703 385.281 246.095 383.688L240.041 367.844C239.713 366.985 239.564 366.068 239.603 365.149C239.642 364.23 239.868 363.329 240.267 362.5C240.666 361.672 241.23 360.934 241.924 360.332C242.618 359.73 243.428 359.277 244.304 359Z" fill="#FADB26"/>
<path d="M448.996 240.491C449.009 249.451 446.833 258.279 442.657 266.203V266.21C436.391 278.137 425.983 287.355 413.399 292.122C400.814 296.889 386.923 296.877 374.347 292.088C361.771 287.298 351.379 278.063 345.134 266.124C338.889 254.185 337.221 240.369 340.446 227.284C343.671 214.198 351.566 202.747 362.64 195.093C373.714 187.438 387.202 184.109 400.558 185.734C413.914 187.359 426.215 193.826 435.138 203.913C444.061 214.001 448.991 227.012 448.996 240.491Z" fill="white"/>
<path opacity="0.2" d="M448.996 240.491C449.009 249.451 446.833 258.279 442.657 266.203V266.21C436.391 278.137 425.983 287.355 413.399 292.122C400.814 296.889 386.923 296.877 374.347 292.088C361.771 287.298 351.379 278.063 345.134 266.124C338.889 254.185 337.221 240.369 340.446 227.284C343.671 214.198 351.566 202.747 362.64 195.093C373.714 187.438 387.202 184.109 400.558 185.734C413.914 187.359 426.215 193.826 435.138 203.913C444.061 214.001 448.991 227.012 448.996 240.491Z" fill="#FADB26"/>
<path d="M420.416 205.038C420.416 205.038 421.885 212.925 424.007 215.599C430.126 223.293 432.716 232.46 428.144 237.946C423.572 243.432 390.75 247.388 386.938 236.457C383.732 227.254 388.103 225.706 388.278 217.78C388.357 214.194 388.845 206.636 388.845 206.636" fill="#0A0A0A"/>
<path d="M393.912 232.325C393.968 232.318 394.602 242.844 406.809 241.926C415.259 241.292 418.272 232.31 418.465 232.31C417.5 232.149 416.547 231.918 415.615 231.618C414.285 230.901 412.638 230.156 412.209 227.567C411.962 226.075 412.382 218.442 412.253 216.929L399.281 219.83C399.462 223.018 400.731 230.41 396.285 231.718C395.545 231.937 394.748 232.136 393.912 232.325Z" fill="#E5BB98"/>
<path opacity="0.5" d="M399.1 228.7C399.303 228.044 399.433 227.367 399.49 226.683C399.632 225.121 399.604 223.548 399.405 221.992C402.041 221.636 404.525 220.546 406.574 218.847C406.815 219.738 408.14 223.632 407.776 224.48C407.079 226.08 403.821 228.7 399.1 228.7Z" fill="#0C0C0C"/>
<path d="M401.254 226.147C406.39 226.038 412.722 223.226 413.284 216.289L413.792 210.03C414.354 203.093 411.174 197.173 404.654 196.642C398.135 196.111 392.806 201.338 392.244 208.275L392.019 211.047C391.802 213.706 392.088 226.338 401.254 226.147Z" fill="#E5BB98"/>
<path d="M393.943 211.019C394.388 211.019 394.749 210.658 394.749 210.212C394.749 209.767 394.388 209.405 393.943 209.405C393.498 209.405 393.138 209.767 393.138 210.212C393.138 210.658 393.498 211.019 393.943 211.019Z" fill="#0C0C0C"/>
<path d="M402.195 211.503C402.639 211.503 403 211.142 403 210.696C403 210.25 402.639 209.889 402.195 209.889C401.75 209.889 401.389 210.25 401.389 210.696C401.389 211.142 401.75 211.503 402.195 211.503Z" fill="#0C0C0C"/>
<path opacity="0.5" d="M398.231 216.932H398.218C397.954 216.909 397.691 216.871 397.431 216.818C397.042 216.737 396.528 216.589 396.556 216.242C396.588 215.847 398.015 211.67 398.177 211.195C398.184 211.175 398.195 211.156 398.209 211.139C398.224 211.123 398.241 211.11 398.261 211.1C398.28 211.091 398.301 211.085 398.323 211.084C398.345 211.082 398.366 211.085 398.387 211.092C398.407 211.099 398.426 211.11 398.443 211.124C398.459 211.139 398.472 211.156 398.482 211.176C398.491 211.195 398.497 211.217 398.498 211.238C398.5 211.26 398.497 211.282 398.49 211.302C397.881 213.081 396.907 216.003 396.887 216.269C397.307 216.488 397.773 216.603 398.246 216.603C398.29 216.605 398.331 216.624 398.361 216.657C398.39 216.689 398.406 216.732 398.404 216.776C398.402 216.819 398.383 216.861 398.351 216.89C398.318 216.92 398.276 216.936 398.232 216.934L398.231 216.932Z" fill="#0C0C0C"/>
<path opacity="0.5" d="M399.488 219.767C398.431 219.742 397.395 219.469 396.463 218.97C396.444 218.96 396.426 218.946 396.412 218.93C396.398 218.913 396.388 218.894 396.381 218.873C396.374 218.853 396.372 218.831 396.374 218.809C396.375 218.788 396.381 218.767 396.391 218.747C396.401 218.728 396.415 218.711 396.431 218.697C396.448 218.683 396.467 218.672 396.487 218.665C396.508 218.659 396.53 218.656 396.551 218.658C396.573 218.66 396.594 218.665 396.613 218.675C398.625 219.703 400.515 219.702 402.08 218.675C402.112 218.654 402.145 218.634 402.178 218.616C402.218 218.598 402.262 218.597 402.302 218.611C402.342 218.626 402.375 218.656 402.394 218.694C402.413 218.733 402.416 218.777 402.403 218.818C402.389 218.859 402.361 218.893 402.323 218.913C402.31 218.92 402.289 218.934 402.261 218.952C401.438 219.494 400.473 219.778 399.488 219.767Z" fill="#0C0C0C"/>
<path d="M419.131 211.621L413.291 211.179C408.765 209.882 406.654 202.498 406.654 202.498C406.654 202.498 401.93 208.205 388.848 206.639C388.848 206.639 389.516 188.523 408.933 191.7C415.195 192.725 420.213 198.402 420.541 206.669C420.771 212.462 419.131 211.621 419.131 211.621Z" fill="#0A0A0A"/>
<path d="M412.708 218.367C414.689 218.528 416.467 216.536 416.628 214.553C416.789 212.571 415.272 211.342 413.289 211.182L412.16 212.429L411.002 218.231L412.708 218.367Z" fill="#E5BB98"/>
<path d="M396.164 207.434C395.572 207.13 394.908 206.991 394.244 207.032C393.916 207.051 393.592 207.118 393.284 207.233C392.977 207.345 392.685 207.496 392.416 207.681C392.39 207.7 392.372 207.728 392.366 207.76C392.359 207.791 392.365 207.824 392.382 207.851C392.399 207.878 392.426 207.898 392.457 207.907C392.488 207.915 392.521 207.912 392.549 207.897L392.558 207.891C392.812 207.728 393.086 207.597 393.373 207.502C393.658 207.407 393.956 207.354 394.256 207.348C394.853 207.331 395.443 207.472 395.968 207.758L395.981 207.765C396.025 207.788 396.076 207.793 396.123 207.779C396.17 207.765 396.21 207.733 396.234 207.69C396.259 207.647 396.265 207.596 396.252 207.548C396.24 207.501 396.209 207.46 396.167 207.434L396.164 207.434Z" fill="#0C0C0C"/>
<path d="M401.874 208.044C402.437 207.845 403.042 207.798 403.629 207.91C403.924 207.964 404.21 208.062 404.476 208.201C404.745 208.34 404.995 208.512 405.221 208.714L405.228 208.72C405.254 208.74 405.286 208.75 405.319 208.747C405.352 208.745 405.382 208.729 405.403 208.704C405.425 208.68 405.436 208.648 405.434 208.615C405.432 208.582 405.418 208.551 405.394 208.529C405.158 208.304 404.894 208.109 404.609 207.949C404.323 207.788 404.014 207.67 403.693 207.6C403.043 207.455 402.367 207.487 401.734 207.693C401.686 207.708 401.646 207.743 401.624 207.788C401.601 207.833 401.598 207.885 401.614 207.933C401.63 207.981 401.664 208.02 401.709 208.043C401.754 208.065 401.806 208.069 401.854 208.053H401.859L401.874 208.044Z" fill="#0C0C0C"/>
<path opacity="0.52" d="M399.431 221.334C399.24 221.333 399.049 221.315 398.861 221.281C398.818 221.274 398.78 221.25 398.755 221.214C398.729 221.178 398.72 221.133 398.727 221.09C398.735 221.047 398.759 221.008 398.795 220.983C398.831 220.958 398.875 220.948 398.918 220.956C399.213 221.031 399.52 221.043 399.819 220.99C400.119 220.937 400.404 220.821 400.654 220.649C400.687 220.62 400.73 220.606 400.774 220.609C400.817 220.612 400.857 220.633 400.886 220.665C400.914 220.698 400.929 220.741 400.926 220.784C400.924 220.828 400.904 220.868 400.872 220.897C400.456 221.206 399.947 221.36 399.431 221.334Z" fill="#0C0C0C"/>
<path d="M413.276 211.086L413.305 210.965C409.356 210.002 407.793 207.539 407.177 205.641C406.773 204.37 406.638 203.029 406.781 201.704L406.658 201.685C406.513 203.028 406.649 204.387 407.058 205.675C407.683 207.604 409.27 210.109 413.276 211.086Z" fill="#0C0C0C"/>
<path opacity="0.1" d="M404.969 215.757C404.97 215.134 404.283 214.628 403.435 214.627C402.588 214.626 401.9 215.13 401.899 215.753C401.899 216.376 402.585 216.882 403.433 216.883C404.28 216.884 404.968 216.38 404.969 215.757Z" fill="#0C0C0C"/>
<path opacity="0.1" d="M394.314 215.473C394.314 216.095 393.624 216.598 392.778 216.598C392.631 216.598 392.485 216.583 392.342 216.552C392.217 215.826 392.132 215.123 392.075 214.469C392.3 214.383 392.54 214.341 392.78 214.343C393.631 214.343 394.314 214.849 394.314 215.473Z" fill="#0C0C0C"/>
<path d="M392.592 250.486L377.551 267.274L361.57 285.104C355.617 280.767 350.589 275.28 346.783 268.968L355.613 247.069L367.167 251.746L374.84 243.797L379.856 238.598L392.592 250.486Z" fill="#5A5A5A"/>
<path d="M364.606 273.434C364.592 273.434 364.578 273.431 364.564 273.426C364.532 273.415 364.506 273.392 364.491 273.361C364.476 273.331 364.474 273.295 364.485 273.263L373.222 247.991C373.227 247.976 373.236 247.961 373.247 247.948C373.258 247.936 373.272 247.925 373.287 247.918C373.302 247.911 373.319 247.906 373.335 247.905C373.352 247.904 373.369 247.907 373.385 247.912C373.401 247.918 373.416 247.926 373.428 247.938C373.441 247.949 373.451 247.962 373.458 247.978C373.466 247.993 373.47 248.009 373.471 248.026C373.472 248.043 373.47 248.06 373.464 248.076L364.727 273.347C364.719 273.372 364.702 273.394 364.681 273.41C364.659 273.425 364.633 273.434 364.606 273.434Z" fill="#0C0C0C" fill-opacity="0.2"/>
<path d="M436.763 259.051C436.282 263.38 435.935 269.903 435.675 276.46C428.956 284.276 420.187 290.052 410.361 293.131C400.534 296.21 390.043 296.471 380.076 293.883C379.475 287.145 378.36 275.677 377.551 267.274C377.104 262.617 376.75 258.903 376.623 257.458C376.163 252.039 374.873 247.549 374.839 243.796C374.793 240.437 375.754 237.66 379.201 235.319C382.454 233.104 390.908 232.033 395.383 232.033C395.443 232.033 394.621 240.731 406.93 240.149C415.973 239.721 416.354 232.033 416.354 232.033C416.354 232.033 420.834 232.321 423.814 232.723C428.689 233.385 433.357 234.87 435.975 239.714C436.18 240.1 436.352 240.503 436.489 240.919C436.739 241.657 436.924 242.416 437.044 243.187V243.194C437.631 246.706 437.551 251.958 436.763 259.051Z" fill="#5A5A5A"/>
<path d="M377.257 267.773C377.225 267.773 377.194 267.761 377.17 267.739C377.146 267.717 377.132 267.686 377.129 267.654L376.622 260.723C376.62 260.689 376.631 260.656 376.653 260.63C376.676 260.604 376.707 260.588 376.741 260.585C376.775 260.584 376.808 260.596 376.833 260.618C376.859 260.64 376.875 260.671 376.879 260.705L377.386 267.636C377.387 267.669 377.376 267.702 377.353 267.727C377.331 267.752 377.3 267.767 377.267 267.769L377.257 267.773Z" fill="#0C0C0C" fill-opacity="0.2"/>
<path d="M368.441 251.731H379.209C379.487 251.731 379.762 251.669 380.013 251.55C380.264 251.431 380.486 251.258 380.662 251.042C380.839 250.827 380.965 250.575 381.033 250.305C381.1 250.035 381.107 249.753 381.053 249.48L376.792 228.032C376.707 227.602 376.475 227.215 376.135 226.938C375.796 226.662 375.371 226.512 374.933 226.516L364.439 226.605C364.164 226.607 363.893 226.669 363.645 226.788C363.397 226.907 363.178 227.078 363.004 227.291C362.829 227.503 362.703 227.752 362.634 228.018C362.566 228.285 362.557 228.563 362.607 228.834L366.594 250.193C366.674 250.625 366.903 251.016 367.24 251.296C367.578 251.577 368.002 251.731 368.441 251.731Z" fill="#262626"/>
<path d="M376.734 239.786C376.569 239.538 376.329 239.35 376.05 239.249C375.77 239.148 375.465 239.14 375.181 239.225C375.178 239.201 375.169 239.178 375.153 239.158C375.138 239.144 375.118 239.133 375.097 239.128C375.076 239.124 375.054 239.125 375.033 239.131L375.869 238.295C376.134 238.042 376.292 237.697 376.312 237.331C376.332 236.965 376.213 236.605 375.979 236.324C375.761 236.08 375.464 235.922 375.14 235.875C374.817 235.829 374.487 235.899 374.21 236.072C374.21 236.058 374.199 236.047 374.195 236.033L374.539 235.689C374.776 235.461 374.926 235.158 374.965 234.831C375.005 234.504 374.93 234.174 374.753 233.896C374.639 233.724 374.489 233.58 374.312 233.473C374.136 233.367 373.938 233.301 373.733 233.28C373.528 233.259 373.321 233.284 373.127 233.354C372.933 233.423 372.757 233.534 372.611 233.68L371.817 234.474C371.813 234.468 371.817 234.462 371.811 234.457C371.805 234.453 371.796 234.453 371.79 234.448C371.959 234.181 372.032 233.865 371.998 233.552C371.963 233.238 371.823 232.945 371.601 232.721C371.067 232.106 370.107 232.407 369.594 232.922L364.749 237.676L364.897 237.454L365.582 235.703C365.723 235.364 365.73 234.985 365.602 234.642C365.474 234.298 365.221 234.016 364.893 233.853C364.721 233.775 364.535 233.732 364.347 233.728C364.158 233.725 363.97 233.759 363.796 233.83C363.621 233.901 363.462 234.007 363.329 234.142C363.196 234.276 363.092 234.436 363.023 234.612L359.016 244.549C359.016 244.549 367.443 250.658 369.463 248.639L376.525 241.584C376.762 241.355 376.912 241.05 376.951 240.722C376.989 240.395 376.912 240.064 376.734 239.786Z" fill="#E5BB98"/>
<g opacity="0.2">
<path opacity="0.2" d="M367.167 238.952C367.191 238.975 367.223 238.988 367.257 238.988C367.291 238.988 367.323 238.975 367.347 238.952L371.808 234.636C371.832 234.612 371.846 234.579 371.846 234.545C371.846 234.511 371.832 234.478 371.808 234.454C371.796 234.442 371.782 234.433 371.767 234.426C371.751 234.42 371.734 234.416 371.717 234.416C371.7 234.416 371.684 234.42 371.668 234.426C371.652 234.433 371.638 234.442 371.626 234.454L367.165 238.77C367.153 238.782 367.144 238.797 367.137 238.812C367.131 238.828 367.127 238.844 367.127 238.861C367.127 238.878 367.131 238.895 367.137 238.911C367.144 238.926 367.153 238.94 367.165 238.952L367.167 238.952Z" fill="#0C0C0C"/>
<path opacity="0.2" d="M369.013 240.976C369.037 240.999 369.069 241.012 369.103 241.012C369.136 241.012 369.168 240.999 369.192 240.976L374.172 236.158C374.196 236.134 374.209 236.101 374.209 236.067C374.209 236.033 374.196 236.001 374.172 235.976C374.147 235.954 374.115 235.941 374.081 235.941C374.048 235.941 374.015 235.954 373.991 235.976L369.011 240.794C368.999 240.806 368.99 240.82 368.983 240.835C368.977 240.851 368.974 240.868 368.974 240.884C368.974 240.901 368.977 240.918 368.983 240.933C368.99 240.949 368.999 240.963 369.011 240.975L369.013 240.976Z" fill="#0C0C0C"/>
<path opacity="0.2" d="M370.999 243.179C371.024 243.202 371.056 243.215 371.089 243.215C371.123 243.215 371.155 243.202 371.179 243.179L375.151 239.337C375.175 239.313 375.19 239.281 375.19 239.247C375.191 239.213 375.178 239.18 375.154 239.155C375.131 239.13 375.098 239.116 375.064 239.116C375.03 239.115 374.997 239.128 374.973 239.152L371.001 242.994C370.977 243.018 370.963 243.051 370.963 243.085C370.963 243.119 370.977 243.152 371.001 243.176L370.999 243.179Z" fill="#0C0C0C"/>
</g>
<path d="M373.076 247.937L361.329 281.906L356.087 280.535C352.478 277.118 349.348 273.227 346.783 268.968C346.75 268.907 346.71 268.847 346.677 268.787L357.636 241.897L373.076 247.937Z" fill="#5A5A5A"/>
<path d="M442.659 266.203V266.21C438.735 273.632 433.182 280.067 426.418 285.031L419.152 256.247L436.489 240.919L437.044 243.187V243.194L442.659 266.203Z" fill="#5A5A5A"/>
<path d="M426.538 284.944C426.498 284.971 426.458 285.004 426.418 285.031C426.378 285.058 426.337 285.091 426.297 285.118L419.018 256.281C419.009 256.245 419.014 256.208 419.033 256.176C419.052 256.145 419.083 256.122 419.118 256.113C419.153 256.105 419.191 256.11 419.222 256.129C419.253 256.148 419.276 256.178 419.285 256.214L426.538 284.944Z" fill="#0C0C0C" fill-opacity="0.2"/>
</g>
<defs>
<clipPath id="clip0_987_17887">
<rect width="449" height="388" fill="white"/>
</clipPath>
<clipPath id="clip1_987_17887">
<rect width="63.1996" height="63.2506" fill="white" transform="translate(187.712 140.662)"/>
</clipPath>
</defs>
</svg>
