<svg width="7" height="7" viewBox="0 0 7 7" fill="none" xmlns="http://www.w3.org/2000/svg">
<path d="M2.32689 5.88299C2.37596 5.95017 2.44064 6.00492 2.51558 6.04268C2.59052 6.08045 2.67356 6.10015 2.75781 6.10015C2.84206 6.10015 2.92509 6.08045 3.00003 6.04268C3.07497 6.00492 3.13965 5.95017 3.18872 5.88299L6.69939 1.10783C6.76274 1.02116 6.69939 0.900146 6.59104 0.900146H5.80922C5.63919 0.900146 5.47749 0.980277 5.37747 1.11764L2.75864 4.68266L1.57174 3.06695C1.47173 2.93122 1.3117 2.84946 1.14 2.84946H0.358179C0.249825 2.84946 0.18648 2.97047 0.249825 3.05714L2.32689 5.88299Z" fill="#2A2A2A"/>
</svg>
