<svg width="40" height="40" viewBox="0 0 40 40" fill="none" xmlns="http://www.w3.org/2000/svg">
<path fill-rule="evenodd" clip-rule="evenodd" d="M37.6663 18.7499V26.8333V29.9999C37.6663 30.5303 37.4556 31.0391 37.0806 31.4141C36.7055 31.7892 36.1968 31.9999 35.6663 31.9999H23.4997V36.6666H24.9997C25.552 36.6666 25.9997 37.1143 25.9997 37.6666C25.9997 38.2189 25.552 38.6666 24.9997 38.6666H22.4997H17.4997H14.9997C14.4474 38.6666 13.9997 38.2189 13.9997 37.6666C13.9997 37.1143 14.4474 36.6666 14.9997 36.6666H16.4997V31.9999H4.33301C3.80258 31.9999 3.29387 31.7892 2.91879 31.4141C2.54372 31.0391 2.33301 30.5303 2.33301 29.9999V26.8333V5.33325C2.33301 4.80282 2.54372 4.29411 2.91879 3.91904C3.29387 3.54397 3.80257 3.33325 4.33301 3.33325H22.2504C21.7748 3.9574 21.3693 4.6282 21.039 5.33325H4.33301V25.8333H35.6663V19.9612C36.3714 19.6309 37.0422 19.2255 37.6663 18.7499ZM18.4997 36.6666V31.9999H21.4997V36.6666H18.4997ZM17.4997 29.9999H22.4997H35.6663V27.8333H4.33301V29.9999H17.4997Z" fill="black"/>
<path d="M30.3707 14.1831L30.376 14.1884C30.5409 14.3513 30.7629 14.4432 30.9947 14.4444L31.0053 14.4444C31.2388 14.443 31.4623 14.3498 31.6276 14.1849L35.1831 10.6293C35.35 10.4627 35.4439 10.2365 35.444 10.0006C35.4442 9.76475 35.3507 9.53846 35.184 9.37155C35.0173 9.20465 34.7912 9.11078 34.5553 9.11062C34.3194 9.11045 34.0931 9.20399 33.9262 9.37067L31.8889 11.4098L31.8889 6.44444C31.8889 6.2087 31.7952 5.9826 31.6285 5.8159C31.4618 5.64921 31.2357 5.55556 31 5.55556C30.7643 5.55556 30.5382 5.64921 30.3715 5.8159C30.2048 5.9826 30.1111 6.2087 30.1111 6.44444L30.1111 11.4098L28.0738 9.37067C27.9069 9.20376 27.6805 9.10999 27.4444 9.10999C27.2084 9.10999 26.982 9.20376 26.8151 9.37067C26.6482 9.53758 26.5544 9.76395 26.5544 10C26.5544 10.236 26.6482 10.4624 26.8151 10.6293L30.3707 14.1849L30.3707 14.1831Z" fill="black"/>
<circle cx="31" cy="10" r="8" stroke="black" stroke-width="2"/>
</svg>
