<svg width="40" height="40" viewBox="0 0 40 40" fill="none" xmlns="http://www.w3.org/2000/svg">
<path fill-rule="evenodd" clip-rule="evenodd" d="M18.4665 4.05884H12.0882C11.2692 4.05884 10.4837 4.3842 9.90452 4.96336C9.32537 5.54252 9 6.32802 9 7.14707V33.9118C9 34.7308 9.32537 35.5163 9.90452 36.0955C10.4837 36.6746 11.2692 37 12.0882 37H26.5C27.3191 37 28.1046 36.6746 28.6837 36.0955C29.2629 35.5163 29.5882 34.7308 29.5882 33.9118V21.6912C28.9168 21.8538 28.2276 21.9536 27.5294 21.9873V33.9118C27.5294 34.1848 27.421 34.4466 27.2279 34.6397C27.0349 34.8327 26.773 34.9412 26.5 34.9412H12.0882C11.8152 34.9412 11.5534 34.8327 11.3603 34.6397C11.1673 34.4466 11.0588 34.1848 11.0588 33.9118V7.14707C11.0588 6.87406 11.1673 6.61222 11.3603 6.41917C11.5534 6.22612 11.8152 6.11766 12.0882 6.11766H17.1429C17.5044 5.38781 17.9475 4.69682 18.4665 4.05884ZM15.478 31.1251C15.2849 31.3181 15.1765 31.5799 15.1765 31.853C15.1765 32.126 15.2849 32.3878 15.478 32.5809C15.671 32.7739 15.9329 32.8824 16.2059 32.8824H22.3824C22.6554 32.8824 22.9172 32.7739 23.1103 32.5809C23.3033 32.3878 23.4118 32.126 23.4118 31.853C23.4118 31.5799 23.3033 31.3181 23.1103 31.1251C22.9172 30.932 22.6554 30.8235 22.3824 30.8235H16.2059C15.9329 30.8235 15.671 30.932 15.478 31.1251Z" fill="black"/>
<path fill-rule="evenodd" clip-rule="evenodd" d="M34 11C34 14.866 30.866 18 27 18C23.134 18 20 14.866 20 11C20 7.13401 23.134 4 27 4C30.866 4 34 7.13401 34 11ZM36 11C36 15.9706 31.9706 20 27 20C22.0294 20 18 15.9706 18 11C18 6.02944 22.0294 2 27 2C31.9706 2 36 6.02944 36 11ZM30.9156 7.64915C31.0371 7.69956 31.1474 7.77345 31.2403 7.86657C31.3334 7.95947 31.4073 8.06982 31.4577 8.19131C31.5081 8.3128 31.5341 8.44304 31.5341 8.57458C31.5341 8.70611 31.5081 8.83635 31.4577 8.95784C31.4073 9.07933 31.3334 9.18968 31.2403 9.28257L26.0323 14.4906C25.9394 14.5837 25.8291 14.6576 25.7076 14.708C25.5861 14.7584 25.4558 14.7844 25.3243 14.7844C25.1928 14.7844 25.0625 14.7584 24.941 14.708C24.8195 14.6576 24.7092 14.5837 24.6163 14.4906L22.6163 12.4906C22.5233 12.3976 22.4496 12.2872 22.3993 12.1657C22.3489 12.0443 22.323 11.9141 22.323 11.7826C22.323 11.6511 22.3489 11.5209 22.3993 11.3994C22.4496 11.2779 22.5233 11.1676 22.6163 11.0746C22.7093 10.9816 22.8197 10.9078 22.9411 10.8575C23.0626 10.8072 23.1928 10.7813 23.3243 10.7813C23.4558 10.7813 23.586 10.8072 23.7075 10.8575C23.829 10.9078 23.9393 10.9816 24.0323 11.0746L25.3243 12.3686L29.8243 7.86657C29.9172 7.77345 30.0276 7.69956 30.149 7.64915C30.2705 7.59874 30.4008 7.57279 30.5323 7.57279C30.6638 7.57279 30.7941 7.59874 30.9156 7.64915Z" fill="black"/>
</svg>
