<svg width="40" height="40" viewBox="0 0 40 40" fill="none" xmlns="http://www.w3.org/2000/svg">
<path d="M14.8111 35.5555C16.1918 35.5555 17.3111 34.4363 17.3111 33.0555C17.3111 31.6748 16.1918 30.5555 14.8111 30.5555C13.4304 30.5555 12.3111 31.6748 12.3111 33.0555C12.3111 34.4363 13.4304 35.5555 14.8111 35.5555Z" fill="black"/>
<path d="M30 35.5555C31.3807 35.5555 32.5 34.4363 32.5 33.0555C32.5 31.6748 31.3807 30.5555 30 30.5555C28.6193 30.5555 27.5 31.6748 27.5 33.0555C27.5 34.4363 28.6193 35.5555 30 35.5555Z" fill="black"/>
<path d="M36.7556 8.41111C36.6522 8.28365 36.5218 8.18068 36.3739 8.1096C36.226 8.03851 36.0641 8.00109 35.9 8H12.7667L13.4068 10.2222H34.4444L31.4778 21.1112H14.8111L9.73332 5.03339C9.6784 4.86279 9.58302 4.708 9.45533 4.58224C9.32763 4.45648 9.17141 4.36348 8.99999 4.31116L4.44444 2.91116C4.30436 2.86812 4.15718 2.85309 4.01129 2.86692C3.8654 2.88076 3.72367 2.9232 3.59418 2.99181C3.33267 3.13038 3.13692 3.36716 3.04999 3.65005C2.96306 3.93295 2.99207 4.2388 3.13064 4.5003C3.2692 4.76181 3.50598 4.95757 3.78888 5.0445L7.77777 6.26672L12.8778 22.3778L11.0555 23.8667L10.9111 24.0112C10.4604 24.5306 10.2049 25.191 10.1887 25.8785C10.1724 26.566 10.3965 27.2377 10.8222 27.7778C11.1251 28.1461 11.5099 28.4384 11.9459 28.6314C12.382 28.8243 12.8571 28.9125 13.3333 28.8889H31.8778C32.1725 28.8889 32.4551 28.7719 32.6634 28.5635C32.8718 28.3551 32.9889 28.0725 32.9889 27.7778C32.9889 27.4831 32.8718 27.2005 32.6634 26.9922C32.4551 26.7838 32.1725 26.6667 31.8778 26.6667H13.1555C13.0276 26.6623 12.9029 26.6251 12.7936 26.5584C12.6843 26.4918 12.594 26.3981 12.5314 26.2864C12.4689 26.1747 12.4362 26.0488 12.4365 25.9208C12.4369 25.7928 12.4702 25.667 12.5333 25.5556L15.2111 23.3334H32.3667C32.6235 23.3397 32.8746 23.2567 33.0772 23.0987C33.2798 22.9407 33.4213 22.7174 33.4778 22.4667L37 9.35556C37.0338 9.18991 37.0293 9.01874 36.987 8.85507C36.9446 8.69141 36.8655 8.53956 36.7556 8.41111Z" fill="black"/>
</svg>
