<?xml version="1.0" encoding="UTF-8"?>
<svg id="_Слой_2" data-name="Слой 2" xmlns="http://www.w3.org/2000/svg" viewBox="0 0 917.55 96.3">
  <defs>
    <style>
      .cls-1 {
        fill: none;
        stroke: #111;
        stroke-dasharray: 0 0 10 10;
        stroke-linecap: round;
        stroke-width: 2px;
      }

      .cls-2 {
        fill: #fff;
      }

      .cls-3 {
        fill: #111;
      }

      .cls-4 {
        opacity: .15;
      }
    </style>
  </defs>
  <g id="_Слой_1-2" data-name="Слой 1">
    <path class="cls-2" d="M857.38,48.61l10,15.36,50.17-32.73-60.18,17.37Z"/>
    <g class="cls-4">
      <path class="cls-3" d="M857.38,48.61l10,15.36,50.17-32.73-60.18,17.37Z"/>
    </g>
    <path class="cls-2" d="M917.55,31.23l-71.22,27.12,10.7-18.33,4.27-.43-2.65-3.54,5.26-9.64,53.65,4.82Z"/>
    <path class="cls-2" d="M917.55,31.23l-56.25,8.36-2.65-3.54,58.91-4.82Z"/>
    <g class="cls-4">
      <path class="cls-3" d="M917.55,31.23l-56.25,8.36-2.65-3.54,58.91-4.82Z"/>
    </g>
    <path class="cls-1" d="M821,62.77c-33.32,11.22-71.1,9.83-71.1,9.83,0,0-41.22-4.29-54.85-6.44-12.64-1.99-28.75-2.76-42.06-3.39-93.33-4.46-171.32,16.59-171.32,16.59,0,0-89.82,14.55-121.66,15.77-13.98,.54-32.04-.38-46.03,0-30,.81-82.81-3.2-111.63-8.33-33.45-5.96-58.6-17.37-81.92-29.94-21.16-11.41-40.44-23.69-62.36-34.77C41.23,13.58,21.7,6.88,1,1"/>
  </g>
</svg>