<svg width="728" height="274" viewBox="0 0 728 274" fill="none" xmlns="http://www.w3.org/2000/svg">
<rect width="728" height="274" fill="#2A2A2A"/>
<path d="M204 74L154.86 149.06V200H120.66V149.42L73.3204 74H112.92L127.68 100.28C132.84 109.76 136.14 116.72 137.58 121.16H138.3C139.74 117.08 143.28 110.24 148.92 100.64L164.4 74H204ZM272.916 202.7C254.916 202.7 240.756 197.72 230.436 187.76C220.236 177.68 215.136 163.34 215.136 144.74V74H249.156V145.28C249.156 164.24 257.076 173.72 272.916 173.72C280.596 173.72 286.476 171.38 290.556 166.7C294.756 162.02 296.856 155 296.856 145.64V74H330.876V145.1C330.876 157.1 328.536 167.42 323.856 176.06C319.176 184.7 312.456 191.3 303.696 195.86C295.056 200.42 284.796 202.7 272.916 202.7Z" fill="white"/>
<path d="M467.37 74H498.69V200H464.85V155.9C464.85 144.86 465.39 134.48 466.47 124.76L465.57 124.4C462.21 131.24 457.11 139.4 450.27 148.88L430.65 175.52H424.71L405.09 148.88C397.89 139.16 392.67 131 389.43 124.4L388.53 124.76C389.13 128.96 389.61 134 389.97 139.88C390.33 145.76 390.51 151.1 390.51 155.9V200H356.85V74H388.17L428.13 129.26L467.37 74ZM653.567 200H616.667L608.387 178.76H556.727L548.267 200H512.627L565.547 74H601.007L653.567 200ZM582.287 104.06L575.267 125.12L566.447 150.68H598.667L589.667 124.22L583.007 104.06H582.287Z" fill="#FAE103"/>
</svg>
