<svg width="184" height="59" viewBox="0 0 184 59" fill="none" xmlns="http://www.w3.org/2000/svg">
<path d="M0 0.00773064L8.72344 0L15.5423 10.7639L22.4336 0.00773064H31.1156L19.4248 17.5427L19.4074 30.3766H11.6628L11.6637 17.5466L0 0.00773064Z" fill="white"/>
<path d="M35.1738 0H43.2399L43.2138 19.0599C43.2138 19.0599 43.2409 24.3138 49.5868 24.3138C55.9327 24.3138 55.7879 19.0367 55.7879 19.0367L55.7386 0H63.9341V19.0367C63.9341 19.0367 64.0345 32 49.554 32C35.0735 32 35.1738 18.9826 35.1738 18.9826V0Z" fill="white"/>
<path d="M71.0645 0.00579834H78.7685L88.4853 13.8156L98.1885 0.00579834H105.88L105.881 30.5167L98.201 30.5128L98.2609 12.5652L89.2797 25.5266L87.6734 25.5237L78.8207 12.6L78.8187 30.5109L71.0645 30.5128V0.00579834Z" fill="#FBE147"/>
<path d="M119.432 30.5128L121.257 25.7382L134.664 25.7121L136.443 30.5128H144.999L132.333 0.00579834H123.896L110.943 30.5138L119.432 30.5128ZM127.955 7.60985L132.163 18.9633H123.76L127.955 7.60985Z" fill="#FBE147"/>
<path d="M108.67 39.542C109.473 39.3991 110.309 39.7135 111.178 40.4853C112.042 41.2334 112.533 41.9383 112.651 42.5999C112.722 43.0016 112.569 43.2361 112.191 43.3033C111.931 43.3496 111.494 43.2202 110.879 42.9152C110.26 42.5866 109.666 42.4727 109.099 42.5736C108.532 42.6745 107.693 43.1651 106.582 44.0453C105.495 44.9213 105.016 45.7256 105.147 46.4581C105.243 47.0016 106.496 47.7415 108.906 48.6779C109.825 49.0506 110.689 49.5916 111.498 50.3009C112.326 50.9824 112.824 51.7957 112.993 52.7409C113.157 53.6624 112.669 54.6877 111.529 55.8168C110.408 56.9181 108.986 57.6222 107.261 57.9291C105.56 58.2318 103.974 58.0874 102.503 57.4958C101.057 56.9 100.268 56.2359 100.138 55.5034C100.083 55.1962 100.112 54.9473 100.224 54.7567C100.356 54.5382 100.54 54.408 100.776 54.3659C101.013 54.3239 101.371 54.4186 101.851 54.6501C103.291 55.3446 104.696 55.57 106.066 55.3261C107.46 55.0781 108.437 54.7458 108.997 54.3293C109.553 53.8892 109.784 53.4092 109.692 52.8894C109.595 52.3459 109.151 51.8398 108.361 51.371C107.566 50.8786 106.714 50.4696 105.803 50.1442C104.915 49.8146 104.068 49.3681 103.261 48.8048C102.453 48.2415 101.987 47.6054 101.861 46.8965C101.638 45.6442 102.387 44.1701 104.109 42.4743C105.85 40.7507 107.37 39.7733 108.67 39.542Z" fill="white"/>
<path d="M136.556 34.5804C137.265 34.4543 137.979 34.8391 138.699 35.7348C139.439 36.6027 139.92 37.6628 140.143 38.9151C140.361 40.1438 140.423 41.7905 140.327 43.8552C140.255 45.9157 139.999 47.8382 139.561 49.6225C139.123 51.4069 138.55 52.3621 137.841 52.4882C137.344 52.5765 137.04 52.3017 136.926 51.6637C136.808 51.0021 136.926 49.3357 137.28 46.6644C137.653 43.9654 137.707 41.8715 137.442 40.3829C137.173 38.8706 136.802 38.1566 136.329 38.2406C135.739 38.3457 135.146 38.9875 134.551 40.1659C133.98 41.3401 133.388 42.7375 132.774 44.358C132.161 45.9786 131.829 46.8542 131.779 46.985C131.725 47.0921 131.656 47.2507 131.571 47.4608C131.51 47.6666 131.428 47.8885 131.324 48.1264C131.243 48.36 131.026 49.0569 130.672 50.2169C130.341 51.3727 130.03 52.2935 129.737 52.9793C129.441 53.6415 129.139 53.9999 128.832 54.0546C128.548 54.105 128.196 53.9727 127.774 53.6577C127.352 53.3427 127.112 53.0198 127.053 52.689C126.994 52.3582 127.085 51.6352 127.325 50.5198C128.007 47.2294 128.113 44.261 127.642 41.6146C127.554 41.1184 127.374 40.7238 127.102 40.4308C126.827 40.1142 126.559 39.9791 126.299 40.0253C126.039 40.0715 125.788 40.238 125.547 40.5248C125.301 40.7879 125.018 41.2526 124.698 41.919C124.374 42.5618 124.092 43.1725 123.854 43.7512C123.616 44.3299 123.253 45.2355 122.765 46.468C122.297 47.6726 121.934 48.5782 121.676 49.1848C121.438 49.7635 121.157 50.4472 120.834 51.2359C120.507 52.001 120.247 52.5957 120.055 53.0201C119.886 53.4402 119.688 53.902 119.46 54.4056C118.978 55.3934 118.583 55.9146 118.276 55.9693C117.992 56.0197 117.568 55.8271 117.003 55.3913C116.434 54.9319 116.126 54.5723 116.08 54.3124C116.029 54.0288 116.016 53.6778 116.039 53.2593C116.062 52.8408 116.087 52.4341 116.114 52.0392C116.165 51.6401 116.232 51.0554 116.314 50.2851C116.416 49.4869 116.52 48.5664 116.627 47.5235C116.753 46.4528 116.732 45.0306 116.563 43.2568C116.413 41.4552 116.302 40.1465 116.23 39.3305C116.153 38.4908 116.281 38.0416 116.611 37.9827C117.131 37.8902 117.688 38.0716 118.281 38.5268C118.897 38.9777 119.254 39.475 119.35 40.0184C119.72 42.0978 119.55 45.6627 118.84 50.7132C120.603 45.2803 121.746 42.0421 122.267 40.9986C122.788 39.9552 123.247 39.1058 123.642 38.4504C124.383 37.2704 125.226 36.5963 126.171 36.4281C126.738 36.3272 127.5 36.7036 128.456 37.5573C129.432 38.3831 130.008 39.2923 130.185 40.2847C130.361 41.2771 130.438 42.531 130.415 44.0465C132.241 38.1393 134.287 34.984 136.556 34.5804Z" fill="white"/>
<path d="M151.261 31.9639C152.325 31.7748 153.402 32.1438 154.493 33.0709C155.58 33.9745 156.201 34.8634 156.357 35.7376C156.508 36.5883 156.369 37.5151 155.938 38.5181C156.284 38.8221 156.481 39.104 156.527 39.364C156.645 40.0256 156.693 41.1871 156.672 42.8485C156.674 44.5057 156.684 45.5887 156.701 46.0976C156.742 46.6022 156.766 47.0123 156.774 47.3279C156.777 47.6198 156.768 47.9139 156.748 48.21C156.759 48.8176 156.598 49.1508 156.268 49.2096C155.842 49.2853 155.423 48.9821 155.009 48.3001C154.614 47.5902 154.288 46.6487 154.031 45.4757C152.403 48.5199 150.691 50.2018 148.895 50.5213C147.808 50.7147 146.651 50.4452 145.424 49.7129C144.216 48.9527 143.524 48.0764 143.347 47.084C143.095 45.6663 143.304 43.8253 143.974 41.5609C144.639 39.273 145.654 37.1666 147.018 35.242C148.382 33.3173 149.796 32.2246 151.261 31.9639ZM154.001 37.9119C153.611 35.7144 152.978 34.6934 152.104 34.849C151.182 35.0129 150.225 35.8658 149.231 37.4077C148.234 38.9259 147.457 40.5877 146.901 42.3931C146.344 44.1984 146.152 45.5855 146.325 46.5543C146.396 46.956 146.62 47.2574 146.997 47.4584C147.37 47.6358 147.781 47.6846 148.23 47.6047C149.341 47.4071 150.461 46.44 151.59 44.7034C152.715 42.9431 153.358 40.9394 153.519 38.6925C153.527 38.3255 153.69 38.0771 154.008 37.9473L154.001 37.9119Z" fill="white"/>
<path d="M161.343 34.6311L160.764 31.9917C160.566 30.8812 160.728 30.2797 161.247 30.1872C161.696 30.1073 162.174 30.327 162.681 30.8462C163.207 31.3376 163.542 31.985 163.685 32.7884C163.823 33.5682 163.905 34.1631 163.929 34.5732C165.43 31.0884 167.102 29.1821 168.945 28.8542C170.103 28.6481 170.732 28.8287 170.833 29.3958C170.883 29.6793 170.8 29.9624 170.582 30.2449C170.364 30.5274 169.999 30.8727 169.486 31.2808C168.331 32.0471 167.417 33.0751 166.744 34.3649C166.091 35.6268 165.619 37.0149 165.328 38.5294C165.037 40.0438 164.812 41.3148 164.653 42.3425C164.519 43.3659 164.417 44.1641 164.348 44.737C164.279 45.3099 164.185 45.8752 164.065 46.4328C163.855 47.4453 163.502 47.9956 163.006 48.0839C162.604 48.1554 162.233 47.9898 161.893 47.587C161.573 47.1565 161.375 46.7286 161.299 46.3033C161.219 45.8543 161.265 44.9443 161.435 43.5732C161.874 40.4236 161.844 37.4429 161.343 34.6311Z" fill="white"/>
<path d="M176.648 41.9269C176.728 42.3759 177.028 42.5541 177.548 42.4616C178.445 42.3018 179.488 41.8603 180.676 41.1371C181.883 40.3861 182.557 39.9979 182.699 39.9727C183.125 39.897 183.377 40.0836 183.457 40.5326C183.579 41.2178 183.011 42.1355 181.753 43.2857C180.519 44.4316 179.322 45.1076 178.165 45.3136C177.03 45.5154 176.031 45.3764 175.165 44.8966C174.296 44.3931 173.802 43.8106 173.684 43.149C173.566 42.4874 173.559 41.6233 173.662 40.5568C173.76 39.4667 173.92 38.0366 174.142 36.2664C174.382 34.4685 174.558 32.9869 174.667 31.8216C173.603 32.2792 172.882 32.5415 172.504 32.6088C172.126 32.6761 171.714 32.5543 171.269 32.2435C170.843 31.9049 170.598 31.5584 170.535 31.2039C170.434 30.6368 171.873 29.8201 174.853 28.7537C174.929 26.7168 174.833 24.9423 174.564 23.43C174.437 22.7212 174.611 22.3247 175.083 22.2406C175.485 22.1691 176.027 22.3408 176.711 22.7555C177.39 23.1466 177.786 23.6611 177.899 24.2991C178.013 24.9371 178.012 26.0952 177.896 27.7735C179.222 27.4157 180.286 27.1653 181.09 27.0224C182.507 26.7701 183.271 26.9512 183.38 27.5655C183.443 27.92 183.106 28.2847 182.368 28.6597C181.654 29.0305 180.113 29.6827 177.744 30.6161C177.579 32.5711 177.334 34.8209 177.006 37.3656C176.675 39.8866 176.555 41.4071 176.648 41.9269Z" fill="white"/>
</svg>
