<svg width="581" height="129" viewBox="0 0 581 129" fill="none" xmlns="http://www.w3.org/2000/svg">
<path d="M131.401 -8.58307e-06L82.2608 75.06V126H48.0608V75.42L0.720781 -8.58307e-06H40.3208L55.0808 26.28C60.2408 35.76 63.5408 42.72 64.9808 47.16H65.7008C67.1408 43.08 70.6808 36.24 76.3208 26.64L91.8008 -8.58307e-06H131.401ZM200.317 128.7C182.317 128.7 168.157 123.72 157.837 113.76C147.637 103.68 142.537 89.34 142.537 70.74V-8.58307e-06H176.557V71.28C176.557 90.24 184.477 99.72 200.317 99.72C207.997 99.72 213.877 97.38 217.957 92.7C222.157 88.02 224.257 81 224.257 71.64V-8.58307e-06H258.277V71.1C258.277 83.1 255.937 93.42 251.257 102.06C246.577 110.7 239.857 117.3 231.097 121.86C222.457 126.42 212.197 128.7 200.317 128.7Z" fill="#2A2A2A"/>
<path d="M394.77 -8.58307e-06H426.09V126H392.25V81.9C392.25 70.86 392.79 60.48 393.87 50.76L392.97 50.4C389.61 57.24 384.51 65.4 377.67 74.88L358.05 101.52H352.11L332.49 74.88C325.29 65.16 320.07 57 316.83 50.4L315.93 50.76C316.53 54.96 317.01 60 317.37 65.88C317.73 71.76 317.91 77.1 317.91 81.9V126H284.25V-8.58307e-06H315.57L355.53 55.26L394.77 -8.58307e-06ZM580.968 126H544.068L535.788 104.76H484.128L475.668 126H440.028L492.948 -8.58307e-06H528.408L580.968 126ZM509.688 30.06L502.668 51.12L493.848 76.68H526.068L517.068 50.22L510.408 30.06H509.688Z" fill="#FADB26"/>
</svg>
