<svg width="536" height="466" viewBox="0 0 536 466" fill="none" xmlns="http://www.w3.org/2000/svg">
<path opacity="0.1" d="M534.763 381.037C539.677 347.101 530.15 310.264 502.609 279.933C427.246 196.933 430.455 213.599 417.208 113.708C403.962 13.8161 292.474 -25.1495 209.897 16.4876C109.925 66.892 161.801 85.8371 42.5936 169.999C-60.4498 242.751 35.0446 379.918 205.09 437.447C342.522 483.942 520.531 479.327 534.763 381.037Z" fill="#0C0C0C"/>
<path d="M111.573 99H447.242C454.869 99.0004 462.184 101.949 467.577 107.198C472.97 112.446 476 119.564 476 126.987V375.014C476 382.436 472.97 389.555 467.577 394.803C462.183 400.051 454.868 403 447.241 403H98.7592C91.1318 403 83.8168 400.051 78.4234 394.803C73.03 389.555 70 382.436 70 375.014V139.456C70 128.727 74.38 118.437 82.1765 110.85C89.973 103.263 100.547 99.0002 111.573 99Z" fill="#262626"/>
<path d="M432.125 121.731H86.8284C72.1474 121.731 60.2461 133.666 60.2461 148.388V384.631C60.2461 399.353 72.1474 411.288 86.8284 411.288H432.125C446.806 411.288 458.707 399.353 458.707 384.631V148.388C458.707 133.666 446.806 121.731 432.125 121.731Z" fill="white"/>
<path opacity="0.55" d="M431.879 122H86.5823C71.9013 122 60 133.935 60 148.656V384.9C60 399.622 71.9013 411.556 86.5823 411.556H431.879C446.56 411.556 458.461 399.622 458.461 384.9V148.656C458.461 133.935 446.56 122 431.879 122Z" fill="#F3F3F3"/>
<path d="M432.125 412.244H86.8282C79.5274 412.236 72.5279 409.324 67.3654 404.148C62.2029 398.971 59.2991 391.952 59.291 384.63V148.388C59.2993 141.066 62.2031 134.047 67.3655 128.87C72.528 123.694 79.5273 120.781 86.8282 120.773H432.125C439.426 120.782 446.425 123.694 451.587 128.871C456.749 134.048 459.653 141.067 459.661 148.388V384.63C459.653 391.952 456.75 398.97 451.587 404.147C446.425 409.324 439.426 412.236 432.125 412.244ZM86.8282 122.686C80.0334 122.693 73.519 125.403 68.7144 130.221C63.9099 135.039 61.2077 141.572 61.2008 148.386V384.629C61.2078 391.442 63.9101 397.975 68.7147 402.793C73.5192 407.611 80.0335 410.32 86.8282 410.327H432.125C438.919 410.32 445.434 407.61 450.238 402.792C455.042 397.974 457.745 391.442 457.752 384.629V148.388C457.745 141.574 455.043 135.041 450.238 130.223C445.434 125.405 438.919 122.695 432.125 122.688L86.8282 122.686Z" fill="#262626"/>
<path d="M413.304 307.375L391.772 307.375M286.595 281.377L286.595 307.375L318.069 307.375M349.543 307.375L370.241 307.375M349.543 307.375L349.543 322.88M349.543 307.375L318.069 307.375M349.543 346.849L349.543 322.88M370.241 307.375L370.241 268.534L352.583 268.534M370.241 307.375L391.772 307.375M349.543 322.88L305.682 322.881L305.682 338.386M318.069 307.375L318.069 294.349M391.772 307.375L391.772 322.881" stroke="#262626" stroke-width="2"/>
<path d="M349.523 346.898C347.051 346.898 345.047 348.902 345.047 351.374C345.047 353.846 347.051 355.85 349.523 355.85C351.996 355.85 354 353.846 354 351.374C354 348.902 351.996 346.898 349.523 346.898Z" fill="#FADB26"/>
<path d="M349.476 346C350.559 346 351.619 346.321 352.519 346.923C353.42 347.524 354.122 348.38 354.537 349.38C354.952 350.381 355.06 351.483 354.849 352.545C354.638 353.608 354.116 354.584 353.35 355.35C352.584 356.116 351.608 356.637 350.545 356.849C349.483 357.06 348.382 356.951 347.381 356.537C346.38 356.122 345.524 355.42 344.923 354.519C344.321 353.618 344 352.559 344 351.476C344.002 350.024 344.579 348.632 345.606 347.606C346.632 346.579 348.024 346.001 349.476 346ZM349.476 354.953C350.164 354.953 350.836 354.749 351.408 354.367C351.98 353.985 352.426 353.442 352.689 352.807C352.952 352.172 353.021 351.473 352.887 350.798C352.753 350.124 352.422 349.504 351.936 349.018C351.45 348.531 350.83 348.2 350.156 348.066C349.481 347.932 348.782 348 348.147 348.263C347.511 348.527 346.968 348.972 346.586 349.544C346.204 350.116 346 350.788 346 351.476C346.001 352.398 346.368 353.281 347.019 353.933C347.671 354.585 348.554 354.952 349.476 354.953Z" fill="#262626"/>
<path d="M391.523 321.898C389.051 321.898 387.047 323.902 387.047 326.374C387.047 328.846 389.051 330.85 391.523 330.85C393.996 330.85 396 328.846 396 326.374C396 323.902 393.996 321.898 391.523 321.898Z" fill="#FADB26"/>
<path d="M391.476 321C392.559 321 393.619 321.321 394.519 321.923C395.42 322.524 396.122 323.38 396.537 324.381C396.952 325.381 397.06 326.483 396.849 327.545C396.638 328.608 396.116 329.584 395.35 330.35C394.584 331.116 393.608 331.638 392.545 331.849C391.483 332.06 390.382 331.952 389.381 331.537C388.38 331.122 387.524 330.42 386.923 329.519C386.321 328.618 386 327.559 386 326.476C386.002 325.024 386.579 323.632 387.606 322.606C388.632 321.579 390.024 321.002 391.476 321ZM391.476 329.953C392.164 329.953 392.836 329.75 393.408 329.368C393.98 328.986 394.426 328.443 394.689 327.807C394.952 327.172 395.021 326.473 394.887 325.798C394.753 325.124 394.422 324.504 393.936 324.018C393.45 323.531 392.83 323.2 392.156 323.066C391.481 322.932 390.782 323.001 390.147 323.264C389.511 323.527 388.968 323.972 388.586 324.544C388.204 325.116 388 325.788 388 326.476C388.001 327.398 388.368 328.281 389.019 328.933C389.671 329.585 390.554 329.952 391.476 329.953Z" fill="#262626"/>
<path d="M317.523 285.793C315.051 285.793 313.047 287.797 313.047 290.269C313.047 292.741 315.051 294.745 317.523 294.745C319.996 294.745 322 292.741 322 290.269C322 287.797 319.996 285.793 317.523 285.793Z" fill="#FADB26"/>
<path d="M318.081 284.895C319.164 284.895 320.223 285.216 321.124 285.817C322.025 286.419 322.727 287.275 323.142 288.275C323.557 289.276 323.665 290.378 323.454 291.44C323.243 292.503 322.721 293.479 321.955 294.245C321.189 295.011 320.213 295.532 319.15 295.744C318.088 295.955 316.986 295.846 315.986 295.432C314.985 295.017 314.129 294.315 313.528 293.414C312.926 292.513 312.605 291.454 312.605 290.371C312.607 288.919 313.184 287.527 314.211 286.501C315.237 285.474 316.629 284.896 318.081 284.895ZM318.081 293.848C318.769 293.848 319.441 293.644 320.013 293.262C320.585 292.88 321.031 292.337 321.294 291.702C321.557 291.067 321.626 290.368 321.492 289.693C321.358 289.019 321.027 288.399 320.541 287.913C320.055 287.426 319.435 287.095 318.761 286.961C318.086 286.827 317.387 286.895 316.752 287.158C316.116 287.422 315.573 287.867 315.191 288.439C314.809 289.011 314.605 289.683 314.605 290.371C314.606 291.293 314.973 292.176 315.624 292.828C316.276 293.48 317.159 293.847 318.081 293.848Z" fill="#262626"/>
<path d="M347.478 263.898C345.006 263.898 343.002 265.902 343.002 268.374C343.002 270.846 345.006 272.85 347.478 272.85C349.95 272.85 351.954 270.846 351.954 268.374C351.954 265.902 349.95 263.898 347.478 263.898Z" fill="#FADB26"/>
<path d="M347.43 263C348.514 263 349.573 263.321 350.473 263.923C351.374 264.524 352.076 265.38 352.491 266.381C352.906 267.382 353.014 268.483 352.803 269.545C352.592 270.608 352.07 271.584 351.304 272.35C350.538 273.116 349.562 273.638 348.499 273.849C347.437 274.06 346.336 273.952 345.335 273.537C344.334 273.122 343.479 272.42 342.877 271.519C342.275 270.618 341.954 269.559 341.954 268.476C341.956 267.024 342.533 265.632 343.56 264.606C344.586 263.579 345.978 263.002 347.43 263ZM347.43 271.953C348.118 271.953 348.79 271.75 349.362 271.368C349.934 270.986 350.38 270.443 350.643 269.807C350.907 269.172 350.976 268.473 350.842 267.798C350.707 267.124 350.376 266.504 349.89 266.018C349.404 265.531 348.784 265.2 348.11 265.066C347.435 264.932 346.736 265.001 346.101 265.264C345.465 265.527 344.922 265.972 344.54 266.544C344.158 267.116 343.954 267.788 343.954 268.476C343.955 269.398 344.322 270.281 344.973 270.933C345.625 271.585 346.509 271.952 347.43 271.953Z" fill="#262626"/>
<path d="M286.476 271.895C284.004 271.895 282 273.899 282 276.371C282 278.843 284.004 280.847 286.476 280.847C288.948 280.847 290.952 278.843 290.952 276.371C290.952 273.899 288.948 271.895 286.476 271.895Z" fill="#FADB26"/>
<path d="M286.476 270.895C287.559 270.895 288.619 271.216 289.519 271.817C290.42 272.419 291.122 273.275 291.537 274.275C291.952 275.276 292.06 276.378 291.849 277.44C291.638 278.503 291.116 279.479 290.35 280.245C289.584 281.011 288.608 281.532 287.545 281.744C286.483 281.955 285.382 281.846 284.381 281.432C283.38 281.017 282.524 280.315 281.923 279.414C281.321 278.513 281 277.454 281 276.371C281.002 274.919 281.579 273.527 282.606 272.5C283.632 271.474 285.024 270.896 286.476 270.895ZM286.476 279.848C287.164 279.848 287.836 279.644 288.408 279.262C288.98 278.88 289.426 278.337 289.689 277.702C289.952 277.067 290.021 276.368 289.887 275.693C289.753 275.019 289.422 274.399 288.936 273.913C288.45 273.426 287.83 273.095 287.156 272.961C286.481 272.826 285.782 272.895 285.147 273.158C284.511 273.422 283.968 273.867 283.586 274.439C283.204 275.011 283 275.683 283 276.371C283.001 277.292 283.368 278.176 284.019 278.828C284.671 279.48 285.554 279.846 286.476 279.848Z" fill="#262626"/>
<path d="M305.477 337.895C306.56 337.895 307.619 338.216 308.52 338.817C309.421 339.419 310.123 340.275 310.538 341.275C310.952 342.276 311.061 343.378 310.849 344.44C310.638 345.503 310.116 346.479 309.35 347.245C308.584 348.011 307.608 348.532 306.546 348.744C305.483 348.955 304.382 348.846 303.381 348.432C302.38 348.017 301.525 347.315 300.923 346.414C300.321 345.513 300 344.454 300.001 343.371C300.002 341.919 300.58 340.527 301.606 339.5C302.633 338.474 304.025 337.896 305.477 337.895ZM305.477 346.848C306.164 346.848 306.837 346.644 307.409 346.262C307.981 345.88 308.426 345.337 308.69 344.702C308.953 344.067 309.022 343.368 308.888 342.693C308.754 342.019 308.423 341.399 307.937 340.913C307.45 340.426 306.831 340.095 306.156 339.961C305.482 339.826 304.783 339.895 304.147 340.158C303.512 340.422 302.969 340.867 302.587 341.439C302.205 342.011 302.001 342.683 302.001 343.371C302.002 344.293 302.368 345.176 303.02 345.828C303.671 346.48 304.555 346.847 305.477 346.848Z" fill="#262626"/>
<path d="M305.454 339.849C303.521 339.849 301.954 341.416 301.954 343.349C301.954 345.282 303.521 346.849 305.454 346.849C307.387 346.849 308.954 345.282 308.954 343.349C308.954 341.416 307.387 339.849 305.454 339.849Z" fill="#FADB26"/>
<path d="M412.477 302.895C410.005 302.895 408.001 304.899 408.001 307.371C408.001 309.843 410.005 311.847 412.477 311.847C414.949 311.847 416.953 309.843 416.953 307.371C416.953 304.899 414.949 302.895 412.477 302.895Z" fill="#FADB26"/>
<path d="M412.477 301.895C413.56 301.895 414.619 302.216 415.52 302.817C416.421 303.419 417.123 304.275 417.538 305.275C417.952 306.276 418.061 307.378 417.849 308.44C417.638 309.503 417.116 310.479 416.35 311.245C415.584 312.011 414.608 312.532 413.546 312.744C412.483 312.955 411.382 312.846 410.381 312.432C409.38 312.017 408.525 311.315 407.923 310.414C407.321 309.513 407 308.454 407.001 307.371C407.002 305.919 407.58 304.527 408.606 303.5C409.633 302.474 411.025 301.896 412.477 301.895ZM412.477 310.848C413.164 310.848 413.837 310.644 414.409 310.262C414.981 309.88 415.426 309.337 415.69 308.702C415.953 308.067 416.022 307.368 415.888 306.693C415.754 306.019 415.423 305.399 414.937 304.913C414.45 304.426 413.831 304.095 413.156 303.961C412.482 303.826 411.783 303.895 411.147 304.158C410.512 304.422 409.969 304.867 409.587 305.439C409.205 306.011 409.001 306.683 409.001 307.371C409.002 308.293 409.368 309.176 410.02 309.828C410.671 310.48 411.555 310.847 412.477 310.848Z" fill="#262626"/>
<path d="M216.619 452.899C216.619 453.011 216.597 453.122 216.554 453.225C216.511 453.329 216.448 453.423 216.369 453.502C216.29 453.581 216.195 453.644 216.092 453.687C215.988 453.73 215.877 453.752 215.764 453.752L191.64 453.752C191.413 453.752 191.195 453.662 191.035 453.502C190.875 453.342 190.785 453.125 190.785 452.899C190.785 452.673 190.875 452.456 191.035 452.296C191.195 452.136 191.413 452.046 191.64 452.046L215.764 452.046C215.991 452.046 216.209 452.136 216.369 452.296C216.529 452.456 216.619 452.673 216.619 452.899Z" fill="#262626"/>
<path d="M204.557 445.05L204.557 460.749C204.559 460.862 204.539 460.975 204.497 461.08C204.455 461.186 204.393 461.282 204.313 461.363C204.234 461.444 204.139 461.509 204.034 461.553C203.929 461.597 203.816 461.62 203.702 461.62C203.588 461.62 203.476 461.597 203.371 461.553C203.266 461.509 203.171 461.444 203.091 461.363C203.012 461.282 202.949 461.186 202.907 461.08C202.865 460.975 202.845 460.862 202.847 460.749L202.847 445.05C202.852 444.827 202.944 444.615 203.104 444.459C203.264 444.303 203.479 444.215 203.702 444.215C203.926 444.215 204.141 444.303 204.3 444.459C204.46 444.615 204.552 444.827 204.557 445.05Z" fill="#262626"/>
<path d="M503.877 244.111C503.617 244.111 503.368 244.007 503.184 243.822C503 243.638 502.896 243.388 502.896 243.127V222.009C502.893 221.878 502.916 221.747 502.964 221.625C503.012 221.503 503.083 221.391 503.175 221.297C503.266 221.203 503.376 221.128 503.496 221.077C503.617 221.026 503.747 221 503.878 221C504.009 221 504.138 221.026 504.259 221.077C504.38 221.128 504.489 221.203 504.581 221.297C504.672 221.391 504.744 221.503 504.792 221.625C504.839 221.747 504.862 221.878 504.859 222.009V243.127C504.859 243.256 504.834 243.384 504.784 243.503C504.735 243.623 504.663 243.731 504.571 243.823C504.48 243.914 504.372 243.987 504.253 244.036C504.134 244.085 504.006 244.111 503.877 244.111Z" fill="#262626"/>
<path d="M510.749 233.552H497.007C496.876 233.555 496.745 233.532 496.623 233.484C496.501 233.436 496.39 233.364 496.296 233.273C496.203 233.181 496.128 233.071 496.077 232.95C496.026 232.829 496 232.699 496 232.568C496 232.436 496.026 232.306 496.077 232.185C496.128 232.064 496.203 231.955 496.296 231.863C496.39 231.771 496.501 231.699 496.623 231.651C496.745 231.603 496.876 231.58 497.007 231.584H510.749C511.005 231.59 511.248 231.697 511.427 231.881C511.606 232.065 511.706 232.311 511.706 232.568C511.706 232.825 511.606 233.071 511.427 233.255C511.248 233.439 511.005 233.545 510.749 233.552Z" fill="#262626"/>
<path d="M223 212.5C223 247.57 194.57 276 159.5 276C124.43 276 96 247.57 96 212.5C96 177.43 124.43 149 159.5 149C194.57 149 223 177.43 223 212.5Z" fill="#FADB26"/>
<path d="M126.876 185.846C138.573 185.865 149.964 182.148 159.392 175.246M126.876 185.846C126.876 185.846 126.876 185.846 126.875 185.846L126.877 184.846C126.25 184.846 125.623 184.836 125 184.814L159.392 175.246M126.876 185.846C126.25 185.846 125.624 185.836 125 185.815V205.161C125.012 223.238 132.196 239.731 147.808 248.421C147.808 248.421 147.809 248.421 147.809 248.421L159.391 254.85L170.973 248.422C186.586 239.731 193.77 223.238 193.782 205.161V185.814M126.876 185.846L193.782 185.814M159.392 175.246C168.819 182.147 180.21 185.865 191.907 185.846M159.392 175.246L193.782 185.814M193.782 185.814C193.158 185.836 192.532 185.846 191.907 185.846M191.907 185.846C191.906 185.846 191.906 185.846 191.906 185.846V184.846L191.907 185.846C191.907 185.846 191.907 185.846 191.907 185.846Z" fill="white" stroke="#262626" stroke-width="2"/>
<path d="M167.903 200.458V208.351C167.903 208.667 167.777 208.97 167.554 209.193C167.331 209.416 167.028 209.542 166.712 209.542C166.396 209.542 166.094 209.416 165.87 209.193C165.647 208.97 165.522 208.667 165.522 208.351V200.458C165.522 197.394 162.771 194.899 159.391 194.899C156.01 194.899 153.26 197.394 153.26 200.458V208.934C153.26 209.25 153.134 209.553 152.911 209.776C152.688 209.999 152.385 210.125 152.069 210.125C151.754 210.125 151.451 209.999 151.228 209.776C151.004 209.553 150.879 209.25 150.879 208.934V200.458C150.879 196.08 154.697 192.518 159.391 192.518C164.085 192.518 167.903 196.08 167.903 200.458Z" fill="#262626"/>
<path d="M167.903 208.351C167.903 208.667 167.777 208.97 167.554 209.193C167.331 209.416 167.028 209.542 166.712 209.542C166.396 209.542 166.094 209.416 165.87 209.193C165.647 208.97 165.522 208.667 165.522 208.351V200.458C165.522 197.394 162.771 194.899 159.391 194.899C156.01 194.899 153.26 197.394 153.26 200.458V208.934C153.26 209.25 153.134 209.553 152.911 209.776C152.688 209.999 152.385 210.125 152.069 210.125C151.754 210.125 151.451 209.999 151.228 209.776C151.004 209.553 150.879 209.25 150.879 208.934V200.458C150.879 196.08 154.697 192.518 159.391 192.518C164.085 192.518 167.903 196.08 167.903 200.458V208.351Z" fill="#262626"/>
<path d="M170.559 207.468H148.223C146.92 207.468 145.864 208.524 145.864 209.827V230.866C145.864 232.169 146.92 233.225 148.223 233.225H170.559C171.862 233.225 172.918 232.169 172.918 230.866V209.827C172.918 208.524 171.862 207.468 170.559 207.468Z" fill="#FADB26" stroke="#262626" stroke-width="2"/>
<path d="M157.167 218.264C157.167 218.681 157.285 219.09 157.506 219.444C157.728 219.798 158.044 220.082 158.42 220.265V223.682C158.424 223.937 158.528 224.18 158.709 224.359C158.891 224.538 159.136 224.638 159.391 224.638C159.646 224.638 159.89 224.538 160.072 224.359C160.254 224.18 160.358 223.937 160.362 223.682V220.265C160.719 220.091 161.023 219.826 161.243 219.495C161.463 219.164 161.59 218.78 161.612 218.384C161.633 217.987 161.548 217.592 161.365 217.24C161.182 216.887 160.908 216.59 160.572 216.379C160.235 216.168 159.848 216.051 159.451 216.041C159.054 216.03 158.662 216.126 158.314 216.318C157.967 216.51 157.677 216.792 157.475 217.134C157.273 217.476 157.167 217.866 157.167 218.263V218.264Z" fill="#262626"/>
<path d="M115.829 63C115.957 63 116.085 63.0253 116.204 63.0747C116.323 63.1241 116.432 63.1966 116.523 63.2879C116.614 63.3793 116.686 63.4878 116.735 63.6071C116.785 63.7265 116.81 63.8545 116.81 63.9837L116.81 85.1012C116.814 85.2325 116.791 85.3632 116.743 85.4855C116.695 85.6078 116.623 85.7193 116.532 85.8134C116.44 85.9074 116.331 85.9822 116.21 86.0333C116.09 86.0843 115.96 86.1106 115.829 86.1106C115.698 86.1106 115.568 86.0843 115.447 86.0333C115.327 85.9822 115.217 85.9074 115.126 85.8134C115.035 85.7193 114.963 85.6078 114.915 85.4855C114.867 85.3632 114.844 85.2325 114.848 85.1012L114.848 63.9837C114.848 63.7228 114.951 63.4726 115.135 63.2881C115.319 63.1037 115.568 63 115.829 63Z" fill="#262626"/>
<path d="M108.957 73.5587L122.699 73.5587C122.83 73.5554 122.96 73.5783 123.082 73.6263C123.204 73.6742 123.315 73.7462 123.409 73.8379C123.503 73.9296 123.578 74.0392 123.628 74.1603C123.679 74.2813 123.706 74.4114 123.706 74.5427C123.706 74.6741 123.679 74.8042 123.628 74.9252C123.578 75.0463 123.503 75.1559 123.409 75.2476C123.315 75.3393 123.204 75.4113 123.082 75.4592C122.96 75.5071 122.83 75.5301 122.699 75.5268L108.957 75.5268C108.701 75.5202 108.457 75.4137 108.279 75.2299C108.1 75.046 108 74.7995 108 74.5427C108 74.286 108.1 74.0395 108.279 73.8556C108.457 73.6718 108.701 73.5653 108.957 73.5587Z" fill="#262626"/>
<g clip-path="url(#clip0_987_18055)">
<path d="M439.434 153.123L435.266 150.344C435.198 150.299 435.118 150.273 435.037 150.27C434.955 150.266 434.874 150.284 434.802 150.323C434.729 150.362 434.669 150.419 434.627 150.489C434.585 150.559 434.563 150.64 434.562 150.721L434.562 152.594L421.297 152.594C421.513 152.305 421.695 151.992 421.837 151.66L422.672 149.71C422.882 149.221 423.231 148.804 423.676 148.511C424.12 148.218 424.641 148.062 425.174 148.063L425.656 148.063C425.87 148.667 426.29 149.177 426.843 149.501C427.397 149.826 428.047 149.944 428.679 149.836C429.311 149.727 429.884 149.399 430.298 148.909C430.711 148.418 430.938 147.798 430.938 147.156C430.938 146.515 430.711 145.894 430.298 145.404C429.884 144.914 429.311 144.585 428.679 144.477C428.047 144.368 427.397 144.487 426.843 144.811C426.29 145.136 425.87 145.645 425.656 146.25L425.174 146.25C424.287 146.25 423.42 146.51 422.679 146.998C421.939 147.486 421.358 148.181 421.009 148.996L420.173 150.946C419.994 151.364 419.713 151.731 419.355 152.012C418.998 152.293 418.575 152.48 418.127 152.556C417.897 151.705 417.365 150.967 416.631 150.48C415.897 149.993 415.011 149.789 414.138 149.908C413.265 150.026 412.465 150.458 411.887 151.124C411.309 151.789 410.994 152.642 410.999 153.523C411.004 154.404 411.33 155.253 411.915 155.911C412.501 156.57 413.306 156.993 414.18 157.101C415.054 157.209 415.938 156.995 416.667 156.499C417.395 156.004 417.918 155.259 418.138 154.406L419.772 154.406C420.252 154.406 420.723 154.533 421.138 154.773C421.553 155.014 421.896 155.36 422.134 155.777L423.671 158.466C424.043 159.117 424.57 159.665 425.205 160.062C425.841 160.459 426.565 160.692 427.312 160.741L427.312 162.109C427.312 162.23 427.36 162.345 427.445 162.43C427.53 162.515 427.645 162.563 427.766 162.563L432.297 162.563C432.417 162.563 432.532 162.515 432.617 162.43C432.702 162.345 432.75 162.23 432.75 162.109L432.75 157.578C432.75 157.458 432.702 157.343 432.617 157.258C432.532 157.173 432.417 157.125 432.297 157.125L427.766 157.125C427.515 157.125 427.312 157.328 427.312 157.578L427.312 158.921C426.885 158.875 426.474 158.729 426.115 158.493C425.755 158.258 425.456 157.941 425.243 157.567L423.706 154.878C423.612 154.714 423.51 154.557 423.397 154.406L434.562 154.406L434.562 156.279C434.562 156.361 434.585 156.441 434.627 156.512C434.669 156.582 434.73 156.64 434.802 156.679C434.874 156.717 434.956 156.736 435.038 156.732C435.12 156.727 435.199 156.701 435.268 156.656L439.434 153.877C439.497 153.836 439.547 153.78 439.583 153.714C439.618 153.648 439.636 153.575 439.636 153.5C439.636 153.425 439.618 153.352 439.583 153.286C439.547 153.22 439.497 153.164 439.434 153.123Z" fill="#262626"/>
</g>
<path d="M415.571 175C414.889 175 414.235 175.271 413.753 175.753C413.271 176.235 413 176.889 413 177.571V182.714C413 183.396 413.271 184.05 413.753 184.533C414.235 185.015 414.889 185.286 415.571 185.286H434.429C435.111 185.286 435.765 185.015 436.247 184.533C436.729 184.05 437 183.396 437 182.714V177.571C437 176.889 436.729 176.235 436.247 175.753C435.765 175.271 435.111 175 434.429 175H415.571ZM414.714 177.571C414.714 177.344 414.805 177.126 414.965 176.965C415.126 176.805 415.344 176.714 415.571 176.714H434.429C434.656 176.714 434.874 176.805 435.035 176.965C435.195 177.126 435.286 177.344 435.286 177.571V180.143H414.714V177.571Z" fill="#262626"/>
<path d="M415.571 192C414.889 192 414.235 192.271 413.753 192.753C413.271 193.235 413 193.889 413 194.571V199.714C413 200.396 413.271 201.05 413.753 201.533C414.235 202.015 414.889 202.286 415.571 202.286H434.429C435.111 202.286 435.765 202.015 436.247 201.533C436.729 201.05 437 200.396 437 199.714V194.571C437 193.889 436.729 193.235 436.247 192.753C435.765 192.271 435.111 192 434.429 192H415.571ZM414.714 194.571C414.714 194.344 414.805 194.126 414.965 193.965C415.126 193.805 415.344 193.714 415.571 193.714H434.429C434.656 193.714 434.874 193.805 435.035 193.965C435.195 194.126 435.286 194.344 435.286 194.571V197.143H414.714V194.571Z" fill="#262626"/>
<defs>
<clipPath id="clip0_987_18055">
<rect width="29" height="29" fill="white" transform="translate(440 139) rotate(90)"/>
</clipPath>
</defs>
</svg>
