<svg width="342" height="388" viewBox="0 0 342 388" fill="none" xmlns="http://www.w3.org/2000/svg">
<g clip-path="url(#clip0_987_17721)">
<path d="M321.506 109.357L225.081 109.357C223.248 109.357 221.491 108.631 220.195 107.339C218.899 106.047 218.171 104.295 218.171 102.467V32.4874C218.171 30.6611 218.898 28.9097 220.194 27.6183C221.489 26.3269 223.246 25.6014 225.078 25.6014L321.509 25.6014C323.341 25.6014 325.098 26.3269 326.393 27.6183C327.689 28.9097 328.417 30.6611 328.417 32.4874V102.467C328.417 104.295 327.688 106.047 326.392 107.339C325.097 108.631 323.339 109.357 321.506 109.357Z" fill="white"/>
<path d="M217.882 102.467V32.487C217.882 30.5843 218.64 28.7596 219.989 27.4143C221.339 26.0689 223.169 25.3131 225.078 25.3131H321.509C323.418 25.3131 325.248 26.0689 326.598 27.4143C327.947 28.7596 328.705 30.5843 328.705 32.487V102.467C328.705 103.409 328.519 104.343 328.157 105.213C327.795 106.084 327.265 106.875 326.597 107.542C325.928 108.208 325.134 108.737 324.261 109.098C323.388 109.458 322.451 109.644 321.506 109.644H225.081C224.136 109.644 223.199 109.458 222.326 109.098C221.453 108.737 220.659 108.208 219.99 107.542C219.322 106.875 218.792 106.084 218.43 105.213C218.068 104.343 217.882 103.409 217.882 102.467ZM225.078 25.8888C223.323 25.8893 221.64 26.5847 220.399 27.822C219.158 29.0593 218.461 30.7373 218.461 32.487V102.467C218.461 104.218 219.159 105.897 220.401 107.135C221.642 108.373 223.327 109.068 225.083 109.068H321.506C323.262 109.068 324.946 108.373 326.188 107.135C327.43 105.897 328.128 104.218 328.128 102.467V32.487C328.128 30.737 327.43 29.0588 326.189 27.8214C324.948 26.584 323.265 25.8888 321.509 25.8888H225.078Z" fill="#262626"/>
<path d="M218.171 32.486V38.3169H328.415V32.486C328.415 30.6598 327.688 28.9083 326.392 27.6169C325.097 26.3255 323.34 25.6 321.508 25.6H225.078C224.171 25.6 223.272 25.7782 222.434 26.1242C221.596 26.4703 220.835 26.9775 220.194 27.6169C219.552 28.2564 219.044 29.0155 218.697 29.8509C218.349 30.6864 218.171 31.5818 218.171 32.486Z" fill="#262626"/>
<path d="M242.705 106.191C242.644 106.191 242.585 106.167 242.542 106.123C242.498 106.08 242.474 106.022 242.474 105.961V40.4907C242.474 40.4296 242.498 40.371 242.542 40.3279C242.585 40.2847 242.644 40.2604 242.705 40.2604C242.766 40.2604 242.825 40.2847 242.868 40.3279C242.912 40.371 242.936 40.4296 242.936 40.4907V105.961C242.936 106.022 242.912 106.08 242.868 106.123C242.825 106.167 242.766 106.191 242.705 106.191Z" fill="#262626"/>
<path d="M320.064 36.1142C322.11 36.1142 323.77 34.4601 323.77 32.4197C323.77 30.3793 322.11 28.7253 320.064 28.7253C318.017 28.7253 316.358 30.3793 316.358 32.4197C316.358 34.4601 318.017 36.1142 320.064 36.1142Z" fill="white"/>
<path d="M232.141 43.3672H222.138C222.077 43.3672 222.018 43.343 221.975 43.2998C221.932 43.2566 221.907 43.198 221.907 43.1369C221.907 43.0759 221.932 43.0173 221.975 42.9741C222.018 42.9309 222.077 42.9067 222.138 42.9067H232.141C232.202 42.9067 232.261 42.9309 232.304 42.9741C232.347 43.0173 232.372 43.0759 232.372 43.1369C232.372 43.198 232.347 43.2566 232.304 43.2998C232.261 43.343 232.202 43.3672 232.141 43.3672Z" fill="#262626"/>
<path d="M229.127 47.9091H222.138C222.077 47.9091 222.018 47.8848 221.975 47.8416C221.932 47.7984 221.907 47.7399 221.907 47.6788C221.907 47.6177 221.932 47.5592 221.975 47.516C222.018 47.4728 222.077 47.4485 222.138 47.4485H229.127C229.188 47.4485 229.247 47.4728 229.291 47.516C229.334 47.5592 229.358 47.6177 229.358 47.6788C229.358 47.7399 229.334 47.7984 229.291 47.8416C229.247 47.8848 229.188 47.9091 229.127 47.9091Z" fill="#262626"/>
<path d="M235.274 52.4509H222.138C222.077 52.4509 222.018 52.4266 221.975 52.3835C221.932 52.3403 221.907 52.2817 221.907 52.2206C221.907 52.1596 221.932 52.101 221.975 52.0578C222.018 52.0146 222.077 51.9904 222.138 51.9904H235.274C235.335 51.9904 235.394 52.0146 235.437 52.0578C235.48 52.101 235.505 52.1596 235.505 52.2206C235.505 52.2817 235.48 52.3403 235.437 52.3835C235.394 52.4266 235.335 52.4509 235.274 52.4509Z" fill="#262626"/>
<path d="M237.725 56.9928H226.758C226.697 56.9928 226.638 56.9685 226.595 56.9253C226.551 56.8821 226.527 56.8236 226.527 56.7625C226.527 56.7014 226.551 56.6429 226.595 56.5997C226.638 56.5565 226.697 56.5322 226.758 56.5322H237.725C237.786 56.5322 237.845 56.5565 237.888 56.5997C237.931 56.6429 237.956 56.7014 237.956 56.7625C237.956 56.8236 237.931 56.8821 237.888 56.9253C237.845 56.9685 237.786 56.9928 237.725 56.9928Z" fill="#262626"/>
<path d="M232.421 61.5351H226.758C226.697 61.5351 226.638 61.5108 226.595 61.4676C226.551 61.4244 226.527 61.3659 226.527 61.3048C226.527 61.2437 226.551 61.1851 226.595 61.142C226.638 61.0988 226.697 61.0745 226.758 61.0745H232.421C232.483 61.0745 232.541 61.0988 232.585 61.142C232.628 61.1851 232.652 61.2437 232.652 61.3048C232.652 61.3659 232.628 61.4244 232.585 61.4676C232.541 61.5108 232.483 61.5351 232.421 61.5351Z" fill="#262626"/>
<path d="M236.76 66.0769H226.758C226.697 66.0769 226.638 66.0526 226.595 66.0095C226.551 65.9663 226.527 65.9077 226.527 65.8466C226.527 65.7856 226.551 65.727 226.595 65.6838C226.638 65.6406 226.697 65.6164 226.758 65.6164H236.76C236.822 65.6164 236.88 65.6406 236.924 65.6838C236.967 65.727 236.991 65.7856 236.991 65.8466C236.991 65.9077 236.967 65.9663 236.924 66.0095C236.88 66.0526 236.822 66.0769 236.76 66.0769Z" fill="#262626"/>
<path d="M229.851 70.6188H222.138C222.077 70.6188 222.018 70.5945 221.975 70.5513C221.932 70.5081 221.907 70.4496 221.907 70.3885C221.907 70.3274 221.932 70.2688 221.975 70.2256C222.018 70.1825 222.077 70.1582 222.138 70.1582H229.851C229.912 70.1582 229.971 70.1825 230.014 70.2256C230.057 70.2688 230.082 70.3274 230.082 70.3885C230.082 70.4496 230.057 70.5081 230.014 70.5513C229.971 70.5945 229.912 70.6188 229.851 70.6188Z" fill="#262626"/>
<path d="M227.199 75.1602H222.138C222.077 75.1602 222.018 75.1359 221.975 75.0927C221.932 75.0495 221.907 74.991 221.907 74.9299C221.907 74.8688 221.932 74.8102 221.975 74.7671C222.018 74.7239 222.077 74.6996 222.138 74.6996H227.199C227.261 74.6996 227.319 74.7239 227.363 74.7671C227.406 74.8102 227.43 74.8688 227.43 74.9299C227.43 74.991 227.406 75.0495 227.363 75.0927C227.319 75.1359 227.261 75.1602 227.199 75.1602Z" fill="#262626"/>
<path opacity="0.8" d="M254.85 93.9863H256.717C256.998 93.9863 257.226 93.7585 257.226 93.4775V80.1019C257.226 79.8209 256.998 79.5931 256.717 79.5931H254.85C254.569 79.5931 254.341 79.8209 254.341 80.1019V93.4775C254.341 93.7585 254.569 93.9863 254.85 93.9863Z" fill="#FADB26"/>
<path opacity="0.8" d="M292.881 93.9863H294.748C295.03 93.9863 295.257 93.7585 295.257 93.4775V59.9536C295.257 59.6726 295.03 59.4448 294.748 59.4448H292.881C292.6 59.4448 292.372 59.6726 292.372 59.9536V93.4775C292.372 93.7585 292.6 93.9863 292.881 93.9863Z" fill="#FADB26"/>
<path opacity="0.8" d="M305.559 93.9863H307.426C307.707 93.9863 307.935 93.7585 307.935 93.4775V59.9536C307.935 59.6726 307.707 59.4448 307.426 59.4448H305.559C305.278 59.4448 305.05 59.6726 305.05 59.9536V93.4775C305.05 93.7585 305.278 93.9863 305.559 93.9863Z" fill="#FADB26"/>
<path opacity="0.8" d="M267.527 93.9863H269.394C269.676 93.9863 269.903 93.7585 269.903 93.4775V68.7435C269.903 68.4625 269.676 68.2346 269.394 68.2346H267.527C267.246 68.2346 267.018 68.4625 267.018 68.7435V93.4775C267.018 93.7585 267.246 93.9863 267.527 93.9863Z" fill="#FADB26"/>
<path opacity="0.8" d="M280.204 93.9863H282.072C282.353 93.9863 282.581 93.7585 282.581 93.4775V73.5037C282.581 73.2227 282.353 72.9949 282.072 72.9949H280.204C279.923 72.9949 279.696 73.2227 279.696 73.5037V93.4775C279.696 93.7585 279.923 93.9863 280.204 93.9863Z" fill="#FADB26"/>
<path opacity="0.5" d="M257.735 93.9859H259.602C259.884 93.9859 260.111 93.7581 260.111 93.4771V54.0148C260.111 53.7338 259.884 53.506 259.602 53.506H257.735C257.454 53.506 257.226 53.7338 257.226 54.0148V93.4771C257.226 93.7581 257.454 93.9859 257.735 93.9859Z" fill="#FADB26"/>
<path opacity="0.5" d="M308.444 93.9859H310.311C310.592 93.9859 310.82 93.7581 310.82 93.4771V54.0148C310.82 53.7338 310.592 53.506 310.311 53.506H308.444C308.163 53.506 307.935 53.7338 307.935 54.0148V93.4771C307.935 93.7581 308.163 93.9859 308.444 93.9859Z" fill="#FADB26"/>
<path opacity="0.5" d="M295.766 93.9863H297.634C297.915 93.9863 298.143 93.7585 298.143 93.4775V68.7435C298.143 68.4625 297.915 68.2346 297.634 68.2346H295.766C295.485 68.2346 295.258 68.4625 295.258 68.7435V93.4775C295.258 93.7585 295.485 93.9863 295.766 93.9863Z" fill="#FADB26"/>
<path opacity="0.5" d="M283.09 93.9863H284.957C285.238 93.9863 285.466 93.7585 285.466 93.4775V80.9739C285.466 80.6929 285.238 80.4651 284.957 80.4651H283.09C282.809 80.4651 282.581 80.6929 282.581 80.9739V93.4775C282.581 93.7585 282.809 93.9863 283.09 93.9863Z" fill="#FADB26"/>
<path opacity="0.5" d="M270.412 93.9863H272.28C272.561 93.9863 272.789 93.7585 272.789 93.4775V65.7273C272.789 65.4463 272.561 65.2185 272.28 65.2185H270.412C270.131 65.2185 269.904 65.4463 269.904 65.7273V93.4775C269.904 93.7585 270.131 93.9863 270.412 93.9863Z" fill="#FADB26"/>
<path opacity="0.2" d="M311.329 93.9859H313.196C313.477 93.9859 313.705 93.7581 313.705 93.4771V65.5383C313.705 65.2573 313.477 65.0295 313.196 65.0295H311.329C311.048 65.0295 310.82 65.2573 310.82 65.5383V93.4771C310.82 93.7581 311.048 93.9859 311.329 93.9859Z" fill="#FADB26"/>
<path opacity="0.2" d="M298.652 93.9859H300.519C300.8 93.9859 301.028 93.7581 301.028 93.4771V76.3312C301.028 76.0502 300.8 75.8224 300.519 75.8224H298.652C298.371 75.8224 298.143 76.0502 298.143 76.3312V93.4771C298.143 93.7581 298.371 93.9859 298.652 93.9859Z" fill="#FADB26"/>
<path opacity="0.2" d="M285.974 93.9863H287.842C288.123 93.9863 288.351 93.7585 288.351 93.4775V68.5552C288.351 68.2742 288.123 68.0464 287.842 68.0464H285.974C285.693 68.0464 285.466 68.2742 285.466 68.5552V93.4775C285.466 93.7585 285.693 93.9863 285.974 93.9863Z" fill="#FADB26"/>
<path opacity="0.2" d="M273.297 93.9863H275.164C275.446 93.9863 275.673 93.7585 275.673 93.4775V68.5552C275.673 68.2742 275.446 68.0464 275.164 68.0464H273.297C273.016 68.0464 272.788 68.2742 272.788 68.5552V93.4775C272.788 93.7585 273.016 93.9863 273.297 93.9863Z" fill="#FADB26"/>
<path opacity="0.2" d="M260.62 93.9863H262.487C262.768 93.9863 262.996 93.7585 262.996 93.4775V55.7825C262.996 55.5014 262.768 55.2736 262.487 55.2736H260.62C260.339 55.2736 260.111 55.5014 260.111 55.7825V93.4775C260.111 93.7585 260.339 93.9863 260.62 93.9863Z" fill="#FADB26"/>
<path d="M319.619 94H249.381C249.28 94 249.183 93.9599 249.112 93.8886C249.04 93.8173 249 93.7206 249 93.6197V48.3803C249 48.2795 249.04 48.1827 249.112 48.1114C249.183 48.0401 249.28 48 249.381 48C249.483 48 249.58 48.0401 249.651 48.1114C249.723 48.1827 249.763 48.2795 249.763 48.3803V93.2394H319.619C319.72 93.2394 319.817 93.2795 319.888 93.3508C319.96 93.4221 320 93.5189 320 93.6197C320 93.7206 319.96 93.8173 319.888 93.8886C319.817 93.9599 319.72 94 319.619 94Z" fill="#262626"/>
<path d="M191.206 0H28.4917V162.214H191.206V0Z" fill="#F4F4F4"/>
<path d="M28.4914 0H26.6265V162.214H28.4914V0Z" fill="#F4F4F4"/>
<path opacity="0.05" d="M28.4914 0H26.6265V162.214H28.4914V0Z" fill="#262626"/>
<path opacity="0.05" d="M67.9096 111.779V69.338H102.782V93.9953H156.799V137.653H179.757V162.214H156.799H152.376H36.3188V111.779H67.9096Z" fill="#262626"/>
<path opacity="0.34" d="M98.3055 73.9462H72.9111V78.5543H98.3055V73.9462Z" fill="#FFFFFA"/>
<path opacity="0.34" d="M98.3056 83.495H72.9111V88.1031H98.3056V83.495Z" fill="#FFFFFA"/>
<path opacity="0.34" d="M98.3056 93.0438H72.9111V97.652H98.3056V93.0438Z" fill="#FFFFFA"/>
<path opacity="0.34" d="M45.5024 116.251H40.8218V120.86H45.5024V116.251Z" fill="#FFFFFA"/>
<path opacity="0.34" d="M45.5024 125.8H40.8218V130.408H45.5024V125.8Z" fill="#FFFFFA"/>
<path opacity="0.34" d="M45.5024 135.35H40.8218V139.958H45.5024V135.35Z" fill="#FFFFFA"/>
<path opacity="0.34" d="M54.1615 116.251H49.481V120.86H54.1615V116.251Z" fill="#FFFFFA"/>
<path opacity="0.34" d="M54.1615 125.8H49.481V130.408H54.1615V125.8Z" fill="#FFFFFA"/>
<path opacity="0.34" d="M54.1615 135.35H49.481V139.958H54.1615V135.35Z" fill="#FFFFFA"/>
<path opacity="0.34" d="M62.5868 116.251H57.9062V120.86H62.5868V116.251Z" fill="#FFFFFA"/>
<path opacity="0.34" d="M62.5868 125.8H57.9062V130.408H62.5868V125.8Z" fill="#FFFFFA"/>
<path opacity="0.34" d="M62.5868 135.35H57.9062V139.958H62.5868V135.35Z" fill="#FFFFFA"/>
<path d="M28.4917 80.1971H61.2327V0H63.9402V80.1971H152.377V0H155.084V80.1971H191.206V82.8963H155.084V162.214H152.377V82.8963H63.9402V162.214H61.2327V82.8963H28.4917V80.1971Z" fill="white"/>
<path d="M197.688 162.018H22.0098V167.413H197.688V162.018Z" fill="#F4F4F4"/>
<path opacity="0.1" d="M197.688 162.018H22.0098V167.413H197.688V162.018Z" fill="#262626"/>
<path opacity="0.1" d="M22.0098 162.018H19.4731V167.413H22.0098V162.018Z" fill="#262626"/>
<path opacity="0.1" d="M22.0098 162.018H19.4731V167.413H22.0098V162.018Z" fill="#262626"/>
<path d="M26.6266 6.90627L191.206 6.90627V2.89542L26.6266 2.89542V6.90627Z" fill="white"/>
<path d="M26.6266 14.3983L191.206 14.3983V10.3875L26.6266 10.3875V14.3983Z" fill="white"/>
<path d="M26.6266 21.8899L191.206 21.8899V17.8791L26.6266 17.8791V21.8899Z" fill="white"/>
<path d="M26.6266 29.3815L191.206 29.3815V25.3707L26.6266 25.3707V29.3815Z" fill="white"/>
<path d="M26.6266 36.8727L191.206 36.8727V32.8618L26.6266 32.8618V36.8727Z" fill="white"/>
<path d="M44.1068 41.3966H46.5732L46.5732 7.62939e-06H44.1068L44.1068 41.3966Z" fill="white"/>
<path d="M45.1307 47.3417C47.0021 47.3417 48.5191 45.8293 48.5191 43.9636C48.5191 42.098 47.0021 40.5856 45.1307 40.5856C43.2593 40.5856 41.7422 42.098 41.7422 43.9636C41.7422 45.8293 43.2593 47.3417 45.1307 47.3417Z" fill="white"/>
<path d="M28.0631 387.69L27.1558 387.516L41.3361 247.037L42.2434 247.211L28.0631 387.69Z" fill="#494949"/>
<path d="M80.8643 387.69L79.957 387.516L94.1369 247.037L95.0442 247.211L80.8643 387.69Z" fill="#494949"/>
<path d="M197.578 387.69L198.485 387.516L184.305 247.037L183.397 247.211L197.578 387.69Z" fill="#494949"/>
<path d="M144.777 387.69L145.684 387.516L131.504 247.037L130.597 247.211L144.777 387.69Z" fill="#494949"/>
<path d="M125.971 185.212L125.056 185.334L133.339 247.186L134.255 247.064L125.971 185.212Z" fill="#494949"/>
<path d="M30.8889 185.211L29.9731 185.333L38.257 247.185L39.1728 247.063L30.8889 185.211Z" fill="#494949"/>
<path d="M134.176 242.595H41.1738C38.6645 242.595 36.6304 244.622 36.6304 247.124V247.124C36.6304 249.626 38.6645 251.654 41.1738 251.654H134.176C136.685 251.654 138.719 249.626 138.719 247.124V247.124C138.719 244.622 136.685 242.595 134.176 242.595Z" fill="#262626"/>
<path opacity="0.8" d="M134.176 242.595H41.1738C38.6645 242.595 36.6304 244.622 36.6304 247.124V247.124C36.6304 249.626 38.6645 251.654 41.1738 251.654H134.176C136.685 251.654 138.719 249.626 138.719 247.124V247.124C138.719 244.622 136.685 242.595 134.176 242.595Z" fill="white"/>
<path d="M134.176 252.114H41.1743C40.517 252.114 39.8661 251.985 39.2588 251.734C38.6516 251.483 38.0998 251.116 37.635 250.652C37.1702 250.189 36.8015 249.639 36.55 249.034C36.2984 248.428 36.1689 247.779 36.1689 247.124C36.1689 246.469 36.2984 245.82 36.55 245.214C36.8015 244.609 37.1702 244.059 37.635 243.596C38.0998 243.132 38.6516 242.765 39.2588 242.514C39.8661 242.263 40.517 242.134 41.1743 242.134H134.176C134.833 242.134 135.484 242.263 136.091 242.514C136.698 242.765 137.25 243.132 137.715 243.596C138.18 244.059 138.548 244.609 138.8 245.214C139.052 245.82 139.181 246.469 139.181 247.124C139.181 247.779 139.052 248.428 138.8 249.034C138.548 249.639 138.18 250.189 137.715 250.652C137.25 251.116 136.698 251.483 136.091 251.734C135.484 251.985 134.833 252.114 134.176 252.114ZM41.1743 243.055C40.6383 243.055 40.1076 243.16 39.6124 243.365C39.1172 243.569 38.6673 243.869 38.2883 244.247C37.9093 244.625 37.6087 245.073 37.4035 245.567C37.1984 246.061 37.0929 246.59 37.0929 247.124C37.0929 247.658 37.1984 248.187 37.4035 248.681C37.6087 249.175 37.9093 249.623 38.2883 250.001C38.6673 250.379 39.1172 250.679 39.6124 250.883C40.1076 251.088 40.6383 251.193 41.1743 251.193H134.176C134.712 251.193 135.242 251.088 135.738 250.883C136.233 250.679 136.683 250.379 137.062 250.001C137.441 249.623 137.741 249.175 137.946 248.681C138.152 248.187 138.257 247.658 138.257 247.124C138.257 246.59 138.152 246.061 137.946 245.567C137.741 245.073 137.441 244.625 137.062 244.247C136.683 243.869 136.233 243.569 135.738 243.365C135.242 243.16 134.712 243.055 134.176 243.055H41.1743Z" fill="#262626"/>
<path d="M185.22 242.595H92.2182C89.7089 242.595 87.6748 244.622 87.6748 247.124V247.124C87.6748 249.626 89.7089 251.654 92.2182 251.654H185.22C187.729 251.654 189.763 249.626 189.763 247.124V247.124C189.763 244.622 187.729 242.595 185.22 242.595Z" fill="white"/>
<path d="M185.22 252.114H92.2182C91.5609 252.114 90.91 251.985 90.3028 251.734C89.6955 251.483 89.1437 251.116 88.6789 250.652C88.2141 250.189 87.8454 249.639 87.5939 249.034C87.3424 248.428 87.2129 247.779 87.2129 247.124C87.2129 246.469 87.3424 245.82 87.5939 245.214C87.8454 244.609 88.2141 244.059 88.6789 243.596C89.1437 243.132 89.6955 242.765 90.3028 242.514C90.91 242.263 91.5609 242.134 92.2182 242.134H185.22C185.877 242.134 186.528 242.263 187.136 242.514C187.743 242.765 188.295 243.132 188.759 243.596C189.224 244.059 189.593 244.609 189.844 245.214C190.096 245.82 190.225 246.469 190.225 247.124C190.225 247.779 190.096 248.428 189.844 249.034C189.593 249.639 189.224 250.189 188.759 250.652C188.295 251.116 187.743 251.483 187.136 251.734C186.528 251.985 185.877 252.114 185.22 252.114ZM92.2182 243.055C91.6822 243.055 91.1515 243.16 90.6563 243.365C90.1612 243.569 89.7112 243.869 89.3322 244.247C88.9532 244.625 88.6526 245.073 88.4475 245.567C88.2424 246.061 88.1368 246.59 88.1368 247.124C88.1368 247.658 88.2424 248.187 88.4475 248.681C88.6526 249.175 88.9532 249.623 89.3322 250.001C89.7112 250.379 90.1612 250.679 90.6563 250.883C91.1515 251.088 91.6822 251.193 92.2182 251.193H185.22C185.756 251.193 186.287 251.088 186.782 250.883C187.277 250.679 187.727 250.379 188.106 250.001C188.485 249.623 188.786 249.175 188.991 248.681C189.196 248.187 189.302 247.658 189.302 247.124C189.302 246.59 189.196 246.061 188.991 245.567C188.786 245.073 188.485 244.625 188.106 244.247C187.727 243.869 187.277 243.569 186.782 243.365C186.287 243.16 185.756 243.055 185.22 243.055H92.2182Z" fill="#262626"/>
<path d="M120.877 185.272H30.6803C29.2056 185.271 27.7813 184.736 26.6732 183.766C25.5652 182.796 24.8491 181.457 24.6586 179.999L18.6924 134.323C18.5809 133.47 18.6534 132.602 18.9051 131.778C19.1567 130.954 19.5817 130.194 20.1517 129.547C20.7217 128.9 21.4236 128.382 22.2105 128.027C22.9975 127.672 23.8513 127.488 24.715 127.488H114.91C116.385 127.488 117.809 128.023 118.917 128.993C120.026 129.963 120.742 131.302 120.932 132.76L126.898 178.436C127.009 179.29 126.937 180.158 126.686 180.981C126.434 181.805 126.009 182.566 125.439 183.213C124.869 183.86 124.168 184.378 123.381 184.733C122.594 185.088 121.74 185.272 120.877 185.272Z" fill="#262626"/>
<path opacity="0.8" d="M120.877 185.272H30.6803C29.2056 185.271 27.7813 184.736 26.6732 183.766C25.5652 182.796 24.8491 181.457 24.6586 179.999L18.6924 134.323C18.5809 133.47 18.6534 132.602 18.9051 131.778C19.1567 130.954 19.5817 130.194 20.1517 129.547C20.7217 128.9 21.4236 128.382 22.2105 128.027C22.9975 127.672 23.8513 127.488 24.715 127.488H114.91C116.385 127.488 117.809 128.023 118.917 128.993C120.026 129.963 120.742 131.302 120.932 132.76L126.898 178.436C127.009 179.29 126.937 180.158 126.686 180.981C126.434 181.805 126.009 182.566 125.439 183.213C124.869 183.86 124.168 184.378 123.381 184.733C122.594 185.088 121.74 185.272 120.877 185.272Z" fill="white"/>
<path d="M120.877 185.732H30.6802C29.0942 185.729 27.5634 185.152 26.3718 184.108C25.1801 183.065 24.4086 181.626 24.2002 180.059L18.2345 134.383C18.1144 133.464 18.1923 132.53 18.463 131.644C18.7337 130.757 19.191 129.939 19.8043 129.242C20.4177 128.546 21.173 127.989 22.0198 127.606C22.8666 127.224 23.7854 127.027 24.7149 127.027H114.91C116.496 127.031 118.027 127.608 119.219 128.651C120.41 129.694 121.182 131.133 121.39 132.7L127.356 178.377C127.476 179.296 127.398 180.229 127.127 181.116C126.857 182.002 126.4 182.82 125.786 183.517C125.173 184.213 124.418 184.77 123.571 185.153C122.725 185.535 121.806 185.732 120.877 185.732ZM24.7149 127.948C23.9169 127.948 23.1282 128.118 22.4013 128.446C21.6743 128.774 21.026 129.253 20.4994 129.851C19.9729 130.448 19.5803 131.151 19.3478 131.912C19.1154 132.673 19.0485 133.475 19.1515 134.264L25.1177 179.94C25.2964 181.286 25.9588 182.521 26.9819 183.417C28.005 184.313 29.3194 184.808 30.6811 184.811H120.877C121.674 184.811 122.463 184.641 123.19 184.313C123.916 183.985 124.565 183.506 125.091 182.908C125.617 182.31 126.01 181.608 126.242 180.847C126.475 180.086 126.542 179.284 126.439 178.496L120.474 132.82C120.295 131.474 119.633 130.239 118.609 129.343C117.586 128.447 116.272 127.952 114.91 127.949L24.7149 127.948Z" fill="#262626"/>
<path d="M125.977 185.272H35.7803C34.3057 185.271 32.8814 184.736 31.7735 183.766C30.6655 182.796 29.9495 181.457 29.7591 179.999L23.7911 134.323C23.6796 133.47 23.752 132.602 24.0036 131.778C24.2552 130.955 24.6802 130.194 25.2501 129.547C25.82 128.9 26.5217 128.382 27.3085 128.027C28.0953 127.672 28.9491 127.488 29.8127 127.488H120.011C121.486 127.488 122.91 128.023 124.018 128.993C125.126 129.963 125.842 131.302 126.032 132.76L131.998 178.436C132.11 179.29 132.037 180.158 131.786 180.981C131.534 181.805 131.109 182.566 130.539 183.213C129.969 183.86 129.268 184.378 128.481 184.733C127.694 185.088 126.84 185.272 125.977 185.272Z" fill="white"/>
<path d="M125.977 185.732H35.7801C34.1942 185.729 32.6635 185.152 31.4719 184.108C30.2804 183.065 29.5089 181.626 29.3007 180.059L23.3345 134.383C23.2145 133.464 23.2925 132.53 23.5632 131.644C23.834 130.758 24.2912 129.939 24.9045 129.243C25.5178 128.547 26.273 127.989 27.1196 127.607C27.9663 127.225 28.885 127.027 29.8144 127.027H120.01C121.596 127.031 123.127 127.608 124.319 128.651C125.51 129.694 126.282 131.133 126.49 132.7L132.456 178.377C132.576 179.296 132.498 180.229 132.228 181.116C131.957 182.002 131.499 182.82 130.886 183.516C130.273 184.213 129.518 184.77 128.671 185.152C127.825 185.534 126.906 185.732 125.977 185.732ZM29.8144 127.948C29.0166 127.949 28.228 128.118 27.5013 128.447C26.7746 128.775 26.1265 129.254 25.6002 129.852C25.0738 130.449 24.6814 131.152 24.4491 131.913C24.2167 132.674 24.1498 133.475 24.2528 134.264L30.2167 179.94C30.3957 181.286 31.0581 182.521 32.0812 183.417C33.1042 184.312 34.4185 184.808 35.7801 184.811H125.977C126.774 184.811 127.563 184.641 128.29 184.313C129.017 183.985 129.665 183.506 130.192 182.909C130.719 182.311 131.111 181.608 131.344 180.847C131.576 180.086 131.643 179.285 131.54 178.496L125.574 132.82C125.395 131.474 124.733 130.239 123.709 129.343C122.686 128.447 121.372 127.952 120.01 127.949L29.8144 127.948Z" fill="#262626"/>
<path d="M196.089 195.701L195.169 195.793L214.644 387.999L215.564 387.907L196.089 195.701Z" fill="#494949"/>
<path d="M116.256 57.3663C116.256 57.3663 122.25 52.8562 123.735 42.4747C124.885 34.4369 117.447 39.6442 117.447 39.6442C117.447 39.6442 118.219 33.8483 113.983 34.4235C109.746 34.9988 107.376 41.0871 107.376 41.0871" fill="#0C0C0C"/>
<path d="M92.0908 35.1019C92.0908 35.1019 71.0739 37.3498 78.6718 65.7393L80.5316 65.8637L84.3068 66.1161" fill="#0C0C0C"/>
<path d="M112.736 95.3898C112.644 95.3779 111.618 112.338 91.8528 110.861C78.1695 109.839 73.2907 95.3659 72.9771 95.3659C74.4526 95.0536 76.2755 94.5788 77.0003 94.4162C78.5794 94.0508 80.0094 93.2147 81.1002 92.0192C82.1909 90.8237 82.8907 89.3254 83.1065 87.7237C83.507 85.3197 82.8293 73.0195 83.0367 70.587L104.041 75.2605C103.747 80.3983 101.693 92.3084 108.891 94.4162C110.091 94.7649 111.381 95.0854 112.736 95.3898Z" fill="#E5BB98"/>
<path opacity="0.52" d="M104.336 89.5488C104.007 88.4917 103.795 87.4019 103.704 86.2988C103.473 83.7817 103.52 81.247 103.842 78.7399C99.5732 78.1656 95.5513 76.4091 92.2336 73.6699C91.8437 75.1058 89.6989 81.3802 90.2934 82.7448C91.4137 85.3248 96.6879 89.5488 104.336 89.5488Z" fill="#0C0C0C"/>
<path d="M100.001 86.1919C91.714 85.4509 81.7962 80.2316 81.6534 69.0179L81.5241 58.8999C81.3813 47.6866 87.1729 38.5214 97.7638 38.3869C108.354 38.2529 116.386 47.2427 116.529 58.4564L116.586 62.9356C116.579 64.4739 116.467 66.01 116.25 67.5331C115.706 71.5629 114.864 77.6894 112.121 81.8338C109.53 85.7466 105.294 86.6649 100.001 86.1919Z" fill="#E5BB98"/>
<path d="M103.845 75.9431C105.555 76.0203 107.259 75.6958 108.82 74.9957C108.853 74.982 108.882 74.9621 108.907 74.9371C108.931 74.9121 108.95 74.8825 108.964 74.8501C108.977 74.8176 108.983 74.7829 108.983 74.7479C108.982 74.7129 108.975 74.6784 108.961 74.6462C108.948 74.614 108.928 74.5849 108.903 74.5604C108.877 74.5359 108.848 74.5166 108.815 74.5036C108.783 74.4905 108.748 74.484 108.713 74.4844C108.678 74.4847 108.643 74.492 108.611 74.5057C105.248 75.9357 102.194 75.7262 99.7795 73.9001C99.7308 73.8616 99.6801 73.8257 99.6275 73.7928C99.5668 73.7648 99.4978 73.7604 99.4341 73.7806C99.3703 73.8008 99.3165 73.844 99.2832 73.9018C99.2498 73.9596 99.2394 74.0278 99.254 74.0928C99.2686 74.1579 99.307 74.2152 99.3619 74.2533C99.3813 74.2653 99.4122 74.2897 99.4543 74.3233C100.724 75.2869 102.252 75.8509 103.845 75.9431Z" fill="#0C0C0C"/>
<path d="M103.766 78.4682C104.074 78.4872 104.385 78.4798 104.692 78.4461C104.763 78.4387 104.827 78.4036 104.872 78.3487C104.916 78.2938 104.937 78.2234 104.93 78.1532C104.922 78.083 104.887 78.0186 104.832 77.9742C104.777 77.9298 104.706 77.909 104.636 77.9165C102.785 78.1127 101.902 77.2671 101.864 77.2307C101.814 77.1807 101.746 77.1526 101.675 77.1525C101.604 77.1524 101.536 77.1804 101.486 77.2303C101.436 77.2802 101.408 77.3479 101.408 77.4186C101.408 77.4892 101.436 77.557 101.486 77.607C102.123 78.148 102.929 78.4523 103.766 78.4682Z" fill="#0C0C0C"/>
<path d="M113.032 65.0918C113.752 65.0918 114.336 64.5095 114.336 63.7913C114.336 63.073 113.752 62.4907 113.032 62.4907C112.311 62.4907 111.727 63.073 111.727 63.7913C111.727 64.5095 112.311 65.0918 113.032 65.0918Z" fill="#0C0C0C"/>
<path d="M100.287 64.2946C101.008 64.2946 101.592 63.7123 101.592 62.994C101.592 62.2758 101.008 61.6935 100.287 61.6935C99.5665 61.6935 98.9824 62.2758 98.9824 62.994C98.9824 63.7123 99.5665 64.2946 100.287 64.2946Z" fill="#0C0C0C"/>
<path d="M82.355 72.4259C79.1365 72.4669 76.4839 69.0672 76.4419 65.8586C76.3999 62.65 78.9873 60.8475 82.2058 60.8069L83.8915 62.9356L85.1212 72.3909L82.355 72.4259Z" fill="#E5BB98"/>
<path d="M85.5549 67.2702C85.5549 67.2702 86.6418 51.4032 91.4679 50.4232C94.6823 49.7706 102.477 54.3161 109.696 52.9432C112.855 52.3445 115.854 53.1219 116.159 54.6095C116.279 55.1985 118.247 46.7342 113.301 40.3125C109.363 35.1982 96.4751 33.7544 90.6119 35.4307C74.3773 40.0739 81.5413 61.5051 81.5413 61.5051L82.2652 66.9754L85.5549 67.2702Z" fill="#0C0C0C"/>
<path d="M105.789 72.1975H105.81C106.847 72.1869 108.585 72.0543 108.578 71.2806C108.571 70.6395 106.742 63.7392 106.533 62.9545C106.513 62.8893 106.468 62.8344 106.408 62.8013C106.349 62.7682 106.278 62.7595 106.212 62.7769C106.146 62.7944 106.089 62.8367 106.054 62.895C106.018 62.9532 106.007 63.0229 106.022 63.0894C106.835 66.1456 108.045 70.8504 108.05 71.287C107.95 71.4712 106.879 71.661 105.804 71.672C105.737 71.6735 105.672 71.7008 105.624 71.7484C105.576 71.7959 105.548 71.8601 105.546 71.9276C105.544 71.9951 105.568 72.0608 105.613 72.1111C105.658 72.1614 105.721 72.1925 105.789 72.198V72.1975Z" fill="#0C0C0C"/>
<path d="M109.329 56.7385C110.419 56.4394 111.57 56.4394 112.66 56.7385C113.195 56.882 113.706 57.1049 114.175 57.3999C114.639 57.6886 115.064 58.0346 115.44 58.4297C115.512 58.4993 115.554 58.5944 115.557 58.6946C115.56 58.7947 115.523 58.8919 115.455 58.9654C115.386 59.0388 115.292 59.0827 115.192 59.0876C115.091 59.0925 114.993 59.058 114.918 58.9915L114.894 58.9712C114.545 58.6495 114.157 58.3727 113.739 58.1473C113.329 57.9234 112.887 57.7625 112.429 57.6702C111.526 57.4815 110.59 57.5338 109.714 57.8217L109.677 57.8346C109.532 57.8856 109.373 57.8772 109.235 57.8113C109.097 57.7455 108.99 57.6275 108.939 57.4835C108.888 57.3394 108.897 57.181 108.963 57.0431C109.029 56.9052 109.147 56.7992 109.292 56.7482L109.329 56.7385Z" fill="#0C0C0C"/>
<path d="M101.611 57.3921C100.781 56.9903 99.8602 56.8141 98.9406 56.8813C98.4738 56.9116 98.0143 57.0122 97.5778 57.1798C97.134 57.3478 96.7131 57.5705 96.325 57.8429L96.3 57.8595C96.2167 57.9128 96.116 57.932 96.0188 57.9131C95.9217 57.8943 95.8355 57.8388 95.7783 57.7583C95.7211 57.6778 95.6972 57.5784 95.7116 57.4808C95.726 57.3831 95.7776 57.2948 95.8556 57.2341C96.2817 56.8925 96.7494 56.6059 97.2475 56.3812C97.7518 56.1516 98.2878 55.9985 98.8376 55.9271C99.9579 55.7748 101.099 55.9272 102.139 56.3683C102.28 56.4294 102.391 56.5437 102.447 56.6862C102.504 56.8287 102.501 56.9877 102.439 57.1282C102.378 57.2686 102.263 57.3791 102.121 57.4352C101.978 57.4914 101.818 57.4886 101.677 57.4275L101.645 57.4123L101.611 57.3921Z" fill="#0C0C0C"/>
<path d="M107.778 45.8164C110.16 45.3202 111.498 42.0842 110.765 38.5886C110.032 35.093 107.507 32.6616 105.125 33.1578C102.743 33.654 101.405 36.8899 102.138 40.3855C102.871 43.8811 105.396 46.3126 107.778 45.8164Z" fill="#0C0C0C"/>
<path d="M240.645 363.707C240.645 363.707 243.122 376.506 255.143 377.22C267.164 377.933 264.558 387.48 264.558 387.48H218.619V364.599L240.645 363.707Z" fill="#69696C"/>
<path d="M153.247 355.625C153.247 355.625 149.802 368.2 160.274 374.13C170.745 380.06 164.178 387.48 164.178 387.48L122.957 367.263L133.088 346.731L153.247 355.625Z" fill="#69696C"/>
<path d="M127.716 352.073L162.478 242.745H99.467C86.8092 242.745 81.5327 232.045 81.5327 219.427C81.5327 206.809 93.9761 195.748 106.633 195.748H191.675C199.395 195.748 208.051 200.454 212.288 206.888C216.525 213.322 215.38 223.291 212.31 230.353L156.644 365.137" fill="#262626"/>
<path opacity="0.8" d="M127.716 352.073L162.478 242.745H99.467C86.8092 242.745 81.5327 232.045 81.5327 219.427C81.5327 206.809 93.9761 195.748 106.633 195.748H191.675C199.395 195.748 208.051 200.454 212.288 206.888C216.525 213.322 215.38 223.291 212.31 230.353L156.644 365.137" fill="#0A0A0A"/>
<path d="M215.977 375.593L157.852 242.745L81.5319 242.74C63.649 241.342 55.4589 231.572 55.7194 218.957C55.9762 206.502 62.3023 194.199 74.7397 194.199H177.605C186.808 194.388 194.047 204.526 197.461 213.047L245.782 367.46" fill="#262626"/>
<path d="M50.5138 194.352C50.5138 194.352 47.1244 216.387 52.497 228.637C59.2042 243.932 84.3478 242.74 84.3478 242.74L82.931 194.199L50.5138 194.352Z" fill="#262626"/>
<path d="M199.648 193.918L145.737 182.781C143.491 182.317 141.398 181.296 139.653 179.812C137.907 178.327 136.566 176.428 135.752 174.29L114.548 118.586C113.902 116.915 113.594 115.132 113.641 113.341C113.689 111.551 114.091 109.787 114.824 108.151C115.557 106.516 116.607 105.041 117.914 103.811C119.22 102.581 120.758 101.621 122.438 100.985C124.118 100.35 125.907 100.051 127.703 100.107C129.499 100.163 131.267 100.572 132.904 101.311C134.541 102.05 136.015 103.104 137.242 104.412C138.47 105.721 139.425 107.258 140.055 108.936L158.603 157.661L205.185 167.284C205.185 167.284 200.583 194.111 199.648 193.918Z" fill="#FADB26"/>
<path d="M137.295 132.732C136.672 140.024 132.259 185.514 131.659 194.496H50.5495C50.0834 186.395 48.5704 152.004 46.803 136.163C45.1164 121.047 44.5043 112.422 46.4473 107.724C49.8741 99.4394 58.4495 96.4583 65.8362 95.4612C70.3463 94.8529 77.1302 94.4163 77.1302 94.4163C77.1302 94.4163 77.7049 106 91.4011 106.645C110.045 107.52 108.8 94.4163 108.893 94.4163C111.913 94.4163 128.354 96.6061 132.465 99.2773C138.272 103.05 139.988 108.192 140.056 112.916C140.134 118.355 138 124.462 137.295 132.732Z" fill="#FADB26"/>
<path d="M134.107 169.903H134.087C134.057 169.9 134.028 169.892 134.001 169.878C133.974 169.864 133.95 169.845 133.93 169.822C133.911 169.799 133.896 169.772 133.886 169.744C133.877 169.715 133.874 169.684 133.876 169.654L135.982 144.438C135.984 144.407 135.992 144.378 136.005 144.35C136.019 144.323 136.038 144.299 136.061 144.279C136.084 144.26 136.111 144.245 136.141 144.236C136.17 144.227 136.201 144.224 136.231 144.227C136.261 144.23 136.291 144.238 136.318 144.252C136.345 144.266 136.369 144.285 136.388 144.308C136.408 144.331 136.423 144.358 136.432 144.387C136.441 144.416 136.445 144.446 136.442 144.476L134.336 169.692C134.331 169.75 134.305 169.803 134.263 169.842C134.22 169.881 134.165 169.903 134.107 169.903Z" fill="#0C0C0C"/>
<path d="M172.736 185.037L190.533 130.498C190.845 129.54 191.454 128.705 192.272 128.112C193.09 127.52 194.075 127.201 195.086 127.201H272.211C272.967 127.201 273.712 127.379 274.386 127.722C275.059 128.064 275.642 128.56 276.086 129.17C276.53 129.779 276.823 130.485 276.941 131.229C277.059 131.974 276.999 132.735 276.765 133.452L254.349 187.993C254.036 188.951 253.427 189.786 252.609 190.378C251.791 190.97 250.806 191.289 249.795 191.29H177.29C176.534 191.29 175.788 191.111 175.115 190.769C174.441 190.427 173.858 189.93 173.414 189.321C172.97 188.711 172.677 188.005 172.559 187.26C172.441 186.516 172.502 185.754 172.736 185.037Z" fill="#262626"/>
<path d="M172.736 185.037L190.533 130.498C190.845 129.54 191.454 128.705 192.272 128.112C193.09 127.52 194.075 127.201 195.086 127.201H272.211C272.967 127.201 273.712 127.379 274.386 127.722C275.059 128.064 275.642 128.56 276.086 129.17C276.53 129.779 276.823 130.485 276.941 131.229C277.059 131.974 276.999 132.735 276.765 133.452L254.349 187.993C254.036 188.951 253.427 189.786 252.609 190.378C251.791 190.97 250.806 191.289 249.795 191.29H177.29C176.534 191.29 175.788 191.111 175.115 190.769C174.441 190.427 173.858 189.93 173.414 189.321C172.97 188.711 172.677 188.005 172.559 187.26C172.441 186.516 172.502 185.754 172.736 185.037Z" fill="#262626"/>
<path d="M187.253 186.865H138.718C137.509 186.865 136.528 187.842 136.528 189.048V189.104C136.528 190.31 137.509 191.287 138.718 191.287H187.253C188.463 191.287 189.443 190.31 189.443 189.104V189.048C189.443 187.842 188.463 186.865 187.253 186.865Z" fill="#262626"/>
<path d="M187.253 186.865H138.718C137.509 186.865 136.528 187.842 136.528 189.048V189.104C136.528 190.31 137.509 191.287 138.718 191.287H187.253C188.463 191.287 189.443 190.31 189.443 189.104V189.048C189.443 187.842 188.463 186.865 187.253 186.865Z" fill="#262626"/>
<path d="M227.96 169.903C232.16 169.903 235.564 166.509 235.564 162.322C235.564 158.136 232.16 154.741 227.96 154.741C223.76 154.741 220.355 158.136 220.355 162.322C220.355 166.509 223.76 169.903 227.96 169.903Z" fill="white"/>
<path d="M168.679 172.261L156.566 168.029L158.305 167.909C158.865 167.859 159.386 167.599 159.762 167.181C160.137 166.763 160.34 166.219 160.328 165.658C160.312 165.368 160.237 165.085 160.108 164.826C159.978 164.567 159.797 164.336 159.575 164.149C159.354 163.962 159.096 163.821 158.818 163.736C158.54 163.652 158.248 163.624 157.959 163.656L136.528 165.926L137.083 172.792C137.256 174.924 138.063 176.957 139.403 178.628C140.742 180.3 142.551 181.535 144.599 182.175L153.88 185.057C154.359 185.216 154.879 185.205 155.351 185.026C155.823 184.847 156.219 184.511 156.471 184.075C156.69 183.676 156.775 183.218 156.715 182.767C156.654 182.316 156.451 181.896 156.134 181.569C156.155 181.554 156.172 181.536 156.185 181.514C156.198 181.493 156.207 181.469 156.21 181.444C156.214 181.419 156.212 181.394 156.206 181.37C156.199 181.346 156.188 181.323 156.172 181.304L157.881 181.838C158.415 182.017 158.996 181.987 159.508 181.754C160.02 181.522 160.425 181.104 160.64 180.586C160.816 180.115 160.819 179.598 160.65 179.126C160.481 178.653 160.15 178.255 159.716 178.002C159.736 177.991 159.754 177.976 159.769 177.959L160.472 178.179C160.951 178.338 161.471 178.327 161.943 178.148C162.415 177.969 162.811 177.633 163.063 177.196C163.329 176.712 163.396 176.145 163.251 175.613C163.107 175.08 162.761 174.625 162.287 174.341C162.291 174.327 162.293 174.312 162.293 174.297L167.338 176.06C167.589 176.15 167.855 176.19 168.121 176.178C168.388 176.165 168.649 176.1 168.89 175.986C169.131 175.871 169.347 175.711 169.525 175.513C169.703 175.315 169.841 175.085 169.929 174.834C170.017 174.583 170.054 174.317 170.039 174.051C170.023 173.786 169.955 173.526 169.838 173.287C169.722 173.048 169.558 172.835 169.358 172.659C169.158 172.483 168.925 172.349 168.672 172.263L168.679 172.261Z" fill="#E5BB98"/>
<path opacity="0.2" d="M162.102 174.492C162.079 174.492 162.055 174.488 162.033 174.48L157.154 172.711C157.104 172.693 157.063 172.656 157.041 172.607C157.018 172.559 157.016 172.504 157.034 172.454C157.053 172.404 157.09 172.363 157.139 172.341C157.187 172.319 157.242 172.316 157.293 172.335L162.172 174.104C162.217 174.12 162.254 174.151 162.278 174.192C162.301 174.232 162.31 174.28 162.302 174.327C162.293 174.373 162.269 174.415 162.233 174.445C162.196 174.476 162.151 174.492 162.103 174.492H162.102Z" fill="#0A0A0A"/>
<path opacity="0.2" d="M159.635 178.029C159.612 178.029 159.589 178.025 159.567 178.017L155.721 176.657C155.696 176.648 155.672 176.635 155.652 176.618C155.632 176.6 155.615 176.579 155.604 176.555C155.592 176.531 155.585 176.505 155.583 176.478C155.582 176.451 155.586 176.425 155.595 176.4C155.603 176.374 155.617 176.351 155.635 176.332C155.653 176.312 155.675 176.296 155.699 176.285C155.724 176.273 155.75 176.267 155.777 176.266C155.804 176.265 155.83 176.27 155.855 176.279L159.702 177.64C159.746 177.655 159.784 177.686 159.808 177.727C159.832 177.768 159.841 177.816 159.833 177.862C159.825 177.909 159.8 177.951 159.764 177.981C159.728 178.012 159.682 178.029 159.635 178.029Z" fill="#0A0A0A"/>
<path opacity="0.2" d="M156.013 181.618C155.988 181.617 155.964 181.613 155.941 181.604L154.139 180.92C154.09 180.901 154.049 180.863 154.028 180.814C154.006 180.765 154.004 180.71 154.024 180.661C154.043 180.611 154.081 180.571 154.129 180.549C154.178 180.528 154.233 180.526 154.283 180.545L156.085 181.23C156.129 181.246 156.166 181.278 156.189 181.319C156.212 181.36 156.22 181.407 156.211 181.454C156.203 181.5 156.178 181.542 156.142 181.572C156.106 181.601 156.06 181.618 156.013 181.618H156.013Z" fill="#0A0A0A"/>
<path d="M146.014 161.863L95.198 161.829L75.974 115.078L47.2964 127.098L71.2805 182.584L71.5147 183.137C72.6881 185.833 74.6647 188.106 77.1767 189.645C79.6886 191.185 82.6146 191.918 85.5583 191.744L146.781 188.139L146.014 161.863Z" fill="#FADB26"/>
<path d="M84.7171 191.999C81.8683 191.994 79.0827 191.162 76.7006 189.604C74.3186 188.047 72.4433 185.831 71.3041 183.228L71.0694 182.675L50.6309 135.399L51.0549 135.215L71.7277 183.047C72.8877 185.696 74.8337 187.928 77.3039 189.442C79.774 190.955 82.65 191.679 85.5449 191.515L146.544 187.922L145.788 162.094L95.0424 162.06L80.2596 126.113L80.6874 125.939L95.3514 161.599L146.236 161.634L147.018 188.356L146.794 188.369L85.5736 191.974C85.2876 191.991 85.0007 191.999 84.7171 191.999Z" fill="#0C0C0C"/>
<path d="M28.196 195.703L8.70752 387.908L9.62676 388.001L29.1152 195.796L28.196 195.703Z" fill="#494949"/>
<path d="M108.715 195.703L89.2266 387.908L90.1458 388.001L109.634 195.796L108.715 195.703Z" fill="#494949"/>
<path d="M276.608 195.7L275.688 195.793L295.163 387.999L296.083 387.907L276.608 195.7Z" fill="#494949"/>
<path d="M294.169 191.974H11.9098C9.81925 191.974 8.12451 193.663 8.12451 195.747C8.12451 197.831 9.81925 199.521 11.9098 199.521H294.169C296.26 199.521 297.954 197.831 297.954 195.747C297.954 193.663 296.26 191.974 294.169 191.974Z" fill="#262626"/>
<path opacity="0.8" d="M294.169 191.974H11.9098C9.81925 191.974 8.12451 193.663 8.12451 195.747C8.12451 197.831 9.81925 199.521 11.9098 199.521H294.169C296.26 199.521 297.954 197.831 297.954 195.747C297.954 193.663 296.26 191.974 294.169 191.974Z" fill="white"/>
<path d="M294.17 199.981H11.9117C11.3502 199.987 10.7932 199.882 10.2728 199.672C9.75236 199.462 9.27891 199.151 8.87981 198.757C8.48072 198.363 8.1639 197.894 7.94767 197.378C7.73145 196.861 7.62012 196.307 7.62012 195.747C7.62012 195.188 7.73145 194.633 7.94767 194.117C8.1639 193.6 8.48072 193.131 8.87981 192.738C9.27891 192.344 9.75236 192.033 10.2728 191.823C10.7932 191.613 11.3502 191.507 11.9117 191.513H294.17C294.731 191.507 295.288 191.613 295.809 191.823C296.329 192.033 296.802 192.344 297.201 192.738C297.601 193.131 297.917 193.6 298.134 194.117C298.35 194.633 298.461 195.188 298.461 195.747C298.461 196.307 298.35 196.861 298.134 197.378C297.917 197.894 297.601 198.363 297.201 198.757C296.802 199.151 296.329 199.462 295.809 199.672C295.288 199.882 294.731 199.987 294.17 199.981ZM11.9117 192.434C11.472 192.429 11.0356 192.511 10.6279 192.675C10.2202 192.839 9.84919 193.083 9.53643 193.391C9.22367 193.699 8.97536 194.066 8.80589 194.47C8.63642 194.875 8.54915 195.309 8.54915 195.747C8.54915 196.186 8.63642 196.62 8.80589 197.024C8.97536 197.429 9.22367 197.796 9.53643 198.104C9.84919 198.412 10.2202 198.655 10.6279 198.819C11.0356 198.984 11.472 199.065 11.9117 199.06H294.17C294.609 199.065 295.046 198.984 295.453 198.819C295.861 198.655 296.232 198.412 296.545 198.104C296.858 197.796 297.106 197.429 297.275 197.024C297.445 196.62 297.532 196.186 297.532 195.747C297.532 195.309 297.445 194.875 297.275 194.47C297.106 194.066 296.858 193.699 296.545 193.391C296.232 193.083 295.861 192.839 295.453 192.675C295.046 192.511 294.609 192.429 294.17 192.434H11.9117Z" fill="#262626"/>
<path d="M294.169 191.974H95.5065C93.4159 191.974 91.7212 193.663 91.7212 195.747C91.7212 197.831 93.4159 199.521 95.5065 199.521H294.169C296.26 199.521 297.954 197.831 297.954 195.747C297.954 193.663 296.26 191.974 294.169 191.974Z" fill="white"/>
<path d="M294.17 199.981H95.5067C94.388 199.97 93.319 199.518 92.5321 198.726C91.7451 197.933 91.3037 196.863 91.3037 195.747C91.3037 194.632 91.7451 193.562 92.5321 192.769C93.319 191.976 94.388 191.525 95.5067 191.513H294.17C294.731 191.507 295.288 191.613 295.808 191.823C296.329 192.033 296.802 192.344 297.201 192.738C297.601 193.131 297.917 193.6 298.134 194.117C298.35 194.633 298.461 195.188 298.461 195.747C298.461 196.307 298.35 196.861 298.134 197.378C297.917 197.894 297.601 198.363 297.201 198.757C296.802 199.151 296.329 199.462 295.808 199.672C295.288 199.882 294.731 199.987 294.17 199.981ZM95.5067 192.434C94.6321 192.445 93.7969 192.798 93.1821 193.418C92.5673 194.039 92.2225 194.875 92.2225 195.747C92.2225 196.619 92.5673 197.456 93.1821 198.076C93.7969 198.696 94.6321 199.05 95.5067 199.06H294.17C294.609 199.065 295.046 198.983 295.453 198.819C295.861 198.655 296.232 198.412 296.545 198.104C296.858 197.796 297.106 197.429 297.275 197.024C297.445 196.62 297.532 196.186 297.532 195.747C297.532 195.309 297.445 194.875 297.275 194.47C297.106 194.066 296.858 193.699 296.545 193.391C296.232 193.083 295.861 192.839 295.453 192.675C295.046 192.511 294.609 192.429 294.17 192.434H95.5067Z" fill="#262626"/>
<path d="M304.783 326.726C304.722 326.726 304.662 326.714 304.606 326.691C304.55 326.668 304.499 326.634 304.456 326.591C303.805 325.942 302.744 314.037 299.887 278.592C298.717 264.088 297.613 250.389 296.807 242.064C296.749 241.47 296.518 241.4 296.442 241.378C295.339 241.046 291.983 243.683 290.11 245.993C290.033 246.088 289.921 246.149 289.799 246.162C289.678 246.175 289.556 246.139 289.46 246.062C289.365 245.985 289.304 245.874 289.291 245.752C289.278 245.631 289.314 245.509 289.391 245.414C290.63 243.887 294.668 239.883 296.708 240.495C297.119 240.619 297.632 240.975 297.727 241.976C298.534 250.308 299.638 264.011 300.808 278.518C302.544 300.058 304.511 324.46 305.158 325.997C305.208 326.065 305.237 326.146 305.243 326.231C305.25 326.315 305.233 326.4 305.194 326.475C305.155 326.551 305.096 326.614 305.024 326.658C304.951 326.702 304.868 326.726 304.783 326.726Z" fill="#494949"/>
<path d="M295.62 257.341C303.285 251.215 305.826 241.68 301.294 236.045C296.763 230.409 286.875 230.806 279.21 236.932C271.544 243.057 269.003 252.592 273.535 258.228C278.066 263.864 287.954 263.467 295.62 257.341Z" fill="#EDCD72"/>
<path opacity="0.2" d="M295.62 257.341C303.285 251.215 305.826 241.68 301.294 236.045C296.763 230.409 286.875 230.806 279.21 236.932C271.544 243.057 269.003 252.592 273.535 258.228C278.066 263.864 287.954 263.467 295.62 257.341Z" fill="white"/>
<path d="M275.684 259.661C275.64 259.661 275.597 259.649 275.56 259.625C275.523 259.602 275.494 259.569 275.475 259.529C275.456 259.489 275.449 259.445 275.455 259.402C275.46 259.359 275.478 259.318 275.506 259.284L297.353 233.02C297.392 232.973 297.448 232.943 297.509 232.938C297.57 232.932 297.631 232.951 297.678 232.99C297.725 233.029 297.755 233.085 297.761 233.146C297.766 233.207 297.748 233.267 297.708 233.314L275.862 259.578C275.84 259.604 275.813 259.625 275.782 259.64C275.752 259.654 275.718 259.661 275.684 259.661Z" fill="white"/>
<path d="M298.057 325.225C297.953 325.225 297.853 325.19 297.771 325.126C297.69 325.062 297.632 324.972 297.608 324.872L283.834 267.468C283.74 267.077 283.539 266.719 283.254 266.434C282.97 266.149 282.611 265.948 282.219 265.853C281.827 265.758 281.416 265.772 281.032 265.894C280.648 266.017 280.305 266.243 280.041 266.547L275.795 271.438C275.756 271.484 275.707 271.522 275.653 271.55C275.599 271.578 275.539 271.594 275.478 271.599C275.417 271.603 275.356 271.596 275.298 271.577C275.24 271.558 275.187 271.528 275.141 271.488C275.094 271.448 275.057 271.399 275.029 271.345C275.002 271.291 274.986 271.231 274.982 271.17C274.978 271.11 274.986 271.049 275.006 270.991C275.025 270.934 275.056 270.88 275.097 270.835L279.342 265.944C279.717 265.512 280.205 265.191 280.751 265.017C281.298 264.843 281.882 264.823 282.439 264.958C282.997 265.094 283.506 265.38 283.91 265.786C284.315 266.191 284.6 266.7 284.733 267.256L298.504 324.66C298.532 324.778 298.512 324.903 298.448 325.006C298.384 325.11 298.281 325.184 298.162 325.212C298.128 325.221 298.093 325.225 298.057 325.225Z" fill="#494949"/>
<path d="M292.975 284.19C294.649 274.539 290.219 265.718 283.08 264.487C275.94 263.256 268.796 270.082 267.121 279.733C265.447 289.384 269.878 298.205 277.017 299.436C284.157 300.667 291.301 293.841 292.975 284.19Z" fill="#EDCD72"/>
<path d="M303.783 326.726C303.764 326.726 303.746 326.725 303.727 326.722C303.666 326.715 303.608 326.696 303.555 326.666C303.503 326.636 303.456 326.597 303.419 326.549C303.381 326.501 303.354 326.447 303.338 326.388C303.321 326.33 303.317 326.269 303.324 326.209L312.118 255.029C312.214 254.254 312.532 253.523 313.035 252.923C313.538 252.324 314.204 251.882 314.952 251.651C315.701 251.42 316.5 251.409 317.255 251.62C318.009 251.831 318.687 252.255 319.206 252.84L329.257 264.189C329.338 264.281 329.379 264.401 329.372 264.523C329.364 264.645 329.308 264.759 329.216 264.84C329.124 264.92 329.004 264.962 328.882 264.954C328.759 264.946 328.645 264.891 328.564 264.799L318.513 253.45C318.112 252.997 317.588 252.67 317.005 252.507C316.422 252.344 315.804 252.352 315.225 252.531C314.647 252.709 314.132 253.051 313.744 253.514C313.355 253.977 313.109 254.542 313.035 255.142L304.242 326.321C304.228 326.433 304.174 326.536 304.089 326.61C304.005 326.684 303.896 326.726 303.783 326.726Z" fill="#494949"/>
<path d="M339.566 270.496C343.073 264.176 338.947 255.209 330.35 250.468C321.753 245.727 311.941 247.008 308.434 253.329C304.927 259.649 309.053 268.616 317.65 273.357C326.247 278.097 336.059 276.817 339.566 270.496Z" fill="#EDCD72"/>
<path opacity="0.5" d="M292.975 284.19C294.649 274.539 290.219 265.718 283.08 264.487C275.94 263.256 268.796 270.082 267.121 279.733C265.447 289.384 269.878 298.205 277.017 299.436C284.157 300.667 291.301 293.841 292.975 284.19Z" fill="white"/>
<path opacity="0.5" d="M339.566 270.496C343.073 264.176 338.947 255.209 330.35 250.468C321.753 245.727 311.941 247.008 308.434 253.329C304.927 259.649 309.053 268.616 317.65 273.357C326.247 278.097 336.059 276.817 339.566 270.496Z" fill="white"/>
<path d="M313.03 387.122H290.535L286.807 315.368H316.758L313.03 387.122Z" fill="#262626"/>
<path opacity="0.3" d="M313.03 387.122H290.535L286.807 315.368H316.758L313.03 387.122Z" fill="white"/>
<path d="M338.097 272.724C338.048 272.724 338 272.708 337.961 272.678L309.705 252.11C309.655 252.074 309.622 252.02 309.613 251.959C309.603 251.899 309.618 251.837 309.654 251.788C309.69 251.739 309.745 251.706 309.805 251.696C309.866 251.687 309.928 251.702 309.977 251.738L338.234 272.307C338.272 272.336 338.301 272.376 338.315 272.422C338.33 272.468 338.329 272.518 338.314 272.564C338.299 272.61 338.269 272.65 338.23 272.678C338.191 272.706 338.143 272.721 338.095 272.721L338.097 272.724Z" fill="white"/>
<path d="M275.869 299.136C275.849 299.136 275.829 299.133 275.809 299.128C275.75 299.112 275.7 299.074 275.669 299.021C275.639 298.968 275.63 298.905 275.646 298.846L284.641 265.249C284.658 265.191 284.697 265.143 284.749 265.113C284.802 265.084 284.863 265.076 284.922 265.091C284.98 265.107 285.029 265.144 285.06 265.196C285.091 265.247 285.101 265.309 285.087 265.367L276.092 298.965C276.079 299.014 276.05 299.057 276.01 299.088C275.969 299.119 275.92 299.136 275.869 299.136Z" fill="white"/>
<path d="M323.891 387.768H0.323372C0.237609 387.768 0.155358 387.734 0.0947136 387.674C0.0340695 387.613 0 387.532 0 387.446C0 387.36 0.0340695 387.278 0.0947136 387.218C0.155358 387.158 0.237609 387.124 0.323372 387.124H323.89C323.976 387.124 324.058 387.158 324.118 387.218C324.179 387.278 324.213 387.36 324.213 387.446C324.213 387.532 324.179 387.613 324.118 387.674C324.058 387.734 323.976 387.768 323.89 387.768H323.891Z" fill="#262626"/>
<g opacity="0.65">
<path opacity="0.65" d="M323.891 387.768H0.323372C0.237609 387.768 0.155358 387.734 0.0947136 387.674C0.0340695 387.613 0 387.532 0 387.446C0 387.36 0.0340695 387.278 0.0947136 387.218C0.155358 387.158 0.237609 387.124 0.323372 387.124H323.89C323.976 387.124 324.058 387.158 324.118 387.218C324.179 387.278 324.213 387.36 324.213 387.446C324.213 387.532 324.179 387.613 324.118 387.674C324.058 387.734 323.976 387.768 323.89 387.768H323.891Z" fill="#262626"/>
</g>
</g>
<defs>
<clipPath id="clip0_987_17721">
<rect width="342" height="388" fill="white"/>
</clipPath>
</defs>
</svg>
