<svg width="315" height="212" viewBox="0 0 315 212" fill="none" xmlns="http://www.w3.org/2000/svg">
<path d="M299.352 182.376L90.5332 182.376C86.5641 182.376 82.7577 180.801 79.9511 177.998C77.1446 175.194 75.5679 171.392 75.5679 167.427L75.5679 15.5684C75.5679 11.6054 77.1438 7.80461 79.9491 5.0023C82.7543 2.19998 86.5591 0.625671 90.5262 0.625671L299.359 0.625671C303.326 0.625671 307.131 2.19998 309.936 5.0023C312.741 7.80461 314.317 11.6054 314.317 15.5684V167.427C314.317 171.392 312.741 175.194 309.934 177.998C307.128 180.801 303.321 182.376 299.352 182.376Z" fill="white"/>
<path d="M74.9424 167.426V15.5674C74.9424 11.4387 76.5843 7.47903 79.5068 4.55958C82.4293 1.64013 86.393 0 90.5261 0H299.359C303.492 0 307.456 1.64013 310.378 4.55958C313.301 7.47903 314.942 11.4387 314.942 15.5674V167.426C314.942 169.471 314.539 171.496 313.756 173.386C312.972 175.275 311.824 176.992 310.376 178.438C308.928 179.885 307.21 181.032 305.318 181.814C303.427 182.597 301.399 183 299.352 183H90.5331C88.4857 183 86.4583 182.597 84.5668 181.814C82.6753 181.032 80.9566 179.885 79.5088 178.438C78.0611 176.992 76.9127 175.275 76.1292 173.386C75.3457 171.496 74.9424 169.471 74.9424 167.426ZM90.5261 1.24923C86.7254 1.25029 83.0808 2.75927 80.3936 5.44433C77.7065 8.12939 76.197 11.7707 76.197 15.5674V167.426C76.197 171.225 77.7078 174.869 80.3971 177.555C83.0864 180.242 86.7339 181.751 90.5371 181.751H299.352C303.155 181.751 306.802 180.242 309.492 177.555C312.181 174.869 313.692 171.225 313.692 167.426V15.5674C313.692 11.77 312.182 8.1281 309.494 5.44292C306.806 2.75775 303.16 1.24923 299.359 1.24923H90.5261Z" fill="#ADADAD"/>
<path d="M75.5675 15.5653V28.2185H314.314V15.5653C314.314 11.6023 312.738 7.80151 309.933 4.99919C307.128 2.19688 303.323 0.622559 299.356 0.622559H90.5249C88.5605 0.622559 86.6155 1.00907 84.8007 1.76003C82.9859 2.51099 81.337 3.61168 79.9481 4.99926C78.5591 6.38683 77.4574 8.03412 76.7058 9.84705C75.9542 11.66 75.5674 13.6031 75.5675 15.5653Z" fill="#292A2E"/>
<path d="M128.7 175.506C128.567 175.506 128.44 175.454 128.346 175.36C128.252 175.266 128.2 175.139 128.2 175.007V32.9355C128.2 32.803 128.252 32.6759 128.346 32.5821C128.44 32.4884 128.567 32.4358 128.7 32.4358C128.832 32.4358 128.96 32.4884 129.054 32.5821C129.147 32.6759 129.2 32.803 129.2 32.9355V175.007C129.2 175.139 129.147 175.266 129.054 175.36C128.96 175.454 128.832 175.506 128.7 175.506Z" fill="#ADADAD"/>
<path d="M86.853 17.36C88.6471 17.36 90.1014 15.9027 90.1014 14.105C90.1014 12.3073 88.6471 10.85 86.853 10.85C85.059 10.85 83.6046 12.3073 83.6046 14.105C83.6046 15.9027 85.059 17.36 86.853 17.36Z" fill="white"/>
<path d="M97.6815 17.36C99.4756 17.36 100.93 15.9027 100.93 14.105C100.93 12.3073 99.4756 10.85 97.6815 10.85C95.8875 10.85 94.4331 12.3073 94.4331 14.105C94.4331 15.9027 95.8875 17.36 97.6815 17.36Z" fill="white"/>
<path d="M108.509 17.36C110.303 17.36 111.757 15.9027 111.757 14.105C111.757 12.3073 110.303 10.85 108.509 10.85C106.715 10.85 105.26 12.3073 105.26 14.105C105.26 15.9027 106.715 17.36 108.509 17.36Z" fill="white"/>
<path d="M105.822 39.1776H84.161C84.0283 39.1776 83.9011 39.125 83.8073 39.0313C83.7135 38.9375 83.6608 38.8104 83.6608 38.6779C83.6608 38.5454 83.7135 38.4183 83.8073 38.3246C83.9011 38.2309 84.0283 38.1782 84.161 38.1782H105.822C105.955 38.1782 106.082 38.2309 106.176 38.3246C106.27 38.4183 106.322 38.5454 106.322 38.6779C106.322 38.8104 106.27 38.9375 106.176 39.0313C106.082 39.125 105.955 39.1776 105.822 39.1776Z" fill="#ADADAD"/>
<path d="M99.2966 49.0337H84.1611C84.0285 49.0337 83.9012 48.9811 83.8074 48.8874C83.7136 48.7937 83.6609 48.6666 83.6609 48.534C83.6609 48.4015 83.7136 48.2744 83.8074 48.1807C83.9012 48.087 84.0285 48.0343 84.1611 48.0343H99.2966C99.4293 48.0343 99.5565 48.087 99.6503 48.1807C99.7441 48.2744 99.7968 48.4015 99.7968 48.534C99.7968 48.6666 99.7441 48.7937 99.6503 48.8874C99.5565 48.9811 99.4293 49.0337 99.2966 49.0337Z" fill="#ADADAD"/>
<path d="M112.607 58.8896H84.1611C84.0285 58.8896 83.9012 58.8369 83.8074 58.7432C83.7136 58.6495 83.6609 58.5224 83.6609 58.3899C83.6609 58.2574 83.7136 58.1303 83.8074 58.0366C83.9012 57.9428 84.0285 57.8902 84.1611 57.8902H112.607C112.74 57.8902 112.867 57.9428 112.961 58.0366C113.055 58.1303 113.108 58.2574 113.108 58.3899C113.108 58.5224 113.055 58.6495 112.961 58.7432C112.867 58.8369 112.74 58.8896 112.607 58.8896Z" fill="#ADADAD"/>
<path d="M117.916 68.7456H94.166C94.0333 68.7456 93.9061 68.693 93.8123 68.5992C93.7185 68.5055 93.6658 68.3784 93.6658 68.2459C93.6658 68.1134 93.7185 67.9863 93.8123 67.8926C93.9061 67.7989 94.0333 67.7462 94.166 67.7462H117.916C118.049 67.7462 118.176 67.7989 118.27 67.8926C118.364 67.9863 118.416 68.1134 118.416 68.2459C118.416 68.3784 118.364 68.5055 118.27 68.5992C118.176 68.693 118.049 68.7456 117.916 68.7456Z" fill="#ADADAD"/>
<path d="M106.431 78.6024H94.166C94.0333 78.6024 93.9061 78.5498 93.8123 78.456C93.7185 78.3623 93.6658 78.2352 93.6658 78.1027C93.6658 77.9702 93.7185 77.8431 93.8123 77.7494C93.9061 77.6557 94.0333 77.603 94.166 77.603H106.431C106.564 77.603 106.691 77.6557 106.785 77.7494C106.879 77.8431 106.931 77.9702 106.931 78.1027C106.931 78.2352 106.879 78.3623 106.785 78.456C106.691 78.5498 106.564 78.6024 106.431 78.6024Z" fill="#ADADAD"/>
<path d="M115.827 88.4586H94.166C94.0333 88.4586 93.9061 88.406 93.8123 88.3122C93.7185 88.2185 93.6658 88.0914 93.6658 87.9589C93.6658 87.8264 93.7185 87.6993 93.8123 87.6056C93.9061 87.5119 94.0333 87.4592 94.166 87.4592H115.827C115.96 87.4592 116.087 87.5119 116.181 87.6056C116.275 87.6993 116.328 87.8264 116.328 87.9589C116.328 88.0914 116.275 88.2185 116.181 88.3122C116.087 88.406 115.96 88.4586 115.827 88.4586Z" fill="#ADADAD"/>
<path d="M100.863 98.3144H84.1611C84.0285 98.3144 83.9012 98.2617 83.8074 98.168C83.7136 98.0743 83.6609 97.9472 83.6609 97.8147C83.6609 97.6821 83.7136 97.555 83.8074 97.4613C83.9012 97.3676 84.0285 97.3149 84.1611 97.3149H100.863C100.996 97.3149 101.123 97.3676 101.217 97.4613C101.311 97.555 101.363 97.6821 101.363 97.8147C101.363 97.9472 101.311 98.0743 101.217 98.168C101.123 98.2617 100.996 98.3144 100.863 98.3144Z" fill="#ADADAD"/>
<path d="M95.1218 108.169H84.1611C84.0285 108.169 83.9012 108.117 83.8074 108.023C83.7136 107.929 83.6609 107.802 83.6609 107.67C83.6609 107.537 83.7136 107.41 83.8074 107.316C83.9012 107.223 84.0285 107.17 84.1611 107.17H95.1218C95.2545 107.17 95.3817 107.223 95.4755 107.316C95.5694 107.41 95.6221 107.537 95.6221 107.67C95.6221 107.802 95.5694 107.929 95.4755 108.023C95.3817 108.117 95.2545 108.169 95.1218 108.169Z" fill="#ADADAD"/>
<path opacity="0.8" d="M154.456 163.248H158.499C159.108 163.248 159.601 162.754 159.601 162.144V133.119C159.601 132.509 159.108 132.015 158.499 132.015H154.456C153.847 132.015 153.354 132.509 153.354 133.119V162.144C153.354 162.754 153.847 163.248 154.456 163.248Z" fill="#FADB26"/>
<path opacity="0.8" d="M236.817 163.248H240.861C241.47 163.248 241.963 162.754 241.963 162.144V89.3964C241.963 88.7866 241.47 88.2922 240.861 88.2922H236.817C236.209 88.2922 235.715 88.7866 235.715 89.3964V162.144C235.715 162.754 236.209 163.248 236.817 163.248Z" fill="#FADB26"/>
<path opacity="0.8" d="M264.272 163.248H268.316C268.925 163.248 269.418 162.754 269.418 162.144V89.3964C269.418 88.7866 268.925 88.2922 268.316 88.2922H264.272C263.664 88.2922 263.17 88.7866 263.17 89.3964V162.144C263.17 162.754 263.664 163.248 264.272 163.248Z" fill="#FADB26"/>
<path opacity="0.8" d="M181.911 163.248H185.955C186.563 163.248 187.057 162.754 187.057 162.144V108.471C187.057 107.861 186.563 107.366 185.955 107.366H181.911C181.302 107.366 180.809 107.861 180.809 108.471V162.144C180.809 162.754 181.302 163.248 181.911 163.248Z" fill="#FADB26"/>
<path opacity="0.8" d="M209.365 163.248H213.408C214.017 163.248 214.51 162.754 214.51 162.144V118.8C214.51 118.191 214.017 117.696 213.408 117.696H209.365C208.756 117.696 208.263 118.191 208.263 118.8V162.144C208.263 162.754 208.756 163.248 209.365 163.248Z" fill="#FADB26"/>
<path opacity="0.5" d="M160.705 163.247H164.749C165.358 163.247 165.851 162.753 165.851 162.143V76.5091C165.851 75.8993 165.358 75.4049 164.749 75.4049H160.705C160.097 75.4049 159.603 75.8993 159.603 76.5091V162.143C159.603 162.753 160.097 163.247 160.705 163.247Z" fill="#FADB26"/>
<path opacity="0.5" d="M270.52 163.247H274.563C275.172 163.247 275.665 162.753 275.665 162.143V76.5091C275.665 75.8993 275.172 75.4049 274.563 75.4049H270.52C269.911 75.4049 269.418 75.8993 269.418 76.5091V162.143C269.418 162.753 269.911 163.247 270.52 163.247Z" fill="#FADB26"/>
<path opacity="0.5" d="M243.066 163.248H247.11C247.719 163.248 248.212 162.754 248.212 162.144V108.471C248.212 107.861 247.719 107.366 247.11 107.366H243.066C242.458 107.366 241.964 107.861 241.964 108.471V162.144C241.964 162.754 242.458 163.248 243.066 163.248Z" fill="#FADB26"/>
<path opacity="0.5" d="M215.612 163.248H219.656C220.265 163.248 220.758 162.754 220.758 162.144V135.011C220.758 134.401 220.265 133.907 219.656 133.907H215.612C215.004 133.907 214.51 134.401 214.51 135.011V162.144C214.51 162.754 215.004 163.248 215.612 163.248Z" fill="#FADB26"/>
<path opacity="0.5" d="M188.158 163.248H192.202C192.811 163.248 193.304 162.754 193.304 162.144V101.926C193.304 101.316 192.811 100.821 192.202 100.821H188.158C187.55 100.821 187.056 101.316 187.056 101.926V162.144C187.056 162.754 187.55 163.248 188.158 163.248Z" fill="#FADB26"/>
<path opacity="0.2" d="M276.768 163.247H280.811C281.42 163.247 281.913 162.753 281.913 162.143V101.515C281.913 100.905 281.42 100.411 280.811 100.411H276.768C276.159 100.411 275.666 100.905 275.666 101.515V162.143C275.666 162.753 276.159 163.247 276.768 163.247Z" fill="#FADB26"/>
<path opacity="0.2" d="M249.316 163.247H253.359C253.968 163.247 254.461 162.753 254.461 162.143V124.936C254.461 124.326 253.968 123.832 253.359 123.832H249.316C248.707 123.832 248.214 124.326 248.214 124.936V162.143C248.214 162.753 248.707 163.247 249.316 163.247Z" fill="#FADB26"/>
<path opacity="0.2" d="M221.86 163.248H225.904C226.512 163.248 227.006 162.754 227.006 162.144V108.062C227.006 107.452 226.512 106.958 225.904 106.958H221.86C221.251 106.958 220.758 107.452 220.758 108.062V162.144C220.758 162.754 221.251 163.248 221.86 163.248Z" fill="#FADB26"/>
<path opacity="0.2" d="M194.406 163.248H198.45C199.058 163.248 199.552 162.754 199.552 162.144V108.062C199.552 107.452 199.058 106.958 198.45 106.958H194.406C193.797 106.958 193.304 107.452 193.304 108.062V162.144C193.304 162.754 193.797 163.248 194.406 163.248Z" fill="#FADB26"/>
<path opacity="0.2" d="M166.953 163.248H170.997C171.605 163.248 172.099 162.754 172.099 162.144V80.3449C172.099 79.7351 171.605 79.2407 170.997 79.2407H166.953C166.344 79.2407 165.851 79.7351 165.851 80.3449V162.144C165.851 162.754 166.344 163.248 166.953 163.248Z" fill="#FADB26"/>
<path d="M294.72 163.278H142.614C142.395 163.278 142.185 163.191 142.03 163.036C141.875 162.881 141.788 162.671 141.788 162.452V64.2818C141.788 64.0629 141.875 63.853 142.03 63.6983C142.185 63.5435 142.395 63.4565 142.614 63.4565C142.833 63.4565 143.043 63.5435 143.198 63.6983C143.353 63.853 143.44 64.0629 143.44 64.2818V161.627H294.72C294.939 161.627 295.149 161.714 295.304 161.869C295.459 162.024 295.546 162.234 295.546 162.452C295.546 162.671 295.459 162.881 295.304 163.036C295.149 163.191 294.939 163.278 294.72 163.278Z" fill="#ADADAD"/>
<path d="M14.8418 125.51H107.096C109.193 125.51 111.203 126.315 112.685 127.747C114.167 129.179 115 131.122 115 133.147V200.83C115 202.855 114.167 204.798 112.685 206.23C111.203 207.662 109.192 208.467 107.096 208.467H11.32C9.22366 208.467 7.21322 207.662 5.73091 206.23C4.24859 204.798 3.41584 202.855 3.41584 200.83V136.55C3.41584 133.622 4.61964 130.814 6.76241 128.744C8.90519 126.673 11.8114 125.51 14.8418 125.51Z" fill="#262626"/>
<path d="M102.57 131.743H7.57655C3.53769 131.743 0.26355 135.02 0.26355 139.062V203.928C0.26355 207.97 3.53769 211.247 7.57655 211.247H102.57C106.609 211.247 109.883 207.97 109.883 203.928V139.062C109.883 135.02 106.609 131.743 102.57 131.743Z" fill="white"/>
<path opacity="0.55" d="M102.502 131.817H7.50831C3.46945 131.817 0.195312 135.094 0.195312 139.136V204.002C0.195312 208.044 3.46945 211.321 7.50831 211.321H102.502C106.541 211.321 109.815 208.044 109.815 204.002V139.136C109.815 135.094 106.541 131.817 102.502 131.817Z" fill="#E9E9E9"/>
<path d="M102.57 211.51H7.57569C5.56718 211.508 3.64156 210.708 2.22133 209.287C0.80109 207.865 0.00222499 205.938 0 203.928V139.062C0.00227116 137.052 0.801145 135.125 2.22137 133.703C3.64159 132.282 5.56717 131.482 7.57569 131.48H102.57C104.578 131.482 106.504 132.282 107.924 133.703C109.344 135.125 110.143 137.052 110.145 139.062V203.928C110.143 205.938 109.344 207.865 107.924 209.287C106.504 210.708 104.578 211.508 102.57 211.51ZM7.57569 132.005C5.7064 132.007 3.91423 132.751 2.59246 134.074C1.27069 135.397 0.527285 137.191 0.525384 139.062V203.927C0.527331 205.798 1.27075 207.592 2.59252 208.915C3.91429 210.238 5.70643 210.982 7.57569 210.984H102.57C104.439 210.982 106.231 210.238 107.553 208.915C108.874 207.592 109.618 205.798 109.62 203.927V139.062C109.618 137.191 108.874 135.398 107.553 134.075C106.231 132.752 104.439 132.008 102.57 132.006L7.57569 132.005Z" fill="#262626"/>
<path d="M76.5656 171.532L69.1084 171.532M32.6811 162.545L32.6811 171.532L43.5819 171.532M54.4827 171.532L61.6513 171.532M54.4827 171.532L54.4827 176.891M54.4827 171.532L43.5819 171.532M54.4827 185.176L54.4827 176.891M61.6513 171.532L61.6513 158.105L55.5354 158.105M61.6513 171.532L69.1084 171.532M54.4827 176.891L39.2919 176.891L39.2919 182.251M43.5819 171.532L43.5819 167.029M69.1084 171.532L69.1084 176.891" stroke="#262626"/>
<path d="M54.4766 185.193C53.6204 185.193 52.9263 185.886 52.9263 186.74C52.9263 187.595 53.6204 188.287 54.4766 188.287C55.3327 188.287 56.0268 187.595 56.0268 186.74C56.0268 185.886 55.3327 185.193 54.4766 185.193Z" fill="#FADB26"/>
<path d="M54.4591 184.883C54.8343 184.883 55.2011 184.994 55.5131 185.202C55.8251 185.41 56.0683 185.706 56.2119 186.052C56.3555 186.398 56.3931 186.778 56.3199 187.145C56.2468 187.513 56.0661 187.85 55.8008 188.115C55.5355 188.38 55.1975 188.56 54.8295 188.633C54.4615 188.706 54.08 188.669 53.7334 188.525C53.3868 188.382 53.0905 188.139 52.8821 187.828C52.6737 187.516 52.5625 187.15 52.5626 186.776C52.5631 186.274 52.7631 185.793 53.1187 185.438C53.4742 185.083 53.9563 184.884 54.4591 184.883ZM54.4591 187.978C54.6973 187.978 54.9302 187.907 55.1283 187.775C55.3263 187.643 55.4807 187.456 55.5719 187.236C55.6631 187.016 55.687 186.775 55.6406 186.542C55.5942 186.308 55.4795 186.094 55.3111 185.926C55.1427 185.758 54.9281 185.644 54.6945 185.597C54.4609 185.551 54.2188 185.574 53.9987 185.665C53.7787 185.756 53.5906 185.91 53.4582 186.108C53.3259 186.306 53.2552 186.538 53.2552 186.776C53.2556 187.094 53.3826 187.4 53.6082 187.625C53.8339 187.851 54.1399 187.977 54.4591 187.978Z" fill="#262626"/>
<path d="M69.0224 176.551C68.1662 176.551 67.4722 177.244 67.4722 178.099C67.4722 178.953 68.1662 179.646 69.0224 179.646C69.8786 179.646 70.5726 178.953 70.5726 178.099C70.5726 177.244 69.8786 176.551 69.0224 176.551Z" fill="#FADB26"/>
<path d="M69.0051 176.241C69.3803 176.241 69.7471 176.352 70.0591 176.56C70.3711 176.768 70.6143 177.064 70.7579 177.41C70.9015 177.756 70.9391 178.136 70.8659 178.504C70.7927 178.871 70.6121 179.208 70.3468 179.473C70.0814 179.738 69.7434 179.918 69.3754 179.991C69.0074 180.064 68.626 180.027 68.2794 179.884C67.9327 179.74 67.6365 179.497 67.4281 179.186C67.2197 178.875 67.1085 178.509 67.1085 178.134C67.1091 177.632 67.3091 177.151 67.6646 176.796C68.0202 176.441 68.5023 176.242 69.0051 176.241ZM69.0051 179.336C69.2433 179.336 69.4761 179.266 69.6742 179.134C69.8723 179.002 70.0267 178.814 70.1179 178.594C70.2091 178.375 70.233 178.133 70.1866 177.9C70.1401 177.667 70.0255 177.453 69.8571 177.284C69.6887 177.116 69.4741 177.002 69.2405 176.955C69.0069 176.909 68.7647 176.933 68.5447 177.024C68.3246 177.115 68.1365 177.269 68.0042 177.466C67.8718 177.664 67.8012 177.896 67.8012 178.134C67.8016 178.453 67.9285 178.758 68.1542 178.983C68.3799 179.209 68.6859 179.336 69.0051 179.336Z" fill="#262626"/>
<path d="M43.3923 164.072C42.5361 164.072 41.8421 164.764 41.8421 165.619C41.8421 166.473 42.5361 167.166 43.3923 167.166C44.2484 167.166 44.9425 166.473 44.9425 165.619C44.9425 164.764 44.2484 164.072 43.3923 164.072Z" fill="#FADB26"/>
<path d="M43.5855 163.761C43.9607 163.761 44.3275 163.872 44.6395 164.08C44.9515 164.288 45.1947 164.584 45.3383 164.93C45.4819 165.276 45.5195 165.656 45.4463 166.023C45.3732 166.391 45.1925 166.728 44.9272 166.993C44.6619 167.258 44.3239 167.438 43.9559 167.511C43.5879 167.584 43.2064 167.547 42.8598 167.403C42.5132 167.26 42.2169 167.017 42.0085 166.706C41.8001 166.394 41.6889 166.028 41.689 165.654C41.6895 165.152 41.8895 164.671 42.2451 164.316C42.6006 163.961 43.0827 163.762 43.5855 163.761ZM43.5855 166.856C43.8237 166.856 44.0566 166.785 44.2547 166.653C44.4527 166.521 44.6071 166.334 44.6983 166.114C44.7895 165.894 44.8134 165.653 44.767 165.42C44.7206 165.186 44.6059 164.972 44.4375 164.804C44.2691 164.636 44.0545 164.522 43.8209 164.475C43.5873 164.429 43.3452 164.452 43.1251 164.543C42.9051 164.634 42.717 164.788 42.5846 164.986C42.4523 165.184 42.3816 165.416 42.3816 165.654C42.382 165.972 42.509 166.278 42.7346 166.503C42.9603 166.729 43.2663 166.855 43.5855 166.856Z" fill="#262626"/>
<path d="M53.7673 156.503C52.9111 156.503 52.2171 157.196 52.2171 158.05C52.2171 158.905 52.9111 159.597 53.7673 159.597C54.6234 159.597 55.3175 158.905 55.3175 158.05C55.3175 157.196 54.6234 156.503 53.7673 156.503Z" fill="#FADB26"/>
<path d="M53.7498 156.193C54.125 156.193 54.4919 156.304 54.8038 156.512C55.1158 156.72 55.359 157.015 55.5026 157.361C55.6463 157.707 55.6838 158.088 55.6107 158.455C55.5375 158.823 55.3568 159.16 55.0915 159.425C54.8262 159.69 54.4882 159.87 54.1202 159.943C53.7522 160.016 53.3707 159.978 53.0241 159.835C52.6775 159.692 52.3812 159.449 52.1728 159.138C51.9644 158.826 51.8532 158.46 51.8533 158.086C51.8538 157.584 52.0538 157.103 52.4094 156.748C52.7649 156.393 53.247 156.193 53.7498 156.193ZM53.7498 159.288C53.988 159.288 54.2209 159.217 54.419 159.085C54.6171 158.953 54.7715 158.765 54.8627 158.546C54.9539 158.326 54.9777 158.085 54.9313 157.851C54.8849 157.618 54.7702 157.404 54.6018 157.236C54.4334 157.068 54.2189 156.953 53.9852 156.907C53.7516 156.861 53.5095 156.884 53.2894 156.975C53.0694 157.066 52.8813 157.22 52.7489 157.418C52.6166 157.616 52.546 157.848 52.546 158.086C52.5463 158.404 52.6733 158.71 52.899 158.935C53.1246 159.16 53.4306 159.287 53.7498 159.288Z" fill="#262626"/>
<path d="M32.6383 159.267C31.7821 159.267 31.088 159.96 31.088 160.814C31.088 161.669 31.7821 162.361 32.6383 162.361C33.4944 162.361 34.1885 161.669 34.1885 160.814C34.1885 159.96 33.4944 159.267 32.6383 159.267Z" fill="#FADB26"/>
<path d="M32.6391 158.921C33.0143 158.921 33.3811 159.032 33.6931 159.24C34.0051 159.448 34.2483 159.744 34.3919 160.09C34.5355 160.436 34.5731 160.817 34.4999 161.184C34.4268 161.551 34.2461 161.889 33.9808 162.153C33.7155 162.418 33.3775 162.598 33.0095 162.672C32.6415 162.745 32.26 162.707 31.9134 162.564C31.5668 162.42 31.2705 162.178 31.0621 161.866C30.8537 161.555 30.7425 161.189 30.7426 160.814C30.7431 160.312 30.9431 159.831 31.2987 159.476C31.6542 159.122 32.1363 158.922 32.6391 158.921ZM32.6391 162.016C32.8773 162.016 33.1102 161.946 33.3083 161.814C33.5063 161.682 33.6607 161.494 33.7519 161.275C33.8431 161.055 33.867 160.813 33.8206 160.58C33.7742 160.347 33.6595 160.133 33.4911 159.965C33.3227 159.796 33.1081 159.682 32.8745 159.636C32.6409 159.589 32.3988 159.613 32.1787 159.704C31.9587 159.795 31.7706 159.949 31.6382 160.147C31.5059 160.344 31.4352 160.577 31.4352 160.814C31.4356 161.133 31.5626 161.438 31.7882 161.664C32.0139 161.889 32.3199 162.016 32.6391 162.016Z" fill="#262626"/>
<path d="M39.2182 182.081C39.5934 182.081 39.9602 182.192 40.2722 182.4C40.5842 182.608 40.8274 182.904 40.971 183.25C41.1146 183.596 41.1522 183.977 41.079 184.344C41.0058 184.711 40.8252 185.048 40.5599 185.313C40.2946 185.578 39.9565 185.758 39.5885 185.831C39.2205 185.904 38.8391 185.867 38.4925 185.724C38.1459 185.58 37.8496 185.338 37.6412 185.026C37.4328 184.715 37.3216 184.349 37.3216 183.974C37.3222 183.472 37.5222 182.991 37.8777 182.636C38.2333 182.281 38.7154 182.082 39.2182 182.081ZM39.2182 185.176C39.4564 185.176 39.6893 185.106 39.8873 184.974C40.0854 184.842 40.2398 184.654 40.331 184.434C40.4222 184.215 40.4461 183.973 40.3997 183.74C40.3533 183.507 40.2386 183.293 40.0702 183.124C39.9018 182.956 39.6872 182.842 39.4536 182.795C39.22 182.749 38.9779 182.773 38.7578 182.864C38.5377 182.955 38.3496 183.109 38.2173 183.306C38.085 183.504 38.0143 183.736 38.0143 183.974C38.0147 184.293 38.1416 184.598 38.3673 184.824C38.593 185.049 38.899 185.176 39.2182 185.176Z" fill="#262626"/>
<path d="M39.2111 182.757C38.5417 182.757 37.9989 183.298 37.9989 183.967C37.9989 184.635 38.5417 185.176 39.2111 185.176C39.8806 185.176 40.4233 184.635 40.4233 183.967C40.4233 183.298 39.8806 182.757 39.2111 182.757Z" fill="#FADB26"/>
<path d="M76.2766 169.983C75.4204 169.983 74.7263 170.676 74.7263 171.53C74.7263 172.385 75.4204 173.078 76.2766 173.078C77.1327 173.078 77.8268 172.385 77.8268 171.53C77.8268 170.676 77.1327 169.983 76.2766 169.983Z" fill="#FADB26"/>
<path d="M76.2774 169.637C76.6526 169.637 77.0194 169.748 77.3314 169.956C77.6434 170.164 77.8866 170.46 78.0302 170.806C78.1738 171.152 78.2114 171.532 78.1382 171.9C78.0651 172.267 77.8844 172.604 77.6191 172.869C77.3538 173.134 77.0158 173.314 76.6478 173.387C76.2798 173.46 75.8983 173.423 75.5517 173.28C75.2051 173.136 74.9088 172.893 74.7004 172.582C74.492 172.271 74.3808 171.905 74.3809 171.53C74.3814 171.028 74.5814 170.547 74.937 170.192C75.2925 169.837 75.7746 169.638 76.2774 169.637ZM76.2774 172.732C76.5156 172.732 76.7485 172.662 76.9466 172.53C77.1446 172.398 77.299 172.21 77.3902 171.99C77.4814 171.771 77.5053 171.529 77.4589 171.296C77.4125 171.063 77.2978 170.849 77.1294 170.68C76.961 170.512 76.7464 170.398 76.5128 170.351C76.2792 170.305 76.0371 170.329 75.817 170.42C75.597 170.511 75.4089 170.665 75.2765 170.862C75.1442 171.06 75.0735 171.292 75.0735 171.53C75.0739 171.849 75.2009 172.154 75.4265 172.379C75.6522 172.605 75.9582 172.732 76.2774 172.732Z" fill="#262626"/>
<g clip-path="url(#clip0_982_4506)">
<path d="M104.582 140.362L103.435 139.599C103.416 139.587 103.394 139.58 103.372 139.579C103.349 139.578 103.327 139.583 103.307 139.594C103.287 139.604 103.271 139.62 103.259 139.639C103.247 139.658 103.241 139.68 103.241 139.703L103.241 140.217L99.5917 140.217C99.6513 140.138 99.7012 140.052 99.7403 139.961L99.9702 139.425C100.028 139.291 100.124 139.176 100.246 139.096C100.369 139.016 100.512 138.973 100.658 138.973L100.791 138.973C100.85 139.139 100.965 139.279 101.118 139.368C101.27 139.457 101.449 139.49 101.623 139.46C101.796 139.43 101.954 139.34 102.068 139.205C102.182 139.071 102.244 138.9 102.244 138.724C102.244 138.548 102.182 138.378 102.068 138.243C101.954 138.108 101.796 138.018 101.623 137.988C101.449 137.959 101.27 137.991 101.118 138.08C100.965 138.169 100.85 138.309 100.791 138.475L100.658 138.475C100.414 138.475 100.176 138.547 99.9721 138.681C99.7684 138.815 99.6086 139.005 99.5124 139.229L99.2826 139.765C99.2333 139.879 99.1559 139.98 99.0575 140.057C98.9592 140.134 98.843 140.186 98.7196 140.207C98.6564 139.973 98.5102 139.77 98.3082 139.637C98.1063 139.503 97.8624 139.447 97.6222 139.48C97.382 139.512 97.1619 139.631 97.003 139.813C96.8441 139.996 96.7572 140.23 96.7586 140.472C96.7601 140.714 96.8497 140.947 97.0107 141.128C97.1718 141.309 97.3933 141.425 97.6339 141.455C97.8744 141.484 98.1176 141.426 98.3179 141.289C98.5183 141.153 98.6622 140.949 98.7226 140.715L99.1724 140.715C99.3043 140.715 99.4339 140.749 99.548 140.815C99.6621 140.882 99.7567 140.977 99.8221 141.091L100.245 141.829C100.347 142.008 100.492 142.159 100.667 142.268C100.842 142.377 101.041 142.441 101.247 142.454L101.247 142.83C101.247 142.863 101.26 142.894 101.283 142.918C101.307 142.941 101.338 142.954 101.371 142.954L102.618 142.954C102.651 142.954 102.683 142.941 102.706 142.918C102.729 142.894 102.743 142.863 102.743 142.83L102.743 141.586C102.743 141.553 102.729 141.521 102.706 141.498C102.683 141.474 102.651 141.461 102.618 141.461L101.371 141.461C101.303 141.461 101.247 141.517 101.247 141.586L101.247 141.954C101.129 141.942 101.016 141.901 100.917 141.837C100.818 141.772 100.736 141.685 100.677 141.583L100.254 140.844C100.229 140.799 100.2 140.756 100.17 140.715L103.241 140.715L103.241 141.229C103.241 141.251 103.247 141.273 103.259 141.293C103.271 141.312 103.287 141.328 103.307 141.339C103.327 141.349 103.349 141.354 103.372 141.353C103.395 141.352 103.416 141.345 103.435 141.332L104.582 140.569C104.599 140.558 104.613 140.543 104.622 140.525C104.632 140.506 104.637 140.486 104.637 140.466C104.637 140.445 104.632 140.425 104.622 140.407C104.613 140.389 104.599 140.374 104.582 140.362Z" fill="#262626"/>
</g>
<g clip-path="url(#clip1_982_4506)">
<path d="M98.0158 146.369C97.8282 146.369 97.6482 146.444 97.5155 146.576C97.3829 146.709 97.3083 146.888 97.3083 147.075V148.488C97.3083 148.675 97.3829 148.854 97.5155 148.987C97.6482 149.119 97.8282 149.194 98.0158 149.194H103.204C103.391 149.194 103.571 149.119 103.704 148.987C103.836 148.854 103.911 148.675 103.911 148.488V147.075C103.911 146.888 103.836 146.709 103.704 146.576C103.571 146.444 103.391 146.369 103.204 146.369H98.0158ZM97.78 147.075C97.78 147.013 97.8048 146.953 97.849 146.909C97.8933 146.865 97.9532 146.84 98.0158 146.84H103.204C103.266 146.84 103.326 146.865 103.37 146.909C103.414 146.953 103.439 147.013 103.439 147.075V147.781H97.78V147.075Z" fill="#262626"/>
</g>
<g clip-path="url(#clip2_982_4506)">
<path d="M98.0158 151.037C97.8282 151.037 97.6482 151.111 97.5155 151.244C97.3829 151.376 97.3083 151.556 97.3083 151.743V153.155C97.3083 153.342 97.3829 153.522 97.5155 153.654C97.6482 153.787 97.8282 153.861 98.0158 153.861H103.204C103.391 153.861 103.571 153.787 103.704 153.654C103.836 153.522 103.911 153.342 103.911 153.155V151.743C103.911 151.556 103.836 151.376 103.704 151.244C103.571 151.111 103.391 151.037 103.204 151.037H98.0158ZM97.78 151.743C97.78 151.681 97.8048 151.621 97.849 151.577C97.8933 151.532 97.9532 151.508 98.0158 151.508H103.204C103.266 151.508 103.326 151.532 103.37 151.577C103.414 151.621 103.439 151.681 103.439 151.743V152.449H97.78V151.743Z" fill="#262626"/>
</g>
<path d="M48.2342 84C48.3275 84 48.4198 84.0185 48.506 84.0543C48.5922 84.0901 48.6705 84.1425 48.7365 84.2087C48.8024 84.2748 48.8548 84.3533 48.8905 84.4398C48.9262 84.5262 48.9445 84.6188 48.9445 84.7124L48.9445 104.81C48.9445 104.999 48.8697 105.18 48.7365 105.314C48.6033 105.448 48.4226 105.523 48.2342 105.523C48.0458 105.523 47.8651 105.448 47.7319 105.314C47.5987 105.18 47.5238 104.999 47.5238 104.81L47.5238 84.7124C47.5238 84.5234 47.5987 84.3423 47.7319 84.2087C47.8651 84.0751 48.0458 84 48.2342 84Z" fill="#262626"/>
<path d="M41.6952 94.049L54.7739 94.049C54.8684 94.047 54.9624 94.0639 55.0503 94.0988C55.1383 94.1337 55.2184 94.1858 55.2859 94.2522C55.3535 94.3185 55.4072 94.3977 55.4439 94.4851C55.4805 94.5725 55.4994 94.6664 55.4994 94.7612C55.4994 94.856 55.4805 94.9499 55.4439 95.0373C55.4072 95.1247 55.3535 95.2039 55.2859 95.2703C55.2184 95.3366 55.1383 95.3887 55.0503 95.4236C54.9624 95.4585 54.8684 95.4754 54.7739 95.4734L41.6952 95.4734C41.5095 95.4694 41.3327 95.3926 41.2027 95.2595C41.0728 95.1264 41 94.9475 41 94.7612C41 94.5749 41.0728 94.3961 41.2027 94.2629C41.3327 94.1298 41.5095 94.053 41.6952 94.049Z" fill="#262626"/>
<defs>
<clipPath id="clip0_982_4506">
<rect width="7.96259" height="7.97813" fill="white" transform="translate(104.737 136.485) rotate(90)"/>
</clipPath>
<clipPath id="clip1_982_4506">
<rect width="6.60259" height="6.58973" fill="white" transform="translate(97.3083 144.447)"/>
</clipPath>
<clipPath id="clip2_982_4506">
<rect width="6.60259" height="6.58973" fill="white" transform="translate(97.3083 149.115)"/>
</clipPath>
</defs>
</svg>
