<svg width="240" height="183" viewBox="0 0 240 183" fill="none" xmlns="http://www.w3.org/2000/svg">
<path d="M224.41 182.376L15.5908 182.376C11.6217 182.376 7.81525 180.801 5.0087 177.998C2.20215 175.194 0.625427 171.392 0.625427 167.427L0.625427 15.5684C0.625427 11.6054 2.20139 7.80461 5.00662 5.0023C7.81186 2.19998 11.6166 0.625671 15.5838 0.625671L224.417 0.625671C228.384 0.625671 232.189 2.19998 234.994 5.0023C237.799 7.80461 239.375 11.6054 239.375 15.5684L239.375 167.427C239.375 171.392 237.798 175.194 234.992 177.998C232.185 180.801 228.379 182.376 224.41 182.376Z" fill="white"/>
<path d="M0 167.426V15.5674C0 11.4387 1.64185 7.47903 4.56435 4.55958C7.48684 1.64013 11.4506 0 15.5836 0H224.416C228.549 0 232.513 1.64013 235.436 4.55958C238.358 7.47903 240 11.4387 240 15.5674V167.426C240 169.471 239.597 171.496 238.813 173.386C238.03 175.275 236.881 176.992 235.434 178.438C233.986 179.885 232.267 181.032 230.376 181.814C228.484 182.597 226.457 183 224.409 183H15.5906C13.5433 183 11.5159 182.597 9.62436 181.814C7.73282 181.032 6.01412 179.885 4.56639 178.438C3.11867 176.992 1.97029 175.275 1.18678 173.386C0.403281 171.496 0 169.471 0 167.426ZM15.5836 1.24923C11.7829 1.25029 8.13831 2.75927 5.4512 5.44433C2.76409 8.12939 1.25453 11.7707 1.25453 15.5674V167.426C1.25453 171.225 2.76536 174.869 5.45465 177.555C8.14394 180.242 11.7914 181.751 15.5946 181.751H224.409C228.213 181.751 231.86 180.242 234.549 177.555C237.239 174.869 238.749 171.225 238.749 167.426V15.5674C238.749 11.77 237.239 8.1281 234.551 5.44292C231.863 2.75775 228.218 1.24923 224.416 1.24923H15.5836Z" fill="#ADADAD"/>
<path d="M0.625061 15.5653V28.2185H239.372V15.5653C239.372 11.6023 237.796 7.80151 234.99 4.99919C232.185 2.19688 228.38 0.622559 224.413 0.622559H15.5824C13.6181 0.622559 11.673 1.00907 9.85826 1.76003C8.04349 2.51099 6.39455 3.61168 5.00562 4.99926C3.61668 6.38683 2.51495 8.03412 1.76333 9.84705C1.01171 11.66 0.62493 13.6031 0.625061 15.5653Z" fill="#292A2E"/>
<path d="M53.7574 175.506C53.6247 175.506 53.4975 175.454 53.4037 175.36C53.3099 175.266 53.2571 175.139 53.2571 175.007V32.9355C53.2571 32.803 53.3099 32.6759 53.4037 32.5821C53.4975 32.4884 53.6247 32.4358 53.7574 32.4358C53.89 32.4358 54.0173 32.4884 54.1111 32.5821C54.2049 32.6759 54.2576 32.803 54.2576 32.9355V175.007C54.2576 175.139 54.2049 175.266 54.1111 175.36C54.0173 175.454 53.89 175.506 53.7574 175.506Z" fill="#ADADAD"/>
<path d="M11.9106 17.36C13.7046 17.36 15.159 15.9027 15.159 14.105C15.159 12.3073 13.7046 10.85 11.9106 10.85C10.1165 10.85 8.66217 12.3073 8.66217 14.105C8.66217 15.9027 10.1165 17.36 11.9106 17.36Z" fill="white"/>
<path d="M22.7391 17.36C24.5331 17.36 25.9875 15.9027 25.9875 14.105C25.9875 12.3073 24.5331 10.85 22.7391 10.85C20.945 10.85 19.4907 12.3073 19.4907 14.105C19.4907 15.9027 20.945 17.36 22.7391 17.36Z" fill="white"/>
<path d="M33.5662 17.36C35.3603 17.36 36.8146 15.9027 36.8146 14.105C36.8146 12.3073 35.3603 10.85 33.5662 10.85C31.7722 10.85 30.3178 12.3073 30.3178 14.105C30.3178 15.9027 31.7722 17.36 33.5662 17.36Z" fill="white"/>
<path d="M30.8798 39.1776H9.21854C9.08587 39.1776 8.95865 39.125 8.86484 39.0313C8.77103 38.9375 8.71832 38.8104 8.71832 38.6779C8.71832 38.5454 8.77103 38.4183 8.86484 38.3246C8.95865 38.2309 9.08587 38.1782 9.21854 38.1782H30.8798C31.0125 38.1782 31.1397 38.2309 31.2335 38.3246C31.3273 38.4183 31.38 38.5454 31.38 38.6779C31.38 38.8104 31.3273 38.9375 31.2335 39.0313C31.1397 39.125 31.0125 39.1776 30.8798 39.1776Z" fill="#ADADAD"/>
<path d="M24.3542 49.0337H9.21872C9.08605 49.0337 8.95883 48.9811 8.86502 48.8874C8.77121 48.7937 8.71851 48.6666 8.71851 48.534C8.71851 48.4015 8.77121 48.2744 8.86502 48.1807C8.95883 48.087 9.08605 48.0343 9.21872 48.0343H24.3542C24.4869 48.0343 24.6141 48.087 24.7079 48.1807C24.8017 48.2744 24.8544 48.4015 24.8544 48.534C24.8544 48.6666 24.8017 48.7937 24.7079 48.8874C24.6141 48.9811 24.4869 49.0337 24.3542 49.0337Z" fill="#ADADAD"/>
<path d="M37.6649 58.8896H9.21872C9.08605 58.8896 8.95883 58.8369 8.86502 58.7432C8.77121 58.6495 8.71851 58.5224 8.71851 58.3899C8.71851 58.2574 8.77121 58.1303 8.86502 58.0366C8.95883 57.9428 9.08605 57.8902 9.21872 57.8902H37.6649C37.7976 57.8902 37.9248 57.9428 38.0186 58.0366C38.1124 58.1303 38.1651 58.2574 38.1651 58.3899C38.1651 58.5224 38.1124 58.6495 38.0186 58.7432C37.9248 58.8369 37.7976 58.8896 37.6649 58.8896Z" fill="#ADADAD"/>
<path d="M42.9737 68.7456H19.2236C19.0909 68.7456 18.9637 68.693 18.8699 68.5992C18.7761 68.5055 18.7234 68.3784 18.7234 68.2459C18.7234 68.1134 18.7761 67.9863 18.8699 67.8926C18.9637 67.7989 19.0909 67.7462 19.2236 67.7462H42.9737C43.1063 67.7462 43.2336 67.7989 43.3274 67.8926C43.4212 67.9863 43.4739 68.1134 43.4739 68.2459C43.4739 68.3784 43.4212 68.5055 43.3274 68.5992C43.2336 68.693 43.1063 68.7456 42.9737 68.7456Z" fill="#ADADAD"/>
<path d="M31.4888 78.6024H19.2236C19.0909 78.6024 18.9637 78.5498 18.8699 78.456C18.7761 78.3623 18.7234 78.2352 18.7234 78.1027C18.7234 77.9702 18.7761 77.8431 18.8699 77.7494C18.9637 77.6557 19.0909 77.603 19.2236 77.603H31.4888C31.6215 77.603 31.7487 77.6557 31.8425 77.7494C31.9364 77.8431 31.9891 77.9702 31.9891 78.1027C31.9891 78.2352 31.9364 78.3623 31.8425 78.456C31.7487 78.5498 31.6215 78.6024 31.4888 78.6024Z" fill="#ADADAD"/>
<path d="M40.8849 88.4586H19.2236C19.0909 88.4586 18.9637 88.406 18.8699 88.3122C18.7761 88.2185 18.7234 88.0914 18.7234 87.9589C18.7234 87.8264 18.7761 87.6993 18.8699 87.6056C18.9637 87.5119 19.0909 87.4592 19.2236 87.4592H40.8849C41.0176 87.4592 41.1448 87.5119 41.2386 87.6056C41.3324 87.6993 41.3851 87.8264 41.3851 87.9589C41.3851 88.0914 41.3324 88.2185 41.2386 88.3122C41.1448 88.406 41.0176 88.4586 40.8849 88.4586Z" fill="#ADADAD"/>
<path d="M25.9209 98.3144H9.21872C9.08605 98.3144 8.95883 98.2617 8.86502 98.168C8.77121 98.0743 8.71851 97.9472 8.71851 97.8147C8.71851 97.6821 8.77121 97.555 8.86502 97.4613C8.95883 97.3676 9.08605 97.3149 9.21872 97.3149H25.9209C26.0535 97.3149 26.1807 97.3676 26.2746 97.4613C26.3684 97.555 26.4211 97.6821 26.4211 97.8147C26.4211 97.9472 26.3684 98.0743 26.2746 98.168C26.1807 98.2617 26.0535 98.3144 25.9209 98.3144Z" fill="#ADADAD"/>
<path d="M20.1794 108.169H9.21872C9.08605 108.169 8.95883 108.117 8.86502 108.023C8.77121 107.929 8.71851 107.802 8.71851 107.67C8.71851 107.537 8.77121 107.41 8.86502 107.316C8.95883 107.223 9.08605 107.17 9.21872 107.17H20.1794C20.3121 107.17 20.4393 107.223 20.5331 107.316C20.6269 107.41 20.6796 107.537 20.6796 107.67C20.6796 107.802 20.6269 107.929 20.5331 108.023C20.4393 108.117 20.3121 108.169 20.1794 108.169Z" fill="#ADADAD"/>
<path opacity="0.8" d="M79.5132 163.248H83.557C84.1656 163.248 84.6589 162.754 84.6589 162.144V133.119C84.6589 132.509 84.1656 132.015 83.557 132.015H79.5132C78.9046 132.015 78.4112 132.509 78.4112 133.119V162.144C78.4112 162.754 78.9046 163.248 79.5132 163.248Z" fill="#FADB26"/>
<path opacity="0.8" d="M161.875 163.248H165.919C166.527 163.248 167.021 162.754 167.021 162.144V89.3964C167.021 88.7866 166.527 88.2922 165.919 88.2922H161.875C161.266 88.2922 160.773 88.7866 160.773 89.3964V162.144C160.773 162.754 161.266 163.248 161.875 163.248Z" fill="#FADB26"/>
<path opacity="0.8" d="M189.33 163.248H193.374C193.982 163.248 194.476 162.754 194.476 162.144V89.3964C194.476 88.7866 193.982 88.2922 193.374 88.2922H189.33C188.721 88.2922 188.228 88.7866 188.228 89.3964V162.144C188.228 162.754 188.721 163.248 189.33 163.248Z" fill="#FADB26"/>
<path opacity="0.8" d="M106.968 163.248H111.012C111.621 163.248 112.114 162.754 112.114 162.144V108.471C112.114 107.861 111.621 107.366 111.012 107.366H106.968C106.36 107.366 105.867 107.861 105.867 108.471V162.144C105.867 162.754 106.36 163.248 106.968 163.248Z" fill="#FADB26"/>
<path opacity="0.8" d="M134.422 163.248H138.466C139.075 163.248 139.568 162.754 139.568 162.144V118.8C139.568 118.191 139.075 117.696 138.466 117.696H134.422C133.814 117.696 133.32 118.191 133.32 118.8V162.144C133.32 162.754 133.814 163.248 134.422 163.248Z" fill="#FADB26"/>
<path opacity="0.5" d="M85.7626 163.247H89.8064C90.415 163.247 90.9084 162.753 90.9084 162.143L90.9084 76.5091C90.9084 75.8993 90.415 75.4049 89.8064 75.4049H85.7626C85.1541 75.4049 84.6607 75.8993 84.6607 76.5091L84.6607 162.143C84.6607 162.753 85.1541 163.247 85.7626 163.247Z" fill="#FADB26"/>
<path opacity="0.5" d="M195.577 163.247H199.621C200.229 163.247 200.723 162.753 200.723 162.143V76.5091C200.723 75.8993 200.229 75.4049 199.621 75.4049H195.577C194.968 75.4049 194.475 75.8993 194.475 76.5091V162.143C194.475 162.753 194.968 163.247 195.577 163.247Z" fill="#FADB26"/>
<path opacity="0.5" d="M168.124 163.248H172.168C172.776 163.248 173.27 162.754 173.27 162.144V108.471C173.27 107.861 172.776 107.366 172.168 107.366H168.124C167.515 107.366 167.022 107.861 167.022 108.471V162.144C167.022 162.754 167.515 163.248 168.124 163.248Z" fill="#FADB26"/>
<path opacity="0.5" d="M140.67 163.248H144.714C145.322 163.248 145.816 162.754 145.816 162.144V135.011C145.816 134.401 145.322 133.907 144.714 133.907H140.67C140.061 133.907 139.568 134.401 139.568 135.011V162.144C139.568 162.754 140.061 163.248 140.67 163.248Z" fill="#FADB26"/>
<path opacity="0.5" d="M113.216 163.248H117.26C117.868 163.248 118.362 162.754 118.362 162.144L118.362 101.926C118.362 101.316 117.868 100.821 117.26 100.821H113.216C112.607 100.821 112.114 101.316 112.114 101.926V162.144C112.114 162.754 112.607 163.248 113.216 163.248Z" fill="#FADB26"/>
<path opacity="0.2" d="M201.825 163.247H205.869C206.478 163.247 206.971 162.753 206.971 162.143V101.515C206.971 100.905 206.478 100.411 205.869 100.411H201.825C201.217 100.411 200.723 100.905 200.723 101.515V162.143C200.723 162.753 201.217 163.247 201.825 163.247Z" fill="#FADB26"/>
<path opacity="0.2" d="M174.373 163.247H178.417C179.025 163.247 179.519 162.753 179.519 162.143V124.936C179.519 124.326 179.025 123.832 178.417 123.832H174.373C173.765 123.832 173.271 124.326 173.271 124.936V162.143C173.271 162.753 173.765 163.247 174.373 163.247Z" fill="#FADB26"/>
<path opacity="0.2" d="M146.918 163.248H150.961C151.57 163.248 152.063 162.754 152.063 162.144V108.062C152.063 107.452 151.57 106.958 150.961 106.958H146.918C146.309 106.958 145.816 107.452 145.816 108.062V162.144C145.816 162.754 146.309 163.248 146.918 163.248Z" fill="#FADB26"/>
<path opacity="0.2" d="M119.463 163.248H123.507C124.116 163.248 124.609 162.754 124.609 162.144V108.062C124.609 107.452 124.116 106.958 123.507 106.958H119.463C118.855 106.958 118.362 107.452 118.362 108.062V162.144C118.362 162.754 118.855 163.248 119.463 163.248Z" fill="#FADB26"/>
<path opacity="0.2" d="M92.0104 163.248H96.0542C96.6628 163.248 97.1561 162.754 97.1561 162.144L97.1561 80.3449C97.1561 79.7351 96.6628 79.2407 96.0542 79.2407H92.0104C91.4018 79.2407 90.9084 79.7351 90.9084 80.3449L90.9084 162.144C90.9084 162.754 91.4018 163.248 92.0104 163.248Z" fill="#FADB26"/>
<path d="M219.778 163.278H67.6717C67.4526 163.278 67.2425 163.191 67.0876 163.036C66.9327 162.881 66.8456 162.671 66.8456 162.452V64.2818C66.8456 64.0629 66.9327 63.853 67.0876 63.6983C67.2425 63.5435 67.4526 63.4565 67.6717 63.4565C67.8908 63.4565 68.1009 63.5435 68.2559 63.6983C68.4108 63.853 68.4978 64.0629 68.4978 64.2818V161.627H219.778C219.997 161.627 220.207 161.714 220.362 161.869C220.517 162.024 220.604 162.234 220.604 162.452C220.604 162.671 220.517 162.881 220.362 163.036C220.207 163.191 219.997 163.278 219.778 163.278Z" fill="#ADADAD"/>
</svg>
