<svg width="162" height="137" viewBox="0 0 162 137" fill="none" xmlns="http://www.w3.org/2000/svg">
<path d="M52.7887 109.817L49.4087 124.316L2.02698 113.238L52.7887 109.817Z" fill="white"/>
<g opacity="0.15">
<path d="M52.7887 109.817L49.4087 124.316L2.02698 113.238L52.7887 109.817Z" fill="#111111"/>
</g>
<path d="M2.02774 113.232L63.922 114.187L50.6755 103.16L47.2947 104.019L48.3383 100.579L41.6501 94.6797L2.02774 113.232Z" fill="white"/>
<path d="M2.02761 113.232L47.2946 104.019L48.3382 100.579L2.02761 113.232Z" fill="white"/>
<g opacity="0.15">
<path d="M2.02712 113.232L47.2941 104.019L48.3377 100.579L2.02712 113.232Z" fill="#111111"/>
</g>
<path d="M74 94.5097C84.5569 92.2281 98.0943 91.3868 109.072 90.6661C184.841 85.6916 247.229 109.226 247.229 109.226C247.229 109.226 320.148 125.445 346.002 126.807C357.35 127.405 372.015 126.384 383.375 126.807C407.727 127.713 450.608 123.24 474.002 117.518C501.163 110.876 521.58 98.1523 540.507 84.1333C557.689 71.4068 573.336 57.7157 591.13 45.367C620.708 24.8396 660.515 13.7451 698 1" stroke="#111111" stroke-width="2" stroke-linecap="round" stroke-dasharray="7 7"/>
</svg>
