<svg width="24" height="24" viewBox="0 0 24 24" fill="none" xmlns="http://www.w3.org/2000/svg">
<path fill-rule="evenodd" clip-rule="evenodd" d="M16.9637 14.1835C16.6906 14.0469 15.3513 13.3888 15.102 13.2971C14.8526 13.2064 14.6711 13.1614 14.4887 13.4346C14.3072 13.7059 13.7856 14.3201 13.6271 14.5016C13.4676 14.684 13.309 14.706 13.0367 14.5703C12.7645 14.4328 11.8863 14.1459 10.8459 13.2183C10.0365 12.4959 9.48924 11.604 9.33065 11.3309C9.17207 11.0586 9.31324 10.911 9.44982 10.7754C9.57265 10.6534 9.72207 10.4573 9.85865 10.2987C9.99523 10.1392 10.0402 10.0255 10.1309 9.84311C10.2226 9.66161 10.1767 9.50302 10.108 9.36644C10.0402 9.22986 9.49565 7.88878 9.26832 7.34336C9.0474 6.81261 8.82282 6.88503 8.65599 6.87586C8.49649 6.86853 8.31499 6.86669 8.13349 6.86669C7.95199 6.86669 7.65682 6.93453 7.40749 7.20769C7.15724 7.47994 6.45416 8.13903 6.45416 9.48011C6.45416 10.8203 7.42949 12.1155 7.56607 12.2979C7.70266 12.4794 9.48649 15.2313 12.2191 16.411C12.8699 16.6915 13.3768 16.8593 13.7719 16.9839C14.4246 17.192 15.0186 17.1627 15.4879 17.0921C16.0104 17.0142 17.0994 16.433 17.3267 15.7968C17.5531 15.1607 17.5531 14.6153 17.4853 14.5016C17.4175 14.3879 17.236 14.3201 16.9628 14.1835H16.9637ZM11.9936 20.9696H11.9899C10.3669 20.9699 8.77366 20.5336 7.37724 19.7064L7.04724 19.5103L3.61708 20.4104L4.53283 17.0664L4.31741 16.7236C3.41004 15.2792 2.92985 13.6076 2.93233 11.9019C2.93416 6.90611 6.99866 2.84162 11.9972 2.84162C14.4172 2.84162 16.6924 3.78578 18.4029 5.49811C19.2466 6.33831 19.9153 7.33746 20.3703 8.43776C20.8253 9.53807 21.0577 10.7177 21.0539 11.9084C21.0521 16.9042 16.9876 20.9696 11.9936 20.9696V20.9696ZM19.7046 4.19737C18.6946 3.18071 17.4929 2.37461 16.1691 1.82577C14.8453 1.27693 13.4257 0.996263 11.9926 1.00004C5.98482 1.00004 1.0935 5.89045 1.09167 11.901C1.08888 13.8139 1.59068 15.6936 2.54641 17.3506L1 23L6.77866 21.4838C8.37721 22.3548 10.1686 22.8111 11.989 22.8112H11.9936C18.0014 22.8112 22.8927 17.9208 22.8945 11.9093C22.899 10.4768 22.6193 9.05762 22.0718 7.73389C21.5242 6.41016 20.7196 5.20815 19.7046 4.19737" fill="white"/>
</svg>
