<svg width="1340" height="143" viewBox="0 0 1340 143" fill="none" xmlns="http://www.w3.org/2000/svg">
<path d="M35.2211 1.18508L65.4953 63.2044L96.1654 1.18508H131.584L81.5229 93.6215V141.42H49.2699V93.2265L0 1.18508H35.2211Z" fill="#2A2A2A"/>
<path d="M205.011 142.605C193.799 142.605 184.235 140.762 176.32 137.075C168.405 133.256 161.942 128.121 156.929 121.669C152.048 115.085 148.42 107.645 146.046 99.3494C143.803 90.9222 142.682 82.0999 142.682 72.8826V1.18508H175.133V72.8826C175.133 78.1496 175.661 83.285 176.716 88.2887C177.771 93.1607 179.486 97.506 181.861 101.325C184.235 105.143 187.269 108.172 190.963 110.41C194.788 112.649 199.471 113.768 205.011 113.768C210.684 113.768 215.433 112.649 219.258 110.41C223.084 108.04 226.118 104.946 228.36 101.127C230.603 97.1768 232.252 92.7657 233.307 87.8936C234.362 83.0216 234.89 78.0179 234.89 72.8826V1.18508H267.341V72.8826C267.341 82.6266 266.088 91.7122 263.581 100.14C261.207 108.567 257.513 116.006 252.501 122.459C247.488 128.779 241.024 133.717 233.109 137.272C225.326 140.827 215.96 142.605 205.011 142.605Z" fill="#2A2A2A"/>
<path d="M403.292 141.42V57.8715L373.018 118.706H355.21L324.935 57.8715V141.42H292.484V1.18508H327.705L364.114 74.4627L400.72 1.18508H435.743V141.42H403.292Z" fill="#2A2A2A"/>
<path d="M498.142 1.18508H533.165L581.446 141.42H548.203L537.321 110.015H493.591L482.906 141.42H449.664L498.142 1.18508ZM531.978 87.6961L515.555 33.7749L498.736 87.6961H531.978Z" fill="#2A2A2A"/>
<path d="M592.511 101.325V72.8826H653.455V101.325H592.511Z" fill="#2A2A2A"/>
<path d="M761.892 42.268C761.496 41.6096 760.111 40.622 757.737 39.3052C755.362 37.8568 752.394 36.3425 748.832 34.7624C745.271 33.1823 741.379 31.7997 737.158 30.6146C732.937 29.4295 728.715 28.837 724.494 28.837C718.954 28.837 714.667 29.8246 711.633 31.7997C708.599 33.6432 707.081 36.5401 707.081 40.4903C707.081 43.6505 708.203 46.1524 710.445 47.9959C712.82 49.8393 716.184 51.4853 720.537 52.9337C724.89 54.2505 730.232 55.8306 736.564 57.674C745.534 60.0442 753.317 62.9411 759.913 66.3646C766.509 69.6565 771.522 73.936 774.951 79.203C778.513 84.4701 780.294 91.4489 780.294 100.14C780.294 108.04 778.843 114.756 775.941 120.286C773.039 125.685 769.081 130.096 764.068 133.519C759.188 136.811 753.581 139.247 747.249 140.827C740.917 142.276 734.388 143 727.66 143C720.801 143 713.743 142.342 706.488 141.025C699.365 139.576 692.505 137.601 685.909 135.099C679.314 132.466 673.246 129.306 667.705 125.619L681.952 97.3743C682.48 98.0327 684.194 99.2836 687.097 101.127C689.999 102.839 693.56 104.682 697.782 106.657C702.135 108.501 706.95 110.147 712.226 111.595C717.503 113.044 722.845 113.768 728.254 113.768C734.058 113.768 738.345 112.846 741.115 111.003C744.017 109.159 745.469 106.592 745.469 103.3C745.469 99.7445 743.951 96.9793 740.917 95.0041C738.015 93.029 733.992 91.2514 728.847 89.6713C723.835 88.0911 718.03 86.3135 711.435 84.3384C702.86 81.7049 695.737 78.7422 690.065 75.4503C684.524 72.1584 680.369 68.1423 677.599 63.4019C674.96 58.6616 673.641 52.7362 673.641 45.6257C673.641 35.75 675.95 27.4544 680.567 20.739C685.316 13.8918 691.648 8.75644 699.562 5.33287C707.477 1.77762 716.118 0 725.484 0C732.079 0 738.411 0.790053 744.479 2.37016C750.679 3.95027 756.417 5.92541 761.694 8.29558C767.102 10.6657 771.917 13.0359 776.139 15.4061L761.892 42.268Z" fill="#2A2A2A"/>
<path d="M910.144 141.42V57.8715L879.869 118.706H862.061L831.787 57.8715V141.42H799.336V1.18508H834.557L870.965 74.4627L907.571 1.18508H942.595V141.42H910.144Z" fill="#2A2A2A"/>
<path d="M1004.99 1.18508H1040.02L1088.3 141.42H1055.05L1044.17 110.015H1000.44L989.757 141.42H956.515L1004.99 1.18508ZM1038.83 87.6961L1022.41 33.7749L1005.59 87.6961H1038.83Z" fill="#2A2A2A"/>
<path d="M1102.13 141.42V1.18508H1165.45C1172.05 1.18508 1178.12 2.56768 1183.66 5.33287C1189.33 7.96639 1194.21 11.5875 1198.3 16.1961C1202.39 20.6731 1205.55 25.7426 1207.8 31.4047C1210.17 37.0668 1211.36 42.7947 1211.36 48.5884C1211.36 54.3821 1210.43 59.9125 1208.59 65.1796C1206.74 70.3149 1204.1 74.9894 1200.67 79.203C1197.24 83.285 1193.15 86.6427 1188.4 89.2762L1219.27 141.42H1183.46L1156.55 96.1892H1134.58V141.42H1102.13ZM1134.58 67.9447H1164.26C1166.9 67.9447 1169.21 67.1547 1171.19 65.5746C1173.3 63.8628 1175.02 61.5585 1176.33 58.6616C1177.65 55.7647 1178.31 52.407 1178.31 48.5884C1178.31 44.7698 1177.52 41.4779 1175.94 38.7127C1174.49 35.8158 1172.64 33.5773 1170.4 31.9972C1168.16 30.4171 1165.78 29.6271 1163.27 29.6271H1134.58V67.9447Z" fill="#2A2A2A"/>
<path d="M1340 29.6271H1297.26V141.42H1264.81V29.6271H1221.87V1.18508H1340V29.6271Z" fill="#2A2A2A"/>
</svg>
