<?xml version="1.0" encoding="utf-8"?>
<!DOCTYPE svg PUBLIC "-//W3C//DTD SVG 1.1//EN" "http://www.w3.org/Graphics/SVG/1.1/DTD/svg11.dtd">
<svg xmlns="http://www.w3.org/2000/svg" width="182" height="32" viewBox="0 0 182 32">
  <g fill="#8C8C8C" fill-rule="evenodd">
    <path d="M104.8229 18.0013714C105.67591 16.2627048 106.628193 15.0147048 107.999627 14.0065524 108.852025 13.3994667 109.597183 12.878019 110.682442 12.4056381 111.783634 11.9024762 112.979196 11.5824762 114.467674 11.4450286 115.522294 11.3840762 116.513183 11.4477714 117.630307 11.5864381 119.391479 11.6208762 120.092516 11.3024 121.084631 10.7687619 122.434311 10.1129143 123.411105 9.06118095 123.984681 7.64251429 124.635775 6.39268571 124.830951 4.43062857 124.542631 3.23657143 124.438149 2.2823619 124.16086 1.29980952 123.872233.471771429 119.342456-.33432381 114.034735.844495238 109.419472 4.10544762 101.388186 9.7816381 98.5016172 19.604419 102.971954 26.0455619 103.137408 26.2832762 103.312055 26.5106286 103.492216 26.7321905 103.385284 24.0109714 103.536644 20.4291048 104.8229 18.0013714M132.606609 6.03931429C132.564633 5.97866667 132.518673 5.92228571 132.475778 5.86285714 132.602933 8.28693333 132.470875 11.4308571 130.95237 13.9268571 130.09936 15.6649143 129.051175 16.7215238 127.775337 17.9216762 127.06235 18.5467429 126.238448 19.0191238 125.153189 19.4918095 124.051997 19.9949714 122.796074 20.3454476 121.307596 20.4828952 120.253589 20.5435429 119.611074 20.4612571 118.245461 20.3396571 116.94266 20.3548952 115.683061 20.6261333 114.690333 21.1594667 113.341266 21.8150095 112.364471 22.8670476 111.790589 24.2848 111.139495 25.5349333 110.944626 27.4972952 111.232333 28.6910476 111.214869 29.5584 111.788444 30.7762286 112.308094 31.7069714 116.701832 32.3104 121.747582 31.0968381 126.159091 27.978819 134.190377 22.3029333 137.077253 12.4804571 132.606609 6.03931429"/>
    <polygon points="81.285 .934 102.942 .934 101.529 10.207 95.377 10.207 92.247 31.244 82.89 31.244 86.02 10.207 79.873 10.207"/>
    <polygon points="134.721 31.259 143.431 31.259 144.994 18.319 149.362 31.244 155.9 31.244 161.736 18.319 161.707 31.321 170.111 31.321 170.111 .923 161.713 .924 153.006 18.902 147.984 .926 139.424 .926"/>
    <path d="M44.223702.932754286L41.7090993 17.630659C41.3558232 19.9761067 40.8812138 22.3136305 38.1208805 22.3136305 35.3608535 22.3136305 35.6844091 19.9761067 36.0376852 17.630659L38.5522879.932754286 28.1923822.932754286 25.5218232 18.6638019C24.2049276 27.4104686 28.823867 31.3857829 36.8018401 31.3857829 44.7798131 31.3857829 50.5961532 27.4104686 51.9133552 18.6638019L54.5836077.932754286 44.223702.932754286zM24.9781212 1.85106286C22.8658182 1.05990095 20.2222222.586605714 17.8338552.586605714 9.32060606.586605714 1.58284848 7.54889143.24113468 16.2519771-1.07055219 24.7572724 4.38240067 31.363901 12.6646263 31.363901 14.5520337 31.363901 18.4417475 30.9384533 20.3591818 30.1768533L22.0045354 20.5433295C19.6492593 21.4701105 18.7368081 21.8010819 16.1192559 21.86112 12.9618316 21.9336533 10.4092357 19.2587581 10.9157104 15.9752533 11.4157508 12.7313676 14.3951582 10.2832152 17.5516633 10.1597867 19.6088148 10.0796343 21.1787946 9.93974857 23.4776936 11.3910248L24.9781212 1.85106286zM70.3551333.716099048C73.5894633 1.05895619 76.4095441 2.27769905 77.7993623 3.73446095L76.5492613 11.7701181C75.6064768 10.9457371 74.5248943 10.463299 74.0928741 10.2359467 71.1732141 8.69689905 68.0188539 8.63716571 67.0405273 8.80173714 66.0622007 8.96630857 65.4264263 9.64958476 65.6546923 10.5050514 65.8829582 11.3608229 67.8071333 11.58208 68.1974835 11.6244419 71.1582007 11.9453562 73.1283354 12.828861 73.2818404 12.8849371 76.2342848 13.9631848 77.0692175 17.020861 77.0692175 17.020861 77.4494566 18.11008 77.8505306 19.7990705 77.6930424 21.2637562 77.4439414 23.5805562 77.0882141 24.6618514 75.9144061 26.5105371L75.5761434 27.0414324C73.3854027 30.019261 69.8618337 31.5522133 65.1276889 31.4248229 61.0032747 31.314499 56.2032545 29.4859276 53.6727192 27.7149562 53.6727192 27.7149562 54.1338471 24.6862324 54.8875845 19.7329371 55.8159684 20.6652038 58.1093522 21.872061 58.3694835 22.0232229 60.9579279 23.5278324 64.9659111 23.7173943 65.7196485 23.5854324 66.4733859 23.4531657 67.3751131 23.3187657 67.3089313 22.1798705 67.2452007 21.0824229 65.3556485 21.1503848 64.3926418 21.02208 62.4102512 20.7575467 61.0461704 20.2556038 60.4603387 20.0139276 58.0958707 19.0374705 57.0130626 16.7901562 56.5510155 15.1740038 56.2982377 14.2908038 56.2369582 13.3969371 56.2424734 12.7563276 56.0457663 1.18848 64.3292175.0764038095 70.3551333.716099048M110.750953 23.2602819C111.324222 21.8425295 112.301629 20.7904914 113.650697 20.1349486 114.642811 19.6013105 115.903023 19.3300724 117.205518 19.315139 118.571131 19.4364343 119.21334 19.5193295 120.267959 19.4580724 121.756437 19.3209295 123.012666 18.9704533 124.113245 18.4666819 125.198505 17.994301 126.022713 17.5216152 126.7357 16.8965486 128.011845 15.6963962 129.059724 14.6400914 129.912121 12.9017295 131.476892 10.3301486 131.569424 7.07193905 131.423579 4.62073905 129.778225 2.79734857 127.603724 1.57403429 125.154996.96024381 125.396131 1.75689143 125.673421 2.8570819 125.803027 4.03651048 126.090734 5.23026286 125.669437 7.3931581 125.018343 8.64298667 124.444461 10.0613486 123.238481 11.0929676 121.889107 11.7485105 120.896687 12.2821486 120.195343 12.7926248 118.434171 12.7581867 117.317353 12.6192152 116.326158 12.55552 115.271845 12.6164724 113.783367 12.75392 112.601899 12.9078248 111.5004 13.4109867 110.415141 13.8833676 109.815215 14.3575771 108.963431 14.9643581 107.591077 15.9728152 106.639713 17.22112 105.786397 18.9594819 104.458471 21.4661486 104.446215 25.2034438 104.625458 27.9533105 106.344653 29.6453486 108.556535 30.7531581 111.016905 31.2624152 110.563131 30.2688914 109.944821 28.69632 109.965963 27.677501 109.678256 26.4834438 110.099552 24.51072 110.750953 23.2602819M177.986318 3.74406095C178.237257 3.74406095 178.44285 3.7093181 178.603402 3.64013714 178.763954 3.57065143 178.84423 3.40425143 178.84423 3.14063238 178.84423 3.02268952 178.816042 2.92912762 178.760277 2.8596419 178.704513 2.79046095 178.633123 2.7365181 178.546106 2.69842286 178.458782 2.66032762 178.361042 2.63442286 178.25319 2.62040381 178.144725 2.60638476 178.042082 2.59937524 177.944341 2.59937524L177.212358 2.59937524 177.212358 3.74406095 177.986318 3.74406095zM177.996735 1.92310857C178.547638 1.92310857 178.971385 2.02032762 179.267671 2.21446095 179.563651 2.40889905 179.712254 2.74169905 179.712254 3.21347048 179.712254 3.41461333 179.682533 3.58649905 179.623399 3.7285181 179.563651 3.8708419 179.482149 3.98695619 179.377668 4.07716571 179.27288 4.16737524 179.150934 4.23655619 179.011523 4.28501333 178.871806 4.33377524 178.721978 4.36486095 178.561732 4.37888L179.733395 6.28272762 178.822782 6.28272762 177.756213 4.42032762 177.212358 4.42032762 177.212358 6.28272762 176.344028 6.28272762 176.344028 1.92310857 177.996735 1.92310857zM175.182782 5.33613714C175.336288 5.71068952 175.545251 6.03495619 175.810284 6.30893714 176.075318 6.5829181 176.387537 6.79625143 176.746634 6.94893714 177.105732 7.1013181 177.49118 7.17781333 177.902671 7.17781333 178.307116 7.17781333 178.688887 7.1013181 179.047985 6.94893714 179.407082 6.79625143 179.719301 6.5829181 179.984335 6.30893714 180.249368 6.03495619 180.46017 5.71068952 180.617352 5.33613714 180.774227 4.96158476 180.852358 4.55228952 180.852358 4.10825143 180.852358 3.6645181 180.774227 3.25674667 180.617352 2.88554667 180.46017 2.51465143 180.249368 2.19373714 179.984335 1.92310857 179.719301 1.65278476 179.407082 1.44128 179.047985 1.28859429 178.688887 1.13590857 178.307116 1.0597181 177.902671 1.0597181 177.49118 1.0597181 177.105732 1.13590857 176.746634 1.28859429 176.387537 1.44128 176.075318 1.65278476 175.810284 1.92310857 175.545251 2.19373714 175.336288 2.51465143 175.182782 2.88554667 175.029277 3.25674667 174.952678 3.6645181 174.952678 4.10825143 174.952678 4.55228952 175.029277 4.96158476 175.182782 5.33613714zM174.21518 2.50581333C174.434867 2.02733714 174.729314 1.61987048 175.099136 1.28341333 175.468651.94695619 175.895769.686689524 176.38049.502918095 176.86521.319146667 177.372604.227108571 177.902671.227108571 178.432432.227108571 178.939826.319146667 179.424547.502918095 179.909267.686689524 180.336385.94695619 180.706207 1.28341333 181.075722 1.61987048 181.370476 2.02733714 181.590163 2.50581333 181.80985 2.98459429 181.91954 3.5188419 181.91954 4.10825143 181.91954 4.70497524 181.80985 5.24227048 181.590163 5.72105143 181.370476 6.19952762 181.075722 6.60912762 180.706207 6.94893714 180.336385 7.28874667 179.909267 7.54870857 179.424547 7.72912762 178.939826 7.90954667 178.432432 7.99975619 177.902671 7.99975619 177.372604 7.99975619 176.86521 7.90954667 176.38049 7.72912762 175.895769 7.54870857 175.468651 7.28874667 175.099136 6.94893714 174.729314 6.60912762 174.434867 6.19952762 174.21518 5.72105143 173.995493 5.24227048 173.885803 4.70497524 173.885803 4.10825143 173.885803 3.5188419 173.995493 2.98459429 174.21518 2.50581333z"/>
  </g>
</svg>
